<svg viewBox="0 0 21 16" xmlns="http://www.w3.org/2000/svg">
<path d="M5.02381 15.5051H15.9762L18.2381 6.93367H20.0238C20.2857 6.93367 20.5 6.71939 20.5 6.45748C20.5 6.19558 20.2857 5.98129 20.0238 5.98129H16.2143L12.5476 0.719389C12.4048 0.505104 12.0952 0.457485 11.881 0.600342C11.6667 0.743199 11.619 1.05272 11.7619 1.26701L15.0714 5.98129H5.92857L9.21429 1.2432C9.35714 1.02891 9.30952 0.719389 9.09524 0.576532C8.88095 0.433675 8.57143 0.481294 8.42857 0.69558L4.78571 5.98129H0.97619C0.714286 5.98129 0.5 6.19558 0.5 6.45748C0.5 6.71939 0.714286 6.93367 0.97619 6.93367H2.7619L5.02381 15.5051ZM8.35714 13.3622C8.35714 13.6242 8.14286 13.8384 7.88095 13.8384C7.61905 13.8384 7.40476 13.6242 7.40476 13.3622V8.60034C7.40476 8.33844 7.61905 8.12415 7.88095 8.12415C8.14286 8.12415 8.35714 8.33844 8.35714 8.60034V13.3622ZM10.9762 13.3622C10.9762 13.6242 10.7619 13.8384 10.5 13.8384C10.2381 13.8384 10.0238 13.6242 10.0238 13.3622V8.60034C10.0238 8.33844 10.2381 8.12415 10.5 8.12415C10.7619 8.12415 10.9762 8.33844 10.9762 8.60034V13.3622ZM13.5952 13.3622C13.5952 13.6242 13.381 13.8384 13.119 13.8384C12.8571 13.8384 12.6429 13.6242 12.6429 13.3622V8.60034C12.6429 8.33844 12.8571 8.12415 13.119 8.12415C13.381 8.12415 13.5952 8.33844 13.5952 8.60034V13.3622Z"/>
</svg>
