<svg viewBox="0 0 17 17" xmlns="http://www.w3.org/2000/svg">
<path d="M10.0439 8.49924L16.6801 1.86378C17.1066 1.43731 17.1066 0.746324 16.6801 0.319853C16.2537 -0.106618 15.5627 -0.106618 15.1362 0.319853L8.5 6.95532L1.86378 0.319853C1.43731 -0.106618 0.746324 -0.106618 0.319853 0.319853C-0.106618 0.746324 -0.106618 1.43731 0.319853 1.86378L6.95608 8.49924L0.319853 15.1355C-0.106618 15.5619 -0.106618 16.2529 0.319853 16.6794C0.746324 17.1059 1.43731 17.1059 1.86378 16.6794L8.5 10.0432L15.1362 16.6794C15.3496 16.8928 15.6289 16.9991 15.9082 16.9991C16.1875 16.9991 16.4667 16.8924 16.6801 16.6794C17.1066 16.2529 17.1066 15.5619 16.6801 15.1355L10.0439 8.49924Z"/>
</svg>
