<svg viewBox="0 0 35 27" xmlns="http://www.w3.org/2000/svg">
<path d="M29.6483 2.26124C27.3827 1.20487 24.9602 0.43715 22.4276 0C22.1165 0.56041 21.7531 1.31417 21.5026 1.91379C18.8103 1.5103 16.1428 1.5103 13.5 1.91379C13.2495 1.31417 12.8779 0.56041 12.5641 0C10.0287 0.43715 7.60339 1.2077 5.33778 2.26684C0.768021 9.14854 -0.470766 15.8593 0.148628 22.4748C3.17953 24.7304 6.11685 26.1006 9.00459 26.9972C9.71759 26.0193 10.3535 24.9798 10.9013 23.8842C9.85797 23.4891 8.85869 23.0016 7.91448 22.4356C8.16498 22.2506 8.41 22.0573 8.64672 21.8583C14.4057 24.5427 20.663 24.5427 26.3532 21.8583C26.5927 22.0573 26.8376 22.2506 27.0854 22.4356C26.1384 23.0044 25.1364 23.4919 24.0931 23.887C24.6409 24.9798 25.274 26.0221 25.9898 27C28.8803 26.1034 31.8203 24.7332 34.8512 22.4748C35.578 14.8058 33.6097 8.15662 29.6483 2.26124ZM11.6859 18.4063C9.95709 18.4063 8.53935 16.798 8.53935 14.8394C8.53935 12.8808 9.92682 11.2696 11.6859 11.2696C13.445 11.2696 14.8627 12.878 14.8324 14.8394C14.8351 16.798 13.445 18.4063 11.6859 18.4063ZM23.314 18.4063C21.5852 18.4063 20.1675 16.798 20.1675 14.8394C20.1675 12.8808 21.5549 11.2696 23.314 11.2696C25.0731 11.2696 26.4908 12.878 26.4605 14.8394C26.4605 16.798 25.0731 18.4063 23.314 18.4063Z"/>
</svg>
