<svg viewBox="0 0 18 14" xmlns="http://www.w3.org/2000/svg">
<path d="M9.99046 4.17792L9.99145 4.23L7.4106 7.97932C6.99265 7.9602 6.57339 8.0337 6.17522 8.19752C6.00189 8.26796 5.8364 8.35634 5.68146 8.46121L0.0138026 6.12526C0.0138026 6.12526 -0.117382 8.28289 0.429112 9.89073L4.43586 11.5441C4.63363 12.4432 5.25329 13.2317 6.16368 13.6107C6.87991 13.9083 7.68497 13.9095 8.40205 13.6139C9.11913 13.3184 9.68959 12.7503 9.98815 12.0345C10.1474 11.6532 10.2243 11.2426 10.2136 10.8295L13.9029 8.19093L13.9936 8.19258C16.2036 8.19258 18 6.39093 18 4.17792C18 1.96491 16.2069 0.169852 13.9936 0.165237C11.7845 0.165237 9.98716 1.96491 9.98716 4.17792H9.99046ZM9.37079 11.7754C8.89154 12.9291 7.56914 13.472 6.41979 12.993C5.90975 12.7787 5.49634 12.3843 5.25824 11.8849L6.56251 12.4254C6.76399 12.5093 6.98003 12.5527 7.19827 12.553C7.41651 12.5533 7.63268 12.5107 7.83443 12.4275C8.03618 12.3442 8.21955 12.2221 8.37407 12.0679C8.52859 11.9138 8.65123 11.7308 8.73497 11.5292C8.90455 11.122 8.90556 10.6641 8.73776 10.2562C8.56997 9.8482 8.2471 9.52353 7.84008 9.35347L6.48868 8.79478C7.0088 8.59701 7.60012 8.59042 8.15321 8.82016C8.71355 9.05187 9.14204 9.48828 9.37145 10.0463C9.60086 10.6043 9.59954 11.2197 9.36815 11.7754M13.9972 6.85271C13.289 6.85079 12.6105 6.56828 12.1102 6.06706C11.6099 5.56583 11.3286 4.88676 11.328 4.17858C11.3288 3.47051 11.6101 2.79161 12.1104 2.29052C12.6107 1.78944 13.2891 1.50702 13.9972 1.50511C14.7054 1.50685 15.384 1.78919 15.8844 2.29029C16.3848 2.79139 16.6663 3.4704 16.6671 4.17858C16.6664 4.88687 16.3851 5.56605 15.8847 6.06729C15.3842 6.56853 14.7055 6.85096 13.9972 6.85271ZM11.9971 4.17429C11.9967 3.6422 12.2075 3.1317 12.5833 2.755C12.9591 2.37829 13.4691 2.16619 14.0012 2.16532C15.107 2.16532 16.0065 3.06515 16.0065 4.17429C16.0068 4.7065 15.7957 5.21703 15.4196 5.59363C15.0436 5.97023 14.5334 6.18209 14.0012 6.18261C13.4691 6.18183 12.9592 5.96986 12.5833 5.59328C12.2075 5.2167 11.9969 4.70633 11.9971 4.17429Z"/>
</svg>
