<svg viewBox="0 0 24 18" xmlns="http://www.w3.org/2000/svg">
<path d="M21.543 4.48105C21.5576 4.67634 21.5576 4.87163 21.5576 5.06872C21.5576 11.074 16.6045 18 7.54759 18V17.9964C4.87215 18 2.25229 17.2926 0 15.9589C0.389031 16.0021 0.780012 16.0237 1.17197 16.0246C3.38915 16.0264 5.54296 15.3398 7.28726 14.0753C5.18026 14.0384 3.3326 12.7704 2.68714 10.9192C3.42523 11.0506 4.18574 11.0236 4.91018 10.841C2.61304 10.4126 0.96039 8.5497 0.96039 6.38623V6.32864C1.64485 6.68051 2.41121 6.8758 3.19512 6.8974C1.03157 5.56279 0.364656 2.90615 1.67118 0.829084C4.17112 3.6684 7.8596 5.3945 11.8191 5.57718C11.4223 3.99868 11.9644 2.34459 13.2436 1.23496C15.2268 -0.485733 18.3459 -0.397539 20.2101 1.43205C21.3129 1.23136 22.3698 0.857882 23.337 0.328715C22.9694 1.38075 22.2001 2.27439 21.1725 2.84226C22.1484 2.73606 23.102 2.49488 24 2.1268C23.3389 3.04114 22.5063 3.83759 21.543 4.48105Z"/>
</svg>
