<svg viewBox="0 0 22 22" xmlns="http://www.w3.org/2000/svg">
<path d="M19.0811 16.7388C19.0798 17.8685 18.6304 18.9516 17.8316 19.7505C17.0327 20.5494 15.9496 20.9987 14.8198 21H6.16219C5.04929 20.9735 3.99088 20.5128 3.21313 19.7163C2.43539 18.9199 2 17.8508 2 16.7376C2 15.6243 2.43539 14.5553 3.21313 13.7588C3.99088 12.9623 5.04929 12.5016 6.16219 12.4751H14.8198C15.95 12.4764 17.0335 12.9261 17.8324 13.7255C18.6314 14.5249 19.0804 15.6086 19.0811 16.7388Z" fill="var(--color-yellow)"/>
<path d="M13.2971 10.2502C12.4666 10.8052 11.4901 11.1014 10.4911 11.1014C9.15199 11.1001 7.86807 10.5676 6.92116 9.62068C5.97424 8.67376 5.44171 7.38984 5.44043 6.0507C5.44043 5.05177 5.73665 4.07527 6.29163 3.24468C6.8466 2.4141 7.63542 1.76674 8.55831 1.38446C9.4812 1.00219 10.4967 0.902168 11.4765 1.09705C12.4562 1.29193 13.3562 1.77296 14.0625 2.47932C14.7689 3.18567 15.2499 4.08562 15.4448 5.06536C15.6397 6.0451 15.5396 7.06063 15.1574 7.98352C14.7751 8.90642 14.1277 9.69523 13.2971 10.2502Z"/>
</svg>
