<svg width="151" height="36" viewBox="0 0 151 36" fill="none" xmlns="http://www.w3.org/2000/svg">
<g opacity="0.6">
<mask id="mask0_46_6773" style="mask-type:luminance" maskUnits="userSpaceOnUse" x="7" y="4" width="137" height="29">
<path d="M143.614 4.14478H7.68164V32.1448H143.614V4.14478Z" fill="white"/>
</mask>
<g mask="url(#mask0_46_6773)">
<path d="M59.0156 24.5117V31.9366H60.2514V28.6447H63.7613V31.9366H64.9971V24.5117H63.7613V27.5856H60.2514V24.5117H59.0156ZM69.5272 27.5752V25.5606H73.6602V24.5117H68.2915V31.9366H73.7641V30.8878H69.5272V28.6343H73.1514V27.5752H69.5272ZM76.7966 31.9366H79.7146C81.7707 31.9366 82.9857 30.6178 82.9857 28.2294C82.9857 25.841 81.7292 24.5117 79.6834 24.5117H76.7966V31.9366ZM78.0324 25.5606H79.6212C81.2826 25.5606 81.7499 26.8067 81.7499 28.2294C81.7499 29.6521 81.2826 30.8878 79.6212 30.8878H78.0324V25.5606ZM91.1729 26.8275H92.4087C92.1801 25.4048 91.1418 24.356 89.2102 24.356C87.071 24.356 85.721 25.9864 85.721 28.219C85.721 30.462 86.9257 32.0923 89.0752 32.0923C90.1967 32.0923 90.8925 31.6667 91.3909 30.9189H91.4117L91.6817 31.9366H92.5332V28.0425H89.179V29.0394H91.2767C91.2663 30.2232 90.3317 31.0332 89.1583 31.0332C87.4656 31.0332 86.9568 29.6209 86.9568 28.219C86.9568 26.8275 87.611 25.4152 89.1998 25.4152C90.3006 25.4152 90.986 25.9448 91.1729 26.8275ZM96.949 27.5752V25.5606H101.082V24.5117H95.7133V31.9366H101.186V30.8878H96.949V28.6343H100.573V27.5752H96.949ZM109.456 27.7206V25.5606H113.413V24.5117H108.221V31.9366H109.456V28.7797H112.666V27.7206H109.456ZM122.084 29.4028V24.5117H120.858V29.4028C120.858 30.5243 120.298 31.0332 119.155 31.0332C118.023 31.0332 117.463 30.5243 117.463 29.4028V24.5117H116.226V29.4028C116.226 31.0228 117.088 32.0923 119.155 32.0923C121.222 32.0923 122.084 31.0228 122.084 29.4028ZM125.282 31.9366H126.517V26.3809H126.538L129.892 31.9366H131.263V24.5117H130.028V30.0882H130.007L126.663 24.5117H125.282V31.9366ZM134.558 31.9366H137.476C139.532 31.9366 140.747 30.6178 140.747 28.2294C140.747 25.841 139.49 24.5117 137.445 24.5117H134.558V31.9366ZM135.793 25.5606H137.382C139.043 25.5606 139.511 26.8067 139.511 28.2294C139.511 29.6521 139.043 30.8878 137.382 30.8878H135.793V25.5606Z" fill="white"/>
<path d="M70.8631 10.3142C71.2688 10.3142 71.6357 10.4499 71.9447 10.7407C72.2344 11.0509 72.3696 11.3999 72.3696 11.8264C72.3696 13.9203 71.6357 15.6846 70.1486 17.158C68.6809 18.6315 66.9234 19.3876 64.8376 19.3876C62.7519 19.3876 60.9944 18.6509 59.5267 17.158C58.0588 15.6846 57.3057 13.9203 57.3057 11.8264C57.3057 9.73255 58.0395 7.96828 59.5267 6.49482C60.9944 5.02137 62.7519 4.26526 64.8376 4.26526C66.6723 4.26526 68.2752 4.84689 69.6658 6.02952C69.9748 6.30095 70.1679 6.64993 70.2066 7.05706C70.2259 7.48359 70.1293 7.83257 69.8589 8.16215C69.5885 8.47236 69.2408 8.64685 68.8353 8.68562C68.4104 8.7244 68.0629 8.60807 67.7345 8.33664C66.9041 7.6387 65.9385 7.27033 64.8376 7.27033C63.5823 7.27033 62.5394 7.71625 61.6511 8.60807C60.7626 9.48051 60.3184 10.5468 60.3184 11.807C60.3184 13.0672 60.7626 14.1142 61.6511 15.0061C62.5201 15.8978 63.5823 16.3437 64.8376 16.3437C65.8033 16.3437 66.6916 16.0723 67.4642 15.5101C68.2366 14.9479 68.7774 14.2305 69.1057 13.3386H66.1315C65.7067 13.3386 65.3591 13.1835 65.05 12.8927C64.7604 12.6019 64.6252 12.2529 64.6252 11.8264C64.6252 11.3999 64.7604 11.0509 65.05 10.7407C65.3591 10.4499 65.7067 10.3142 66.1315 10.3142H70.8631Z" fill="white"/>
<path d="M82.0442 19.3675C79.9584 19.3675 78.201 18.6308 76.7332 17.1379C75.2655 15.6645 74.5122 13.9002 74.5122 11.8063C74.5122 9.71248 75.2462 7.94821 76.7332 6.47475C78.201 5.00129 79.9584 4.24518 82.0442 4.24518C84.1299 4.24518 85.8874 4.98191 87.3552 6.47475C88.823 7.94821 89.5761 9.71248 89.5761 11.8063C89.5761 13.9002 88.8422 15.6645 87.3552 17.1379C85.8874 18.6308 84.1299 19.3675 82.0442 19.3675ZM82.0442 7.28903C80.7888 7.28903 79.746 7.73495 78.8576 8.62678C77.9693 9.49922 77.525 10.5655 77.525 11.8257C77.525 13.0859 77.9693 14.1329 78.8576 15.0247C79.7266 15.9165 80.7888 16.3624 82.0442 16.3624C83.2995 16.3624 84.3424 15.9165 85.2308 15.0247C86.1192 14.1522 86.5634 13.0859 86.5634 11.8257C86.5634 10.5655 86.1192 9.51861 85.2308 8.62678C84.3424 7.73495 83.2995 7.28903 82.0442 7.28903Z" fill="white"/>
<path d="M91.8179 7.28972C91.393 7.28972 91.0454 7.154 90.7364 6.86319C90.4467 6.55299 90.3115 6.20401 90.3115 5.77748C90.3115 5.35096 90.4467 5.00199 90.7364 4.69178C91.0454 4.40097 91.393 4.26526 91.8179 4.26526H102.131C102.556 4.26526 102.903 4.40097 103.213 4.69178C103.502 5.00199 103.637 5.35096 103.637 5.77748C103.637 6.20401 103.502 6.55299 103.213 6.86319C102.903 7.154 102.556 7.28972 102.131 7.28972H98.4808V17.8754C98.4808 18.3019 98.3456 18.6509 98.0559 18.9417C97.7469 19.2519 97.3993 19.3876 96.9744 19.3876C96.5496 19.3876 96.2019 19.2325 95.9122 18.9417C95.6032 18.6509 95.4681 18.3019 95.4681 17.8754V7.28972H91.8179Z" fill="white"/>
<path d="M115.031 4.26526C116.287 4.26526 117.329 4.71117 118.218 5.603C119.107 6.47544 119.55 7.54176 119.55 8.80195C119.55 9.73256 119.28 10.5856 118.758 11.3611C119.86 12.2723 120.42 13.4162 120.42 14.8315C120.42 16.0917 119.975 17.1387 119.087 18.0304C118.218 18.9223 117.156 19.3682 115.901 19.3682H108.156C107.732 19.3682 107.383 19.2131 107.094 18.9223C106.785 18.6315 106.649 18.2825 106.649 17.856V5.77748C106.649 5.35095 106.805 5.00199 107.094 4.69178C107.383 4.40097 107.732 4.26526 108.156 4.26526H115.031ZM109.662 10.3142H115.031C115.456 10.3142 115.804 10.1591 116.094 9.86826C116.402 9.57745 116.537 9.22847 116.537 8.80195C116.537 8.37542 116.383 8.02645 116.094 7.73563C115.804 7.42543 115.456 7.28972 115.031 7.28972H109.662V10.3142ZM115.901 16.3631C116.326 16.3631 116.673 16.2081 116.963 15.9172C117.271 15.6264 117.407 15.2774 117.407 14.8509C117.407 14.4244 117.253 14.0754 116.963 13.7846C116.673 13.4744 116.326 13.3386 115.901 13.3386H109.662V16.3631H115.901Z" fill="white"/>
<path d="M126.215 19.3682C125.79 19.3682 125.443 19.2325 125.133 18.9417C124.844 18.6315 124.708 18.2825 124.708 17.856V5.77748C124.708 5.35095 124.844 5.00199 125.133 4.69178C125.443 4.40097 125.79 4.26526 126.215 4.26526C126.62 4.26526 126.987 4.40097 127.297 4.69178C127.586 5.00199 127.721 5.35095 127.721 5.77748V17.8754C127.721 18.3019 127.586 18.6509 127.297 18.9611C126.987 19.2325 126.62 19.3682 126.215 19.3682Z" fill="white"/>
<path d="M131.795 7.28972C131.37 7.28972 131.023 7.154 130.713 6.86319C130.424 6.55299 130.289 6.20401 130.289 5.77748C130.289 5.35096 130.424 5.00199 130.713 4.69178C131.023 4.40097 131.37 4.26526 131.795 4.26526H142.107C142.533 4.26526 142.88 4.40097 143.189 4.69178C143.479 5.00199 143.614 5.35096 143.614 5.77748C143.614 6.20401 143.479 6.55299 143.189 6.86319C142.88 7.154 142.533 7.28972 142.107 7.28972H138.458V17.8754C138.458 18.3019 138.322 18.6509 138.033 18.9417C137.724 19.2519 137.377 19.3876 136.951 19.3876C136.526 19.3876 136.179 19.2325 135.889 18.9417C135.58 18.6509 135.445 18.3019 135.445 17.8754V7.28972H131.795Z" fill="white"/>
<path d="M9.5606 19.1785C10.5983 19.1785 11.4396 18.334 11.4396 17.2923C11.4396 16.2505 10.5983 15.406 9.5606 15.406C8.52288 15.406 7.68164 16.2505 7.68164 17.2923C7.68164 18.334 8.52288 19.1785 9.5606 19.1785Z" fill="white"/>
<path d="M22.6002 26.836C23.6379 26.836 24.4792 25.9915 24.4792 24.9497C24.4792 23.908 23.6379 23.0635 22.6002 23.0635C21.5624 23.0635 20.7212 23.908 20.7212 24.9497C20.7212 25.9915 21.5624 26.836 22.6002 26.836Z" fill="white"/>
<path d="M49.6031 15.8772C49.1334 15.4434 48.72 15.3869 48.3442 15.4246C48.269 15.4246 48.2127 15.4057 48.1376 15.4057H28.1641C29.0284 11.1239 32.8239 7.89842 37.3334 7.89842C39.8137 7.89842 42.1624 8.86041 43.9287 10.6146C44.6427 11.3314 45.8076 11.388 46.5404 10.7089C47.3295 9.9733 47.3484 8.74724 46.5968 7.99273C44.1165 5.50288 40.8283 4.14478 37.3334 4.14478C34.2332 4.14478 31.3584 5.2388 29.1224 7.06847C28.089 7.8607 27.3186 7.89842 25.6839 7.89842H22.546C21.4938 7.89842 20.6483 8.7661 20.6671 9.84126C20.6858 10.8598 21.5878 11.6521 22.6024 11.6521H27.5817L25.6839 11.9916C25.4584 12.0293 25.2517 12.1802 25.1766 12.4066C24.9135 13.0856 24.7256 13.8024 24.5377 14.5192C24.3686 15.1416 23.4292 15.4246 22.0763 15.4246H15.2556C14.2222 15.4246 13.339 16.2168 13.3015 17.2543C13.2639 18.3105 14.1282 19.197 15.1804 19.197H26.9616L25.0263 19.5177C24.688 19.5743 24.4813 19.895 24.5565 20.2346C25.8906 26.0819 31.0953 30.4769 37.3334 30.4769C44.342 30.4769 50.0916 24.9125 50.4299 17.9522C50.4487 17.16 50.1668 16.4055 49.6031 15.8772ZM37.3334 26.6855C32.8052 26.6855 29.0284 23.46 28.1641 19.1782H46.5029C45.6197 23.46 41.8429 26.6855 37.3334 26.6855Z" fill="white"/>
</g>
</g>
</svg>
