<svg width="91" height="36" viewBox="0 0 91 36" fill="none" xmlns="http://www.w3.org/2000/svg">
<g opacity="0.6" clip-path="url(#clip0_46_6771)">
<path fill-rule="evenodd" clip-rule="evenodd" d="M2.76213 26.3315C1.37474 25.1226 0.681641 23.5015 0.681641 21.4687V8.52943H4.48223V21.1666C4.48223 23.172 5.61994 24.4357 8.0891 24.4357C10.5582 24.4357 11.6953 23.172 11.6953 21.1666V8.52943H15.5236V21.4687C15.5236 23.5015 14.8305 25.1226 13.4431 26.3315C12.0557 27.5403 10.2803 28.1445 8.0891 28.1445C5.92438 28.1445 4.14892 27.5403 2.76213 26.3315ZM31.8097 8.52926V12.1552H26.5664V27.76H22.7375V12.1552H17.5218V8.52926H31.8097ZM42.0191 24.4359C43.7946 24.4359 45.2927 23.8592 46.4858 22.6777C47.6788 21.4963 48.2889 19.9854 48.2889 18.1444C48.2889 16.304 47.6788 14.7925 46.4858 13.6117C45.2927 12.4302 43.7946 11.8255 42.0191 11.8255C40.2437 11.8255 38.7456 12.4302 37.5525 13.6117C36.3595 14.7925 35.7494 16.304 35.7494 18.1444C35.7494 19.9854 36.3595 21.4963 37.5525 22.6777C38.7456 23.8592 40.2437 24.4359 42.0191 24.4359ZM42.0191 28.1447C39.2173 28.1447 36.8312 27.183 34.8614 25.2599C32.9193 23.3093 31.9482 20.947 31.9482 18.1444C31.9482 15.3424 32.9193 12.9796 34.8614 11.0564C36.8312 9.10637 39.2173 8.14478 42.0191 8.14478C44.8211 8.14478 47.2071 9.10637 49.177 11.0564C51.1468 12.9796 52.1177 15.3424 52.1177 18.1444C52.1177 20.947 51.1468 23.3093 49.177 25.2599C47.2071 27.183 44.8211 28.1447 42.0191 28.1447ZM58.6379 12.0731V17.7599H62.5774C64.0202 17.7599 65.2133 16.4688 65.2133 14.9031C65.2133 13.3368 64.0202 12.0731 62.5774 12.0731H58.6379ZM65.4623 27.76L61.551 21.0843H58.6379V27.76H54.8089V8.52933H62.5774C64.3806 8.52933 65.9063 9.16086 67.1548 10.3971C68.4032 11.6334 69.0415 13.1443 69.0415 14.903C69.0415 17.2927 67.5434 19.4906 65.2963 20.5076L69.5962 27.76H65.4623ZM90.6816 17.4302V18.9137C90.6816 21.6615 89.7934 23.8861 88.0179 25.5895C86.2424 27.2935 83.9401 28.1448 81.1377 28.1448C78.1415 28.1448 75.6447 27.1832 73.6749 25.26C71.7051 23.3095 70.7341 20.9466 70.7341 18.172C70.7341 15.37 71.7051 13.0071 73.6473 11.0565C75.617 9.10591 78.0308 8.14491 80.9163 8.14491C84.5503 8.14491 87.7129 9.90307 89.3777 12.6228L86.1047 14.4906C85.1886 12.9249 83.1912 11.8257 80.8887 11.8257C79.0295 11.8257 77.5037 12.4304 76.3107 13.6392C75.1176 14.8207 74.5353 16.3316 74.5353 18.172C74.5353 19.9855 75.1453 21.4965 76.3384 22.6779C77.5591 23.8593 79.1679 24.436 81.166 24.436C84.1345 24.436 86.1317 23.0622 86.8247 20.7821H80.9433V17.4302H90.6816Z" fill="white"/>
</g>
<defs>
<clipPath id="clip0_46_6771">
<rect width="90" height="35" fill="white" transform="translate(0.681641 0.144775)"/>
</clipPath>
</defs>
</svg>
