<svg width="81" height="35" viewBox="0 0 81 35" fill="none" xmlns="http://www.w3.org/2000/svg">
<g opacity="0.6" clip-path="url(#clip0_46_6745)">
<path d="M21.9817 28.6314H18.6553V12.4445H21.9817V28.6314Z" fill="white"/>
<path d="M34.0013 12.1266C35.8376 12.1266 37.3377 12.7705 38.5 14.0583C39.6606 15.346 40.2426 16.9833 40.2426 18.9684V28.6297H36.9163V19.4751C36.9163 18.2292 36.5149 17.199 35.7121 16.3862C34.9094 15.5735 33.9177 15.1671 32.7353 15.1671C31.4041 15.1671 30.317 15.5735 29.4725 16.3862C28.6279 17.199 28.2048 18.2292 28.2048 19.4751V28.6297H24.8784V12.4444H28.2048V16.6253C28.648 15.2322 29.3821 14.1335 30.4073 13.3307C31.4308 12.528 32.63 12.1266 34.0029 12.1266H34.0013Z" fill="white"/>
<path d="M50.6129 12.1266C53.2101 12.1266 55.3223 13.0565 56.9479 14.9145C58.5734 16.7742 59.2391 19.0219 58.9431 21.6625H45.5439C45.7763 22.9721 46.3784 24.034 47.3501 24.8468C48.3217 25.6596 49.4924 26.066 50.8654 26.066C51.9207 26.066 52.8656 25.8068 53.7001 25.29C54.5346 24.7732 55.1835 24.0708 55.6484 23.1828L58.4363 24.4187C57.7189 25.7917 56.6937 26.8888 55.3641 27.7133C54.0346 28.5378 52.5027 28.9491 50.7701 28.9491C48.3418 28.9491 46.3032 28.1464 44.6558 26.5426C43.0086 24.9388 42.1841 22.942 42.1841 20.5554C42.1841 18.169 42.9919 16.1688 44.6073 14.5516C46.2229 12.9361 48.223 12.1283 50.6112 12.1283L50.6129 12.1266ZM50.6129 15.0099C49.387 15.0099 48.3267 15.3845 47.4286 16.1353C46.5306 16.8845 45.9335 17.8613 45.6392 19.0654H55.5866C55.3123 17.8613 54.7253 16.8845 53.8289 16.1353C52.9308 15.3862 51.8588 15.0099 50.6129 15.0099Z" fill="white"/>
<path d="M68.1393 12.1266C70.0826 12.1266 71.6664 12.6334 72.8905 13.6468C74.1148 14.6603 74.7287 16.1187 74.7287 18.0185V28.6314H71.4021V24.3234C70.4087 27.4072 68.4136 28.9491 65.415 28.9491C64.0202 28.9491 62.8595 28.5327 61.9297 27.6982C60.9999 26.8637 60.5366 25.7716 60.5366 24.4204C60.5366 22.8366 61.0952 21.6476 62.2157 20.8565C63.3345 20.0654 64.761 19.5738 66.492 19.3831L69.6277 19.0654C70.8101 18.96 71.4021 18.4315 71.4021 17.4816C71.4021 16.7006 71.1011 16.0769 70.499 15.6136C69.8969 15.1486 69.1109 14.9162 68.1393 14.9162C67.1676 14.9162 66.3063 15.1704 65.6207 15.6771C64.935 16.1838 64.4968 16.9231 64.3062 17.8947L61.0116 17.102C61.3076 15.5818 62.0986 14.3727 63.388 13.4746C64.6757 12.5782 66.2595 12.1283 68.1393 12.1283V12.1266ZM66.492 26.2549C67.865 26.2549 69.0256 25.795 69.9755 24.8769C70.9255 23.9588 71.4004 22.8867 71.4004 21.6609V20.7745C71.1479 21.1977 70.5341 21.4603 69.5625 21.5656L66.4903 21.9452C65.6876 22.0522 65.0487 22.2881 64.5737 22.6576C64.0988 23.0273 63.8613 23.529 63.8613 24.1628C63.8613 24.7967 64.0988 25.3034 64.5737 25.683C65.0487 26.0626 65.6876 26.2533 66.4903 26.2533L66.492 26.2549Z" fill="white"/>
<path d="M16.3642 28.6314H1V12.4445H4.51535V25.4957H16.3642V28.6314Z" fill="white"/>
<path d="M77.8649 12.1267C79.5962 12.1267 81.0001 10.7228 81.0001 8.99094C81.0001 7.25914 79.5962 5.85522 77.8649 5.85522C76.1329 5.85522 74.729 7.25914 74.729 8.99094C74.729 10.7228 76.1329 12.1267 77.8649 12.1267Z" fill="white"/>
</g>
<defs>
<clipPath id="clip0_46_6745">
<rect width="80" height="35" fill="white" transform="translate(0.681641)"/>
</clipPath>
</defs>
</svg>
