<svg width="101" height="36" viewBox="0 0 101 36" fill="none" xmlns="http://www.w3.org/2000/svg">
<g opacity="0.6" clip-path="url(#clip0_46_6752)">
<mask id="mask0_46_6752" style="mask-type:luminance" maskUnits="userSpaceOnUse" x="1" y="5" width="100" height="26">
<path d="M101 5H1V30.6411H101V5Z" fill="white"/>
</mask>
<g mask="url(#mask0_46_6752)">
<path d="M1 5V30.6411H24.7393V27.767H3.84296V7.87402H24.7393V5H1Z" fill="white"/>
<path d="M41.8496 16.443L45.8454 10.1785H49.147L44.4043 17.6218V18.0191L49.4089 25.4492H45.9765L41.8496 19.1978V16.443Z" fill="white"/>
<path d="M58.8812 19.1978H62.6806L60.9774 11.6221H60.5843L58.8812 19.1978ZM63.3225 22.0718H58.2392L57.4794 25.4492H54.5054L58.1082 10.1785H63.4535L67.0565 25.4492H64.0824L63.3225 22.0718Z" fill="white"/>
<path d="M74.6025 10.1785H77.4457V22.7075H84.3104V25.4492H74.6025V10.1785Z" fill="white"/>
<path d="M27.0974 14.8538C27.0974 14.2445 26.8616 13.7147 26.3899 13.2645C25.9183 12.8141 25.2633 12.5889 24.4116 12.5889C23.6911 12.5889 23.1277 12.7347 22.7085 13.0393C22.2893 13.3439 22.0797 13.7413 22.0797 14.2445C22.0797 14.5094 22.1321 14.7478 22.2368 14.9597C22.3416 15.1717 22.512 15.3571 22.7609 15.5292C23.0098 15.7014 23.3373 15.8471 23.7566 15.9795C24.1627 16.112 24.6868 16.2312 25.3156 16.3504C26.9009 16.6418 28.1062 17.1318 28.9447 17.8072C29.7831 18.4959 30.2024 19.5026 30.2024 20.8401V21.1051C30.2024 21.8203 30.0714 22.456 29.8224 23.0388C29.5735 23.6083 29.2067 24.0983 28.7351 24.5089C28.2633 24.9195 27.6869 25.2241 27.0057 25.4492C26.3244 25.6611 25.5645 25.7803 24.713 25.7803C23.7173 25.7803 22.8526 25.6347 22.0927 25.3565C21.3329 25.0784 20.704 24.6811 20.2061 24.1777C19.7083 23.6745 19.3153 23.0917 19.0663 22.4162C18.8043 21.7408 18.6733 20.9992 18.6733 20.2045V20.072H21.5163C21.5163 20.9859 21.7783 21.7144 22.3024 22.2706C22.8264 22.8136 23.6387 23.0917 24.7523 23.0917C25.6169 23.0917 26.2589 22.9063 26.6782 22.5223C27.0974 22.1381 27.307 21.6879 27.307 21.1714C27.307 20.9197 27.2677 20.6945 27.176 20.4562C27.0842 20.231 26.9402 20.0323 26.7175 19.8469C26.5079 19.6615 26.2065 19.5026 25.8266 19.3568C25.4466 19.2111 24.975 19.092 24.3986 18.986C23.6387 18.8536 22.9443 18.6814 22.3024 18.4695C21.6735 18.2575 21.1233 17.9794 20.6516 17.635C20.18 17.2907 19.8262 16.8536 19.5642 16.3239C19.3021 15.7941 19.1712 15.1584 19.1712 14.4035V14.2711C19.1712 13.6485 19.3021 13.0658 19.5511 12.536C19.8 12.0062 20.1538 11.5427 20.6123 11.1454C21.0708 10.748 21.608 10.4434 22.2499 10.2315C22.8919 10.0196 23.5994 9.90039 24.3986 9.90039C25.2894 9.90039 26.0755 10.0328 26.7699 10.2845C27.4642 10.5361 28.0407 10.8805 28.5123 11.3175C28.9839 11.7546 29.2984 12.2711 29.5735 12.8274C29.9142 13.5029 29.9272 14.8802 29.9272 14.8802L27.0974 14.8538Z" fill="white"/>
<path d="M90.9399 10.1785V25.4492H100.74V22.7075H93.7956V12.9333H100.74V10.1785H90.9399Z" fill="white"/>
<path d="M39.8191 10.1785H36.9761V25.4492H39.8191V10.1785Z" fill="white"/>
<path d="M98.5647 16.4432H95.8398V19.198H98.5647V16.4432Z" fill="white"/>
</g>
</g>
<defs>
<clipPath id="clip0_46_6752">
<rect width="100" height="35" fill="white" transform="translate(0.681641 0.144775)"/>
</clipPath>
</defs>
</svg>
