<svg width="121" height="36" viewBox="0 0 121 36" fill="none" xmlns="http://www.w3.org/2000/svg">
<g opacity="0.6" clip-path="url(#clip0_46_6758)">
<path d="M52.5149 10.8331H50.0933V24.5411H52.5149V10.8331ZM77.1771 24.2088H74.7564V17.8767C74.7564 16.5768 73.6897 15.5193 72.3788 15.5193C71.0671 15.5193 70.0004 16.5768 70.0004 17.8767V24.2088H67.5779V17.8767C67.5779 15.2531 69.7314 13.1188 72.377 13.1188C75.0244 13.1188 77.1771 15.2531 77.1771 17.8767V24.2088Z" fill="white"/>
<path d="M84.1042 24.2088H81.6835V17.8767C81.6835 16.5768 80.6168 15.5193 79.3059 15.5193C77.9942 15.5193 76.9275 16.5768 76.9275 17.8767V24.2088H74.5059V17.8767C74.5059 15.2531 76.6594 13.1188 79.305 13.1188C81.9524 13.1188 84.1051 15.2531 84.1051 17.8767L84.1042 24.2088ZM109.863 24.3906H107.442V18.3797C107.442 16.8027 106.147 15.5193 104.556 15.5193C102.965 15.5193 101.67 16.8027 101.67 18.3797V24.3906H99.2479V18.3797C99.2479 15.4789 101.629 13.1198 104.556 13.1198C107.482 13.1198 109.863 15.4789 109.863 18.3797V24.3906ZM119.195 13.4429H113.104V15.8434H119.195V13.4429Z" fill="white"/>
<path d="M116.392 24.4732C113.851 24.4732 111.785 22.4243 111.785 19.9054V10.8331H114.205V19.9054C114.205 21.1006 115.187 22.0718 116.392 22.0718C117.598 22.0718 118.579 21.0997 118.579 19.9054H121C121 22.4243 118.933 24.4732 116.392 24.4732Z" fill="white"/>
<path fill-rule="evenodd" clip-rule="evenodd" d="M42.868 21.9011C43.3004 21.9023 43.7286 21.8164 44.1272 21.6486C44.5257 21.4808 44.8864 21.2345 45.1877 20.9243H48.0444C47.6059 21.9315 46.8818 22.7881 45.9616 23.3882C45.0414 23.9883 43.9656 24.3055 42.8671 24.3006C39.757 24.3006 37.2271 21.7918 37.2271 18.7093C37.2271 15.6258 39.757 13.1179 42.868 13.1179C45.9781 13.1179 48.5089 15.6258 48.5089 18.7084H48.5043V19.6869H39.802C40.0146 20.3319 40.4255 20.8931 40.9762 21.2906C41.5268 21.6881 42.1889 21.9023 42.868 21.9011ZM39.8176 17.6867C40.0368 17.0525 40.4486 16.5026 40.9955 16.1137C41.5423 15.7248 42.197 15.5164 42.868 15.5175C43.539 15.5167 44.1935 15.7253 44.7401 16.1144C45.2868 16.5034 45.6984 17.0534 45.9175 17.6876H39.8176V17.6867ZM59.8826 21.9011C60.3151 21.9024 60.7435 21.8166 61.1422 21.6488C61.5409 21.481 61.9018 21.2346 62.2032 20.9243H65.0581C64.6198 21.9313 63.896 22.7878 62.9761 23.3878C62.0563 23.9879 60.9808 24.3052 59.8826 24.3006C56.7725 24.3006 54.2416 21.7918 54.2416 18.7093C54.2416 15.6258 56.7725 13.1179 59.8826 13.1179C62.9927 13.1179 65.5235 15.6258 65.5235 18.7084H65.5198V19.6869H56.8175C57.03 20.3317 57.4409 20.8929 57.9913 21.2903C58.5417 21.6878 59.2036 21.9021 59.8826 21.9011ZM56.8322 17.6867C57.0514 17.0525 57.4632 16.5026 58.0101 16.1137C58.5569 15.7248 59.2116 15.5164 59.8826 15.5175C60.5537 15.5165 61.2084 15.725 61.7553 16.1141C62.3021 16.5031 62.7139 17.0532 62.933 17.6876H56.8322V17.6867ZM92.0116 21.9011C92.9084 21.9011 93.7373 21.5375 94.3313 20.9243H97.188C96.7497 21.9317 96.0256 22.7884 95.1054 23.3885C94.1852 23.9886 93.1092 24.3057 92.0106 24.3006C88.9015 24.3006 86.3706 21.7918 86.3706 18.7093C86.3706 15.6258 88.9015 13.1179 92.0116 13.1179C95.1216 13.1179 97.6525 15.6258 97.6525 18.7084H97.6488V19.6869H88.9465C89.159 20.3317 89.5699 20.8929 90.1203 21.2903C90.6707 21.6878 91.3326 21.9021 92.0116 21.9011ZM88.9611 17.6867C89.1804 17.0525 89.5922 16.5026 90.1391 16.1137C90.6859 15.7248 91.3405 15.5164 92.0116 15.5175C93.4262 15.5175 94.6305 16.4263 95.062 17.6867H88.9611Z" fill="white"/>
<mask id="mask0_46_6758" style="mask-type:luminance" maskUnits="userSpaceOnUse" x="1" y="3" width="29" height="30">
<path d="M1 3H29.3258V32.3751H1V3Z" fill="white"/>
</mask>
<g mask="url(#mask0_46_6758)">
<path fill-rule="evenodd" clip-rule="evenodd" d="M21.1523 20.9986V11.84L27.1981 8.62439V17.637L21.1523 20.9986Z" fill="#8E8E8E"/>
<path fill-rule="evenodd" clip-rule="evenodd" d="M17.2733 24.2703L17.3375 32.0088L17.1218 32.1291L8.98584 27.6586V24.2712H17.2733V24.2703Z" fill="#A0A0A0"/>
<path fill-rule="evenodd" clip-rule="evenodd" d="M21.1533 25.3517V29.8938L17.1216 32.1291V25.3526L21.1533 25.3517Z" fill="#666666"/>
<path fill-rule="evenodd" clip-rule="evenodd" d="M13.1633 18.6753L13.1669 18.6771L13.0155 23.2183L15.0882 24.3685L6.96787 28.884L6.84854 28.8152L6.81641 19.8705L15.1029 15.1998V17.5278L13.1633 18.6753Z" fill="#8E8E8E"/>
<path fill-rule="evenodd" clip-rule="evenodd" d="M6.9714 19.8659L1 16.5557V12.0145L7.13021 15.2641L6.9714 19.8668V19.8659Z" fill="#DDDDDD"/>
<path fill-rule="evenodd" clip-rule="evenodd" d="M29.214 18.7175L21.1523 23.0411V27.7292L29.214 23.2587V18.7175Z" fill="#8E8E8E"/>
<path fill-rule="evenodd" clip-rule="evenodd" d="M2.93945 17.5645L6.97118 19.8723V28.8858L2.93945 26.5781V17.5645Z" fill="white"/>
<path fill-rule="evenodd" clip-rule="evenodd" d="M13.0156 23.2201V18.678L13.0716 18.6431L21.1507 23.0439V27.732L13.0156 23.2201Z" fill="#DDDDDD"/>
<path fill-rule="evenodd" clip-rule="evenodd" d="M9.13873 16.4428L1 12.0136L9.13873 7.58435V16.4428Z" fill="#F2F2F2"/>
<path fill-rule="evenodd" clip-rule="evenodd" d="M29.2151 18.7175L21.1544 23.188L13.0156 18.6734L15.1086 17.5085L15.0921 17.5177L17.1226 18.644L21.1149 16.4225L21.1544 14.2469L29.2151 18.7175Z" fill="#F2F2F2"/>
<path fill-rule="evenodd" clip-rule="evenodd" d="M15.1069 15.3477L15.1088 15.3468L15.0105 15.4009L11.0137 13.2226L8.98682 14.4022V5.23624L9.25578 5.08661L17.2743 9.70584L17.221 18.6377L17.1228 18.7194L15.0932 17.5196L15.1078 15.3477H15.1069Z" fill="#DDDDDD"/>
<path fill-rule="evenodd" clip-rule="evenodd" d="M17.1243 18.6908V9.70571L17.0361 9.65706L21.1156 7.44934L21.1532 7.46954V16.4491L17.1233 18.6908H17.1243Z" fill="#8E8E8E"/>
<path fill-rule="evenodd" clip-rule="evenodd" d="M15.1081 15.3467L6.96935 19.8723L2.93945 17.5646L11.013 13.0757L15.1072 15.3467H15.1081Z" fill="#F2F2F2"/>
<path fill-rule="evenodd" clip-rule="evenodd" d="M21.1523 11.9851V7.47054L23.1682 6.31757L27.199 8.62534L21.1523 11.9851Z" fill="#F2F2F2"/>
<path fill-rule="evenodd" clip-rule="evenodd" d="M8.98682 5.23618L17.1219 9.70578L21.1527 7.4696L13.0167 3L8.98682 5.23618Z" fill="#F2F2F2"/>
</g>
</g>
<defs>
<clipPath id="clip0_46_6758">
<rect width="120" height="35" fill="white" transform="translate(0.681641 0.144775)"/>
</clipPath>
</defs>
</svg>
