<svg width="63" height="36" viewBox="0 0 63 36" fill="none" xmlns="http://www.w3.org/2000/svg">
<g opacity="0.6" clip-path="url(#clip0_46_6763)">
<path d="M31.4463 21.9176C31.4944 23.8883 32.696 24.7053 34.1859 24.7053C35.2433 24.7053 35.8682 24.5131 36.3969 24.2728L36.6372 25.3302C36.1085 25.5705 35.2433 25.8589 33.9456 25.8589C31.4944 25.8589 30.0044 24.2247 30.0044 21.8215C30.0044 19.4183 31.4463 17.5439 33.7534 17.5439C36.3969 17.5439 37.0697 19.8028 37.0697 21.2928C37.0697 21.5812 37.0697 21.8215 37.0217 21.9657H31.4463V21.9176ZM35.6759 20.8603C35.6759 19.947 35.2914 18.5051 33.6572 18.5051C32.1673 18.5051 31.5424 19.8509 31.4463 20.8603H35.6759ZM38.8962 13.9391H40.3381V25.6666H38.8962V13.9391Z" fill="white"/>
<path d="M44.4229 15.3809C44.4229 15.8616 44.0864 16.2941 43.5097 16.2941C42.981 16.2941 42.6445 15.9096 42.6445 15.3809C42.6445 14.8522 43.029 14.4677 43.5577 14.4677C44.0384 14.5158 44.4229 14.9003 44.4229 15.3809ZM42.7887 25.6185V17.6399H44.2306V25.6185H42.7887Z" fill="white"/>
<path d="M47.3072 17.6399L48.4607 19.3702C48.7971 19.8028 49.0375 20.2353 49.2778 20.6679H49.3258C49.5662 20.1873 49.8545 19.8028 50.1429 19.3702L51.2484 17.688H52.8345L50.0949 21.533L52.8825 25.6665H51.2484L50.0468 23.8882C49.7103 23.4075 49.47 22.975 49.1816 22.4943H49.1336C48.8933 22.975 48.6049 23.4075 48.2684 23.8882L47.1149 25.6665H45.5288L48.3646 21.5811L45.673 17.688H47.3072V17.6399Z" fill="white"/>
<path d="M55.9107 15.3809C55.9107 15.8616 55.5742 16.2941 54.9975 16.2941C54.4688 16.2941 54.1323 15.9096 54.1323 15.3809C54.1323 14.8522 54.5168 14.4677 55.0455 14.4677C55.5262 14.5158 55.9107 14.9003 55.9107 15.3809ZM54.2765 25.6185V17.6399H55.7184V25.6185H54.2765Z" fill="white"/>
<path d="M58.1695 20.1392L58.1214 17.6399H59.3711L59.4192 19.226H59.4672C59.8517 18.1686 60.7169 17.4957 61.6782 17.4957C61.8223 17.4957 61.9185 17.4957 62.0627 17.5438V18.8896C61.9185 18.8415 61.7743 18.8415 61.582 18.8415C60.5727 18.8415 59.8517 19.6105 59.6114 20.6679C59.5634 20.8602 59.5634 21.1005 59.5634 21.3408V25.6185H58.1214V20.1392H58.1695ZM19.0938 22.0137L19.7667 21.5812C21.3047 20.2834 20.776 17.8803 18.1325 14.5158C18.1806 16.198 18.4689 17.9283 18.7573 19.7547C18.8535 20.4757 18.9496 21.2447 19.0938 22.0137ZM4.24211 28.3581C5.10726 32.1071 7.31818 34.1258 9.86556 34.9909C11.2594 35.2312 12.6532 35.1832 14.0471 34.8948C14.2874 34.7987 14.4797 34.6545 14.6719 34.5103C15.2006 34.1738 15.6813 33.7412 16.1138 33.3087C14.3355 32.5397 12.5091 31.0497 10.8268 29.3194C9.52911 29.2233 8.23139 29.0791 7.07787 28.9349C6.02047 28.8388 5.05919 28.6465 4.24211 28.3581ZM3.8576 10.6707L3.80954 11.0552C3.42503 13.2181 3.42503 15.1887 3.71341 16.8709C4.00179 14.8522 4.43437 12.7374 5.01113 10.7668C5.10726 10.4785 5.15532 10.142 5.29951 9.80556H5.34757C5.78015 8.41172 6.26078 7.114 6.83755 5.86435C5.68402 7.35432 4.72275 8.94042 3.8576 10.6707ZM3.66535 31.29C4.55224 32.4082 5.66619 33.3255 6.93367 33.9816C5.39564 32.7319 4.19405 30.8094 3.66535 28.1178C2.60795 27.7814 1.79087 27.2527 1.16604 26.5798C1.59861 28.3581 2.41569 29.9442 3.66535 31.29ZM3.52116 18.409C3.04052 16.7748 2.84827 14.9484 3.04052 12.8336C2.75214 13.4584 2.46376 14.1313 2.17537 14.8522C0.925721 18.409 0.348957 22.1579 0.877657 25.4262C1.45442 26.2914 2.31957 27.0123 3.52116 27.493C3.13665 25.4262 3.08858 22.0618 3.52116 18.409ZM4.09792 27.6852C4.09792 27.7333 4.09792 27.7333 4.09792 27.6852C4.96307 28.0217 5.9724 28.2139 7.12593 28.3581C8.0872 28.5023 9.1446 28.6465 10.202 28.6946C7.99107 26.2433 5.9724 23.3114 4.67468 20.9083C4.3863 20.4757 4.14598 19.9951 3.90567 19.5144C3.61728 22.8789 3.71341 25.8588 4.09792 27.6852ZM18.1806 19.8509C17.8922 17.7841 17.5557 15.7174 17.5557 13.7468C14.0952 10.5265 10.6826 7.06594 10.8268 1.49056C10.7307 1.58668 10.5865 1.63475 10.5384 1.73087C9.91362 2.25957 9.33685 2.83634 8.76009 3.46116C7.51044 5.19145 6.54917 7.45045 5.78015 9.90169C5.34757 13.0739 8.42365 19.3222 12.5091 24.0805C14.4797 23.9843 16.5464 23.4076 18.5651 22.3021C18.4689 21.485 18.3248 20.6679 18.1806 19.8509ZM20.9202 30.7132C20.1865 30.5674 19.4754 30.325 18.8054 29.9923C18.4689 31.0978 17.8922 32.1552 17.0751 33.1164C17.3635 33.2126 17.6519 33.2606 17.9402 33.3087C19.0457 32.6358 20.1031 31.7226 20.9202 30.7132ZM11.4036 1.05798C11.1152 6.39305 14.1913 9.80556 17.5077 12.8816C14.5758 8.98848 12.8936 6.68143 12.8936 0.144775C12.4129 0.385094 11.9323 0.721539 11.4036 1.05798ZM17.1712 29.0791C15.7293 29.3194 14.1913 29.3675 12.7494 29.3675C12.3649 29.3675 11.9323 29.3675 11.5478 29.3194C13.1339 30.9055 14.8161 32.2032 16.4983 32.8761C17.3635 31.9148 17.9402 30.8574 18.3248 29.7039C17.9402 29.5117 17.5557 29.3194 17.1712 29.0791ZM16.5464 28.6465C16.0177 28.262 15.489 27.8294 15.0564 27.4449C14.0797 26.5644 13.1493 25.6339 12.2687 24.6572C10.3462 24.7053 8.51977 24.2247 7.0298 23.2634C6.80183 23.1305 6.59184 22.969 6.40497 22.7827C7.65463 24.8014 9.28879 26.9643 11.0191 28.7907C12.7974 28.8868 14.72 28.8388 16.5464 28.6465ZM19.1418 28.6946C19.0938 28.983 19.0457 29.2233 18.9496 29.5117C19.7186 29.8962 20.4876 30.1845 21.3047 30.2326C21.9776 29.3194 22.5544 28.262 22.8427 27.1565C21.8815 27.7814 20.5837 28.3101 19.1418 28.6946ZM7.31818 22.7827C8.6159 23.5998 10.1539 24.0324 11.7881 24.0805C8.42365 20.0912 5.82821 15.1887 5.29951 11.7281C4.67468 14.1794 4.43437 15.6693 4.09792 18.2167V18.2648C4.39057 19.021 4.7276 19.7592 5.10726 20.4757C5.68402 21.437 6.40497 22.206 7.31818 22.7827ZM18.6131 22.8789C16.7387 23.8882 14.8161 24.465 12.9416 24.6092C13.7587 25.4743 14.5277 26.2914 15.3448 27.0123C15.9216 27.541 16.5945 28.0697 17.2674 28.5023C17.748 28.4062 18.1806 28.3581 18.6131 28.262C18.9496 26.5317 18.8535 24.7534 18.6131 22.8789ZM19.238 28.1178C20.776 27.6852 22.1218 27.1085 23.0831 26.2914C23.5156 24.4169 23.3714 22.3502 22.4582 20.1392C21.6411 18.7935 20.9202 17.6399 20.1992 16.5825C21.497 18.9857 21.497 20.7641 20.1031 21.9657L20.055 22.0137C19.7667 22.206 19.4302 22.3982 19.1418 22.5905C19.3822 24.465 19.4783 26.3395 19.238 28.1178Z" fill="white"/>
</g>
<defs>
<clipPath id="clip0_46_6763">
<rect width="62" height="35" fill="white" transform="translate(0.681641 0.144775)"/>
</clipPath>
</defs>
</svg>
