<svg width="1447" height="802" viewBox="0 0 1447 802" fill="none" xmlns="http://www.w3.org/2000/svg">
<g clip-path="url(#clip0_249_225)">
<g opacity="0.5">
<g style="mix-blend-mode:screen">
<path fill-rule="evenodd" clip-rule="evenodd" d="M1032.48 347.416C1033.37 339.988 1033.98 332.591 1034.3 325.226V325.092C1042.09 163.835 923.818 21.7322 761.069 2.24387C694.369 -5.83345 626.853 8.02591 568.728 41.7264C543.878 56.1672 521.132 73.9587 501.132 94.6004C466.545 130.198 441.059 173.616 426.839 221.168C424.683 228.33 422.845 235.651 421.128 243.039C420.529 245.888 419.917 248.777 419.358 251.678C417.965 258.92 416.824 266.241 415.937 273.643C415.671 275.879 415.444 278.115 415.231 280.299C414.472 287.713 414.033 295.075 413.9 302.383C412.951 335.65 417.406 368.85 427.092 400.69C436.674 432.398 451.3 462.355 470.408 489.412C495.435 525.013 527.686 554.938 565.057 577.234C602.428 599.531 644.08 613.7 687.296 618.815C717.167 622.417 747.404 621.655 777.056 616.552C792.926 613.834 808.554 609.859 823.794 604.665C838.262 599.738 852.356 593.772 865.965 586.814C871.024 584.151 875.976 581.489 880.901 578.574C895.257 570.174 908.914 560.635 921.741 550.047C972.579 508.246 1008.74 451.308 1024.97 387.524C1028.36 374.335 1030.86 360.936 1032.48 347.416Z" fill="url(#paint0_radial_249_225)"/>
<g style="mix-blend-mode:multiply" opacity="0.2">
<path fill-rule="evenodd" clip-rule="evenodd" d="M709.886 572.238C711.936 559.525 706.917 551.858 701.512 540.529C692.463 521.99 681.799 504.284 669.644 487.615C661.032 475.715 654.11 462.549 645.563 450.529C630.921 429.816 607.172 416.291 586.26 403.366C556.335 384.862 524.134 370.419 492.199 355.563C481.829 350.744 465.256 342.744 453.902 348.708C444.41 353.673 436.596 362.592 431.658 371.99C427.331 380.15 426.333 390.36 427.012 400.703C436.62 432.412 451.273 462.365 470.408 489.412C472.285 485.419 474.535 479.043 474.548 475.954C474.381 470.555 473.169 465.239 470.98 460.3C467.706 452.592 464.085 445.045 460.864 437.244C457.102 428.7 455.454 419.377 456.058 410.061C456.258 405.469 455.858 398.573 458.095 394.473C463.087 385.222 477.197 387.951 485.264 388.962C493.331 389.974 501.571 390.134 509.292 392.277C515.535 394.021 521.485 396.79 527.595 398.933C540.374 403.605 553.047 408.517 565.533 413.935C570.246 416.092 573.773 418.434 578.233 420.844C582.905 423.413 588.403 423.32 592.876 426.568C599.132 431.147 606.48 436.791 611.685 442.542C619.761 451.284 626.437 461.221 631.48 472.001C633.05 475.542 633.876 479.216 635.646 482.65C637.683 486.723 637.523 488.84 638.135 493.153C640.518 510.046 648.372 531.917 633.743 545.521C618.195 560.018 589.175 538.972 578.313 527.684C572.229 521.334 560.502 505.972 564.442 496.321C566.984 490.091 575.091 495.243 579.804 497.732C588.177 502.125 595.538 503.669 604.883 504.614C610.048 505.187 622.348 504.428 624.038 498.052C625.729 491.675 618.274 482.703 615.266 477.672C610.873 470.31 605.029 465.944 598.56 460.593C592.929 455.907 586.579 452.486 580.256 448.719C573.667 444.832 565.613 444.126 558.412 441.783C542.131 436.459 521.272 431.413 508.573 447.241C501.038 456.559 504.965 475.515 507.787 485.845C513.498 507.037 527.369 524.515 543.276 539.092C563.723 557.808 588.776 575.499 614.507 586.082C633.876 594.069 651.247 597.197 672.067 595.893C687.722 594.961 706.917 590.475 709.886 572.238Z" fill="#263DCA"/>
<path fill-rule="evenodd" clip-rule="evenodd" d="M829.931 570.241C830.423 555.212 831.342 540.236 831.355 525.141C831.355 508.701 828.04 494.138 825.218 478.057C822.396 461.977 815.9 449.73 806.915 436.352C799.354 425.237 791.22 414.148 781.263 405.069C769.478 394.177 756.256 384.951 741.967 377.647C726.126 369.421 709.14 365.214 692.967 357.826C677.379 350.678 662.35 342.464 646.961 334.824C632.904 327.782 618.874 320.78 605.016 313.325C592.197 306.47 577.341 301.944 563.63 297.351C556.242 294.902 548.561 294.942 541 293.81C532.334 292.599 524.028 289.936 515.295 288.898C498.057 286.835 480.392 288.299 463.153 286.143C447.179 284.106 431.205 282.282 415.231 280.325C414.473 287.74 414.033 295.101 413.9 302.41C420.271 300.017 427.172 299.396 433.868 300.612C443.652 302.303 453.582 307.122 462.834 310.796C473.219 314.909 484.014 317.899 495.035 319.715C511.071 322.277 527.257 323.789 543.49 324.241C561.354 324.72 580.203 325.066 597.801 328.913C620.99 333.985 641.264 346.485 662.696 356.189C684.793 366.159 705.945 377.488 726.965 389.468C744.43 399.492 759.379 413.762 772.304 429.257C779.706 438.082 788.917 447.52 793.896 458.05C804.545 480.879 811.72 505.972 812.106 531.105C812.386 546.972 806.782 561.389 801.284 576.031C798.861 582.368 796.971 589.077 793.803 595.12C790.262 601.776 784.764 608.033 779.839 613.757C779.004 614.76 778.077 615.683 777.07 616.512C792.939 613.794 808.568 609.819 823.807 604.625C824.426 603.531 824.981 602.402 825.471 601.244C829.025 592.684 829.611 579.453 829.931 570.241Z" fill="#263DCA"/>
<path fill-rule="evenodd" clip-rule="evenodd" d="M405.181 231.963L404.435 232.749C404.626 232.712 404.8 232.616 404.934 232.475C405.068 232.335 405.154 232.156 405.181 231.963Z" fill="#263DCA"/>
<path fill-rule="evenodd" clip-rule="evenodd" d="M1024.97 387.524C1024.23 383.53 1023.32 379.776 1022.31 376.036C1018 358.704 1012.74 341.622 1006.56 324.866C998.43 303.567 988.353 284.305 973.59 266.84C960.279 251.172 944.744 238.579 929.142 225.321C922.74 219.85 916.856 213.913 910.599 208.282C902.399 200.974 892.522 194.97 883.124 189.379C842.244 164.726 797.636 147.181 752.922 130.808C727.563 121.49 701.725 113.343 675.595 106.514C647.64 99.1925 618.847 95.5717 590.014 93.0824C565.241 90.9526 539.948 93.4685 515.082 93.9344C510.436 94.0276 505.764 94.2139 501.131 94.6133C466.545 130.211 441.059 173.629 426.839 221.181C432.865 220.036 438.886 218.927 444.903 217.853C454.74 216.149 464.338 213.939 473.949 211.344C484.944 208.335 496.06 206.219 507.042 203.357C542.158 194.158 576.795 193.333 612.684 198.112C657.677 204.102 701.606 219.264 744.855 232.509C787.093 245.448 830.476 264.164 863.329 294.568C876.641 306.882 886.558 321.378 895.97 336.766C905.155 351.769 913.275 368.275 918.4 385.101C922.753 399.318 927.811 413.189 931.499 427.579C933.735 436.218 935.093 444.884 937.023 453.577C938.501 460.166 940.71 466.542 941.655 473.198C943.586 486.51 944.73 501.778 939.459 514.531C935.213 524.794 929.222 534.498 924.523 544.535C923.645 546.399 922.726 548.249 921.861 550.06C972.656 508.238 1008.78 451.297 1024.97 387.524Z" fill="#263DCA"/>
<path fill-rule="evenodd" clip-rule="evenodd" d="M878.292 454.309C871.862 438.455 862.997 424.078 855.542 408.677C849.845 396.829 846.224 384.143 838.237 373.547C835.908 370.392 834.337 366.758 832.06 363.563C829.891 360.608 827.082 358.239 824.712 355.323C820.277 350.073 814.945 345.651 808.965 342.264C800.072 337.1 790.834 330.457 783.992 322.789C774.075 311.661 762.693 302.636 756.29 288.951C753.415 282.801 748.303 280.964 742.499 277.796C731.677 271.965 720.362 267.812 708.941 263.393C697.106 258.8 684.833 256.377 673.092 251.692C662.879 247.521 652.216 244.551 641.317 242.839C632.784 241.601 624.012 240.816 615.453 239.871C607.585 239.019 600.237 236.263 592.357 235.358C585.861 234.666 579.364 233.894 572.868 233.122C566.372 232.35 560.688 232.576 554.365 232.523C539.389 232.39 524.494 234.426 509.545 235.052C504.686 235.252 500.093 233.881 495.274 233.654C492.373 233.481 489.71 234.213 486.835 234.213C483.96 234.213 481.404 233.348 478.661 233.322C461.356 233.162 443.026 234.812 426.56 240.776C424.72 241.436 422.916 242.192 421.155 243.039C420.556 245.888 419.944 248.776 419.384 251.678C423.736 250.076 428.181 248.742 432.696 247.685C458.774 240.43 485.584 248.177 511.861 250.613C526.743 251.945 541.639 250.307 556.508 249.282C568.768 248.444 581.441 246.86 593.781 248.59C603.778 250.014 613.602 252.411 623.586 253.915C642.515 256.79 660.859 265.216 678.27 272.884C693.049 279.334 707.335 286.858 721.014 295.394C730.639 301.611 741.208 306.855 751.378 312.26C761.548 317.664 771.346 325.146 780.358 332.52C796.878 346.098 809.005 362.378 821.704 379.457C831.541 392.765 839.771 407.188 846.224 422.428C851.565 434.711 856.279 447.258 860.348 460.02C863.583 470.576 866.724 481.066 866.498 492.154C866.325 500.141 866.644 508.008 866.138 515.929C865.007 532.582 864.967 549.368 864.807 566.101C864.706 573.042 865.102 579.982 865.992 586.867C871.05 584.205 876.002 581.542 880.928 578.627C880.102 570.64 877.786 563.026 881.127 554.4C892.975 523.317 890.792 485.112 878.292 454.309Z" fill="#263DCA"/>
<path fill-rule="evenodd" clip-rule="evenodd" d="M1034.32 325.092C1042.11 163.835 923.831 21.7322 761.082 2.24387C694.382 -5.83345 626.866 8.02591 568.742 41.7264C581.694 42.0991 594.7 41.6465 607.639 42.4985C644.911 45.0011 683.515 50.4855 719.071 62.1199C750.433 72.3699 782.235 82.5001 810.669 99.5923C822.223 106.514 834.297 112.758 846.064 119.4C857.832 126.043 870.598 129.89 883.071 135.081C900.238 142.115 915.788 152.578 928.77 165.831C942.641 179.795 958.641 191.789 971.727 206.392C979.607 215.231 982.083 228.09 988.207 238.114C993.092 246.101 998.963 253.529 1004.18 261.183C1009.95 269.369 1015.28 277.852 1020.15 286.595C1026.58 298.216 1033.37 311.555 1034.32 325.092Z" fill="#263DCA"/>
<path fill-rule="evenodd" clip-rule="evenodd" d="M827.521 342.877C820.253 339.27 814.21 334.171 808.352 328.554C801.949 322.417 795.134 316.573 789.556 309.691C785.517 304.689 781.808 299.429 778.454 293.943C777.19 291.853 774.634 288.619 774.94 286.05C777.23 285.371 779.799 288.712 781.143 289.91C784.218 292.799 787.706 295.488 790.954 298.163C794.202 300.839 797.69 302.942 800.911 305.604C804.133 308.267 806.542 311.901 809.963 314.39C815.661 318.53 820.399 324.68 824.38 330.497C826.243 333.173 829.731 338.431 827.521 342.877Z" fill="#263DCA"/>
<path fill-rule="evenodd" clip-rule="evenodd" d="M691.316 505.066C687.323 502.577 683.742 500.74 680.52 497.359C677.857 494.41 675.506 491.193 673.505 487.761C669.418 481.105 664.799 474.902 660.686 468.366C657.518 463.321 654.523 458.089 651.567 452.911C648.905 448.252 645.963 444.498 645.178 439.147C644.552 434.913 646.802 435.606 649.957 437.23C657.664 441.223 664.147 446.774 670.683 452.472C681.785 462.176 692.554 472.772 700.275 485.431C703.869 491.302 705.599 497.345 708.262 503.575C710.698 509.299 713.373 515.01 714.731 521.107C715.41 524.102 716.302 527.004 716.994 529.986C717.367 531.57 718.964 536.255 718.325 537.879C716.608 542.352 710.458 537.347 708.461 535.55C704.468 531.969 702.072 526.857 699.143 522.504C696.694 518.884 693.819 515.462 691.529 511.722C690.091 509.312 688.001 506.557 687.083 504.014C686.617 502.683 686.87 501.538 686.071 500.261C685.499 499.262 684.58 498.929 691.316 505.066Z" fill="#263DCA"/>
<path fill-rule="evenodd" clip-rule="evenodd" d="M717.54 562.201C719.059 559.984 721.192 558.258 723.677 557.235C724.169 559.432 726.086 561.016 726.339 563.239C726.353 564.096 726.198 564.947 725.883 565.745C725.568 566.542 725.098 567.269 724.502 567.885C720.282 571.133 717.5 566.727 715.264 563.026L717.54 562.201Z" fill="#263DCA"/>
<path fill-rule="evenodd" clip-rule="evenodd" d="M621.789 312.753C627.113 315.175 632.545 317.212 637.63 320.114C644.046 323.748 650.489 327.555 657.145 330.763C661.298 332.734 667.914 337.326 672.853 336.328C672.853 333.106 665.105 327.955 663.122 326.517C660.153 324.361 656.905 322.524 653.87 320.5C651.381 318.823 649.624 316.666 646.855 315.508C642.129 313.458 637.616 311.368 632.465 310.729C628.977 310.303 626.488 311.661 621.789 312.753Z" fill="#263DCA"/>
<path fill-rule="evenodd" clip-rule="evenodd" d="M798.288 126.748C792.964 124.605 788.238 121.796 782.794 119.906C771.758 116.059 761.069 111.293 750.007 107.473C738.945 103.652 727.75 100.072 717.154 95.0398C713.32 93.2161 709.486 91.379 705.852 89.1826C703.057 87.5053 699.063 86.0011 696.76 83.6716C694.963 81.8479 695.269 80.9427 697.466 80.3703C704.122 78.5998 711.603 82.2472 717.939 83.8313C736.269 88.4105 755.212 89.5953 773.582 94.2544C785.617 97.4529 797.095 102.467 807.62 109.124C813.411 112.731 818.349 115.7 820.932 122.236C821.704 124.192 822.263 123.886 820.559 125.311C818.862 126.542 816.877 127.317 814.795 127.56C811.418 127.543 808.051 127.186 804.745 126.495C799.207 125.67 794.548 122.275 798.288 126.748Z" fill="#263DCA"/>
<path fill-rule="evenodd" clip-rule="evenodd" d="M832.486 126.429C836.347 129.091 840.833 133.338 846.131 132.526C850.404 131.873 846.996 128.719 845.319 127.201C843.654 125.65 841.626 124.542 839.422 123.98C835.748 122.994 833.844 124.219 833.445 127.694L832.486 126.429Z" fill="#263DCA"/>
<path fill-rule="evenodd" clip-rule="evenodd" d="M892.842 533.593C890.472 521.612 889.274 508.167 890.685 495.934C891.337 490.29 893.347 485.63 895.344 480.399C896.596 477.111 898.153 473.916 902 473.157C908.336 471.826 913.834 477.337 917.695 481.424C920.884 484.87 923.267 488.982 924.671 493.462C926.076 497.942 926.466 502.679 925.815 507.329C924.988 512.59 923.065 517.62 920.171 522.091C919.199 523.556 917.735 524.62 916.829 526.085C916.11 527.494 915.491 528.953 914.979 530.451C913.648 533.686 913.648 536.974 912.476 540.302C911.44 543.803 909.736 547.072 907.458 549.926C905.661 552.029 903.984 554.172 901.135 554.452C899.729 554.583 898.319 554.252 897.118 553.51C895.917 552.768 894.991 551.654 894.479 550.339C890.619 542.551 893.028 531.995 892.842 533.593Z" fill="#263DCA"/>
<path fill-rule="evenodd" clip-rule="evenodd" d="M585.009 518.791C589.375 523.051 593.076 526.246 599.252 527.191C601.915 527.603 606.228 528.522 608.797 527.191C614.548 524.355 608.251 519.643 605.283 517.872C602.314 516.102 599.519 514.704 596.67 513.094C594.553 511.909 592.29 512.135 590.014 511.39C588.204 510.804 585.315 509.672 583.758 511.949C581.907 514.611 587.618 519.59 589.082 521.467L585.009 518.791Z" fill="#263DCA"/>
<path fill-rule="evenodd" clip-rule="evenodd" d="M481.697 507.529C480.243 503.198 479.191 498.741 478.555 494.217C478.209 491.914 477.836 489.545 480.778 491.488C484.652 494.057 487.434 498.89 490.496 502.271C497.298 509.605 504.499 516.528 511.568 523.569C517.132 529.147 522.044 535.35 527.848 540.702C532.707 545.174 538.418 548.356 543.583 552.429C548.109 556.01 553.234 558.726 557.666 562.44C558.998 563.531 561.287 564.942 561.66 566.433C559.321 566.794 556.934 566.231 555.004 564.862C551.796 562.999 548.548 561.707 545.606 559.365C541.612 556.21 537.792 552.935 533.625 550.046C527.229 545.876 521.219 541.14 515.668 535.896C511.488 531.716 507.335 527.749 502.769 523.995C499.934 521.653 497.298 519.31 494.596 516.834C493.339 515.967 492.142 515.015 491.015 513.985C490.387 512.91 489.689 511.879 488.925 510.897C487.594 509.645 486.356 509.073 485.198 507.742C484.039 506.411 483.72 503.695 481.697 507.529Z" fill="#263DCA"/>
<path fill-rule="evenodd" clip-rule="evenodd" d="M586.14 385.062C582.24 384.61 577.315 384.796 573.601 383.558C570.685 382.586 566.772 379.405 564.456 378.034C557.4 373.854 550.997 368.715 543.955 364.629C545.58 361.314 560.076 366.559 561.447 367.118C569.412 370.224 577.121 373.949 584.503 378.26C586.899 379.684 594.966 382.959 591.478 386.247C589.242 388.337 582.719 387.006 581.255 384.53L586.14 385.062Z" fill="#263DCA"/>
</g>
<path fill-rule="evenodd" clip-rule="evenodd" d="M725.301 257.935C719.723 256.417 714.398 255.539 709.513 252.464C704.894 249.548 700.554 247.059 695.775 244.477C693.113 243.052 682.637 238.646 683.555 235.078C691.422 233.747 702.192 236.982 709.939 237.941C723.251 239.591 735.95 238.633 749.049 242.227C755.705 244.037 761.282 245.036 767.499 248.191C773.023 250.986 778.814 253.063 784.338 255.925C790.781 259.226 797.876 261.675 803.933 265.669C807.287 267.905 808.312 270.767 810.762 273.536C809.577 277.796 800.325 276.771 797.077 276.451C787.653 275.519 779.093 273.256 769.961 271.513C760.139 269.584 750.511 266.773 741.195 263.113C737.467 261.649 733.461 260.85 729.893 259.119C727.67 258.068 722.132 256.257 725.301 257.935Z" fill="#26ECE2"/>
<path fill-rule="evenodd" clip-rule="evenodd" d="M708.3 620.555C719.702 614.27 731.37 609.108 736.385 596.459C739.046 589.858 742.319 584.207 743.344 576.971C744.195 570.99 745.353 564.587 745.366 558.566C745.366 544.663 743.956 531.777 738.022 519.075C735.747 514.203 734.882 508.513 732.461 503.799C729.959 499.442 727.121 495.284 723.972 491.362C720.486 486.798 717.291 482.023 714.406 477.063C711.213 471.736 708.416 466.184 706.038 460.453C702.765 451.792 699.758 441.48 692.414 435.103C687.092 430.521 681.238 426.837 675.517 422.85C671.752 420.209 668.745 416.829 665.06 414.136C662.026 411.931 658.833 410.426 656.212 407.653C651.775 403.073 647.767 398.101 644.238 392.8C642.988 390.846 637.44 383.557 638.331 381.273C639.928 381.735 641.324 383.729 642.775 384.785C647.62 388.415 652.656 391.787 657.862 394.886C664.075 398.49 670.368 402.015 676.488 405.699C681.651 408.802 685.988 412.657 691.656 414.849C704.029 419.615 715.75 426.983 727.791 432.713C736.332 436.78 743.49 442.813 750.927 448.557C757.194 453.402 763.873 457.971 768.862 464.176C773.252 469.616 777.483 475.042 781.315 480.865C785 486.463 789.79 491.982 792.531 498.135C796.163 506.255 795.604 512.896 794.566 521.557C793.243 532.126 790.735 542.515 787.089 552.532C783.856 561.774 782.526 571.532 778.747 580.576C774.157 591.548 775.474 605.662 766.028 614.35C763.527 616.66 761.478 618.311 758.178 618.311C753.947 618.311 749.411 617.241 745.193 616.739C740.257 616.145 734.164 614.455 729.228 614.746C724.664 615.023 720.287 616.647 715.684 616.819C715.551 617.241 715.351 617.664 708.3 620.555Z" fill="#26ECE2"/>
<path fill-rule="evenodd" clip-rule="evenodd" d="M839.235 479.801C830.57 465.624 821.132 451.566 815.967 435.712C815.687 434.834 814.076 431.719 815.581 430.907C817.564 429.775 817.671 431.692 818.882 432.344C822.05 434.062 822.569 436.045 825.125 438.494C829.927 442.75 833.946 447.814 836.999 453.457C839.874 458.968 840.686 466.768 838.131 472.772L836.799 472.892L839.235 479.801Z" fill="#26ECE2"/>
<path fill-rule="evenodd" clip-rule="evenodd" d="M819.681 284.106C820.227 284.864 830.809 303.754 836.214 296.086C837.971 293.584 835.735 293.158 834.883 291.347C834.204 289.936 834.044 288.139 833.059 286.875C831.009 284.212 824.819 282.215 821.478 282.562C813.704 283.36 821.265 291.267 823.395 294.542L819.681 284.106Z" fill="#26ECE2"/>
<path fill-rule="evenodd" clip-rule="evenodd" d="M674.317 393.967C668.622 392.441 663.166 390.134 658.103 387.112C655.075 385.524 652.367 383.389 650.116 380.815C649.078 379.484 647.454 377.9 646.988 376.289C646.309 373.907 647.867 373.374 650.023 373.627C652.686 373.933 655.055 375.318 657.531 376.076C660.26 376.902 663.109 377.328 665.824 378.233C669.805 379.787 673.568 381.85 677.019 384.37C679.322 385.874 681.426 387.258 682.344 389.974C682.707 390.635 682.815 391.406 682.648 392.142C682.482 392.878 682.051 393.527 681.439 393.967C679.336 396.124 677.086 395.112 674.317 393.967Z" fill="#26ECE2"/>
<path fill-rule="evenodd" clip-rule="evenodd" d="M470.315 441.383C467.642 434.819 465.449 428.07 463.753 421.189C462.941 417.595 462.967 411.538 465.084 408.357C466.201 406.771 467.631 405.431 469.287 404.419C470.942 403.407 472.787 402.745 474.708 402.473C479.9 401.954 484.878 400.969 490.123 401.661C499.148 402.833 508.573 403.485 516.573 408.131C518.011 408.956 524.454 411.618 524.068 414.028C523.748 416.024 518.131 416.61 516.627 416.863C513.047 417.227 509.431 416.897 505.977 415.891C503.115 415.026 500.653 413.655 497.604 413.296C494.849 412.963 493.611 413.402 492.359 415.958C491.11 418.704 489.552 421.299 487.714 423.692C485.983 425.875 483.96 428.018 483.041 430.574C482.007 432.984 481.196 435.484 480.618 438.042C480.47 439.093 480.085 440.097 479.493 440.978C478.9 441.859 478.115 442.594 477.197 443.127C476.014 443.61 474.708 443.702 473.469 443.388C472.231 443.074 471.125 442.371 470.315 441.383Z" fill="#26ECE2"/>
<path fill-rule="evenodd" clip-rule="evenodd" d="M534.411 416.89C536.567 420.657 536.567 422.108 540.175 423.546C542.157 424.451 544.306 424.931 546.485 424.957C549.653 424.691 550.066 421.27 549.067 418.94C548.464 417.331 547.447 415.91 546.12 414.818C544.793 413.727 543.201 413.004 541.506 412.723C539.815 412.55 537.819 411.911 536.181 412.55C535.253 413.042 534.451 413.741 533.837 414.593C533.223 415.444 532.813 416.427 532.641 417.462L534.411 416.89Z" fill="#26ECE2"/>
<path fill-rule="evenodd" clip-rule="evenodd" d="M475.453 218.945C477.836 216.935 479.447 214.792 482.402 213.9C485.65 212.888 489.058 212.462 492.359 211.704C495.895 210.745 499.507 210.095 503.155 209.76C507.069 209.534 510.982 209.92 514.883 209.614C519.734 209.375 524.506 208.284 528.98 206.392C531.103 205.183 533.33 204.167 535.636 203.357C538.112 202.867 540.633 202.635 543.157 202.665C547.945 202.427 552.744 202.583 557.507 203.131C561.885 203.797 566.147 205.078 570.166 206.938C571.883 207.63 576.077 209.108 575.597 211.531C575.238 213.341 573.374 213.394 571.95 213.953C564.296 216.834 556.257 218.561 548.095 219.078C542.371 219.504 536.794 221.022 531.096 221.741C528.86 221.994 526.837 222.872 524.587 223.072C522.098 223.311 519.542 223.218 517.039 223.378C512.566 223.658 508.293 223.245 503.821 223.658C499.969 223.873 496.107 223.802 492.266 223.445C487.288 223.138 480.751 224.403 475.453 218.945Z" fill="#26ECE2"/>
<path fill-rule="evenodd" clip-rule="evenodd" d="M574.998 201.933C578.992 205.82 586.726 210.812 592.304 207.338C595.099 205.62 594.899 202.958 592.743 200.855C590.586 198.751 586.992 198.419 584.29 198.099C581.894 197.82 574.586 197.287 574.226 201.028L574.998 201.933Z" fill="#26ECE2"/>
<path fill-rule="evenodd" clip-rule="evenodd" d="M999.069 297.311C996.314 292.266 992.853 287.807 989.884 282.895C985.974 276.521 982.935 269.654 980.845 262.474C979.514 258.028 977.983 252.744 979.714 248.271C981.045 244.97 982.376 244.757 985.491 245.236C992.946 246.367 998.004 252.384 1003.02 257.469C1007.62 262.128 1010.72 267.786 1014.15 273.257C1018.08 279.5 1018.84 287.367 1020.45 294.369C1021.36 297.381 1022.12 300.438 1022.72 303.528C1022.88 304.859 1022.72 306.124 1022.84 307.428C1023.08 308.235 1023.22 309.065 1023.27 309.904C1022.68 314.683 1016.41 316.121 1012.54 315.548C1010.34 315.229 1008.16 313.152 1006.46 311.834C1004.33 310.022 1002.58 307.805 1001.31 305.312C1000.04 302.819 999.28 300.1 999.069 297.311Z" fill="#26ECE2"/>
<path fill-rule="evenodd" clip-rule="evenodd" d="M958.242 237.888C958.322 239.698 957.776 243.305 958.974 244.943C959.467 245.635 961.077 246.194 961.796 246.607C962.794 247.206 964.072 248.257 965.377 247.698C968.545 246.367 967.427 241.176 966.708 238.833C965.75 235.531 964.339 231.884 961.29 229.94C960.106 229.195 960.185 228.849 958.801 230.06C958.128 230.561 957.655 231.284 957.467 232.101C957.28 232.918 957.389 233.776 957.776 234.52L958.242 237.888Z" fill="#26ECE2"/>
<path fill-rule="evenodd" clip-rule="evenodd" d="M946.768 202.625C940.857 199.963 933.895 197.141 928.877 192.948C926.063 190.454 923.455 187.738 921.076 184.827C919.811 183.337 917.761 181.193 917.415 179.223C915.831 170.358 930.727 179.729 933.309 180.701C939.539 183.044 947.38 185.866 952.145 190.818C953.876 192.615 956.006 196.023 956.139 198.578C956.419 201.893 953.823 203.783 946.768 202.625Z" fill="#26ECE2"/>
<path fill-rule="evenodd" clip-rule="evenodd" d="M920.61 124.298C924.204 127.213 926.613 129.623 930.993 131.167C933.655 132.046 935.665 133.35 938.274 131.833C940.125 130.741 940.737 130.089 940.072 128.159C938.884 124.976 936.915 122.143 934.348 119.919C931.259 116.963 924.404 111.452 919.705 112.757C917.508 113.343 915.711 116.125 915.445 118.268C914.952 122.648 919.798 126.069 922.633 128.664L920.61 124.298Z" fill="#26ECE2"/>
<path fill-rule="evenodd" clip-rule="evenodd" d="M834.137 324.401C831.581 322.804 830.143 322.005 828.4 319.569C826.91 317.787 825.837 315.695 825.258 313.446C824.893 312.029 824.803 310.556 824.992 309.106C825.444 307.775 827.388 306.737 828.573 306.324C831.701 305.246 835.761 306.217 838.636 307.549C842.782 309.358 846.271 312.397 848.633 316.254C849.522 317.434 850.273 318.711 850.87 320.062C851.362 321.592 851.762 323.256 852.201 324.814C852.755 326.768 852.647 328.851 851.895 330.738C851.328 331.811 850.425 332.669 849.323 333.179C848.222 333.689 846.983 333.822 845.798 333.56C838.956 332.441 834.097 326.904 830.09 321.726L834.137 324.401Z" fill="#26ECE2"/>
<path fill-rule="evenodd" clip-rule="evenodd" d="M841.538 299.388C842.404 302.05 842.43 303.607 844.88 304.925C845.811 305.472 846.898 305.692 847.968 305.551C849.832 305.191 849.698 301.983 849.126 300.572C848.354 298.655 847.502 297.497 845.306 297.617C844.471 297.738 843.679 298.063 842.999 298.562C842.318 299.061 841.771 299.719 841.405 300.479L841.538 299.388Z" fill="#26ECE2"/>
<path fill-rule="evenodd" clip-rule="evenodd" d="M907.578 433.396C906.686 428.591 905.647 424.158 907.351 419.339C907.817 418.008 908.483 416.051 909.814 415.346C911.545 414.494 913.728 415.878 915.139 416.677C919.931 419.339 922.5 424.518 924.976 429.217C927.44 433.819 928.599 439.006 928.331 444.219C928.078 446.881 927.705 449.756 925.269 451.46C922.833 453.164 919.784 451.9 917.482 450.635C914.69 449.23 912.328 447.101 910.639 444.472C909.512 442.461 908.703 440.288 908.243 438.029C907.551 435.167 906.699 431.945 907.578 433.396Z" fill="#26ECE2"/>
<path fill-rule="evenodd" clip-rule="evenodd" d="M913.927 403.352C914.047 405.123 913.754 407.106 915.072 408.451C915.958 409.3 917.11 409.817 918.334 409.915C920.503 409.782 920.81 407.599 920.384 405.921C920.003 404.017 919.247 402.206 918.161 400.597C916.111 398.107 914.167 402.687 913.328 403.911L913.927 403.352Z" fill="#26ECE2"/>
<path fill-rule="evenodd" clip-rule="evenodd" d="M857.273 517.766C855.627 517.703 854.009 517.324 852.507 516.648C851.777 516.116 851.107 515.504 850.51 514.825C848.447 512.815 846.224 510.512 845.332 507.69C843.564 501.732 843.481 495.401 845.093 489.399C846.078 485.872 846.836 481.612 849.379 478.75C851.496 476.407 853.958 477.858 855.729 479.828C861.573 486.364 861.626 495.27 860.614 503.536C859.975 508.928 860.308 515.357 857.273 517.766Z" fill="#26ECE2"/>
<path fill-rule="evenodd" clip-rule="evenodd" d="M842.377 471.92C842.098 470.496 840.886 467.927 842.377 466.928C842.802 466.689 843.276 466.55 843.763 466.523C844.25 466.495 844.737 466.579 845.186 466.769C846.77 467.301 847.609 469.91 847.848 471.468C847.94 472.077 847.877 472.7 847.665 473.279C847.453 473.858 847.1 474.375 846.637 474.782C845.718 475.488 843.389 474.276 843.376 473.132L842.377 471.92Z" fill="#26ECE2"/>
<path fill-rule="evenodd" clip-rule="evenodd" d="M946.741 230.447C946.035 229.781 944.078 228.57 943.692 227.638C943.586 227.385 943.879 226.946 943.879 226.693C943.809 226.251 943.847 225.8 943.988 225.376C944.13 224.952 944.37 224.568 944.691 224.257C946.421 222.925 949.523 224.749 950.96 225.761C951.744 226.202 952.351 226.899 952.681 227.736C953.011 228.572 953.042 229.496 952.771 230.353C951.985 232.43 950.015 231.911 948.245 231.685L946.741 230.447Z" fill="#26ECE2"/>
<path fill-rule="evenodd" clip-rule="evenodd" d="M757.395 284.306C755.251 282.985 753.399 281.241 751.951 279.181C751.165 277.943 748.809 274.588 749.421 273.004C749.94 271.673 752.776 271.007 754.014 271.167C756.102 271.554 758.088 272.37 759.844 273.563C761.215 274.519 762.366 275.755 763.222 277.189C764.078 278.623 764.619 280.224 764.81 281.883C764.902 282.509 764.843 283.149 764.64 283.748C764.436 284.348 764.093 284.89 763.638 285.331C762.507 286.382 761.468 287.288 759.858 286.808L757.395 284.306Z" fill="#26ECE2"/>
<path fill-rule="evenodd" clip-rule="evenodd" d="M863.889 342.877C864.861 341.714 866.166 340.877 867.629 340.48C868.082 341.239 868.787 341.399 869.52 341.812C870.424 342.367 871.113 343.211 871.476 344.208C872.139 345.533 872.344 347.04 872.062 348.494C871.904 349.216 871.537 349.874 871.007 350.388C870.476 350.902 869.806 351.248 869.08 351.383C866.125 352.102 864.501 350.398 862.691 348.241L863.889 342.877Z" fill="#26ECE2"/>
<path fill-rule="evenodd" clip-rule="evenodd" d="M850.044 200.695C850.097 199.193 850.298 197.699 850.643 196.236C853.04 196.023 855.236 195.317 857.685 196.129C858.936 196.636 860.053 197.424 860.949 198.433C861.845 199.442 862.496 200.645 862.85 201.947C862.92 202.991 862.686 204.034 862.175 204.948C861.665 205.862 860.901 206.609 859.975 207.098C856.953 208.429 853.066 205.767 851.349 203.611L850.044 200.695Z" fill="#26ECE2"/>
<path fill-rule="evenodd" clip-rule="evenodd" d="M900.722 214.472C902.706 213.514 903.544 212.515 905.262 213.407C906.319 213.981 907.195 214.838 907.791 215.883C908.11 216.601 908.201 217.4 908.051 218.172C907.901 218.943 907.517 219.65 906.952 220.196C906.02 221.208 904.21 221.967 902.959 221.088C902.139 220.338 901.39 219.513 900.722 218.625C899.87 217.68 898.925 216.828 899.484 215.431L900.722 214.472Z" fill="#26ECE2"/>
<path fill-rule="evenodd" clip-rule="evenodd" d="M968.758 341.054C968.565 339.551 968.565 338.03 968.758 336.528C969.768 336.363 970.758 336.096 971.713 335.729C973.337 335.436 974.029 335.942 975.427 336.861C976.57 337.593 977.556 338.544 978.331 339.659C979.105 340.774 979.652 342.03 979.94 343.357C980.246 345.646 979.58 347.869 977.277 348.748C973.777 350.079 970.741 346.299 968.904 343.836L968.758 341.054Z" fill="#26ECE2"/>
<path fill-rule="evenodd" clip-rule="evenodd" d="M742.553 390.014C742.354 388.507 742.354 386.981 742.553 385.474C744.629 385.474 745.987 383.917 748.25 384.689C749.175 385.087 750.007 385.672 750.694 386.408C751.381 387.143 751.909 388.013 752.244 388.962C753.122 390.866 752.55 392.05 750.766 393.248C749.863 393.779 748.828 394.041 747.782 394.006C746.736 393.971 745.721 393.639 744.856 393.049L742.553 390.014Z" fill="#26ECE2"/>
<path fill-rule="evenodd" clip-rule="evenodd" d="M703.723 410.766C702.471 409.116 700.475 407.665 701.739 405.615C702.215 404.91 702.852 404.33 703.598 403.923C704.343 403.515 705.176 403.292 706.025 403.272C707.998 403.454 709.91 404.043 711.643 405.002C713.848 405.726 715.771 407.123 717.141 408.996C718.698 411.552 717.7 414.054 715.876 416.171C712.269 420.351 708.115 418.46 704.162 415.705L703.723 410.766Z" fill="#26ECE2"/>
<path fill-rule="evenodd" clip-rule="evenodd" d="M615.506 406.213C615.586 405.481 615.506 402.087 616.557 401.421C617.515 401.09 618.542 401.012 619.539 401.195C621.563 401.767 623.133 404.576 623.213 406.52C623.329 407.295 623.183 408.087 622.797 408.77C622.411 409.453 621.808 409.986 621.083 410.287C619.087 411.072 617.09 409.355 615.852 407.837L615.506 406.213Z" fill="#26ECE2"/>
<path fill-rule="evenodd" clip-rule="evenodd" d="M732.649 546.372C732.223 545.507 730.452 543.018 731.038 541.753C731.618 540.921 732.389 540.24 733.288 539.769C735.191 538.864 737.414 540.142 738.612 541.686C739.226 542.569 739.543 543.624 739.517 544.699C739.49 545.774 739.122 546.812 738.466 547.663C737.799 548.381 736.987 548.948 736.083 549.327C734.339 550.126 733.647 549.966 732.369 548.542L732.649 546.372Z" fill="#26ECE2"/>
<path fill-rule="evenodd" clip-rule="evenodd" d="M687.562 99.1672C686.324 96.984 685.153 95.6928 687.655 94.335C688.88 93.8384 690.195 93.6027 691.516 93.6428C692.946 93.8091 694.295 94.3926 695.396 95.3205C696.497 96.2484 697.3 97.4797 697.706 98.861C699.037 105.583 689.213 105.69 686.817 100.738L687.562 99.1672Z" fill="#26ECE2"/>
<path fill-rule="evenodd" clip-rule="evenodd" d="M696.161 45.6664C695.948 44.1653 695.948 42.6416 696.161 41.1405C696.96 41.247 697.306 40.5947 697.945 40.3418C698.994 39.9098 700.171 39.9098 701.22 40.3418C702.089 40.7557 702.814 41.4211 703.301 42.2518C703.787 43.0826 704.013 44.0403 703.949 45.0009C703.856 46.332 703.443 48.2223 702.059 48.8746C700.248 49.7531 697.612 48.2622 696.534 46.8645L696.161 45.6664Z" fill="#26ECE2"/>
<path fill-rule="evenodd" clip-rule="evenodd" d="M748.357 23.8097C747.159 22.4785 745.495 21.5334 746.014 19.723C746.533 17.9126 749.115 17.3402 750.833 17.4067C753.7 17.5038 756.511 18.2359 759.061 19.5503C761.612 20.8647 763.839 22.7286 765.582 25.0077C767.752 27.8564 768.457 31.0512 764.45 32.835C758.074 35.6704 751.924 31.3707 748.037 26.5253L748.357 23.8097Z" fill="#26ECE2"/>
<path fill-rule="evenodd" clip-rule="evenodd" d="M804.824 26.1643C805.832 25.2002 807.109 24.5643 808.485 24.3406C809.284 25.5653 811.028 25.6717 811.92 27.0029C812.319 27.5163 812.583 28.1217 812.688 28.7635C812.792 29.4054 812.734 30.0633 812.519 30.6769C811.893 32.0081 809.936 32.3542 808.525 32.1013C806.382 31.6886 804.532 28.973 803.533 27.136L804.824 26.1643Z" fill="#26ECE2"/>
<path fill-rule="evenodd" clip-rule="evenodd" d="M867.097 53.4546C866.152 53.6409 864.195 54.4796 863.196 54.1201C862.078 53.3877 861.077 52.4901 860.228 51.4578C858.577 49.8072 855.449 46.4393 855.582 43.8435C855.742 41.0081 860.428 40.7552 862.491 40.9415C868.441 41.4607 874.338 44.8552 878.638 48.7555C881.58 51.4179 890.619 60.8559 885.6 64.9825C882.805 67.2987 877.839 66.0075 874.791 64.9825C871.064 63.7445 867.802 60.4698 865.06 57.7942C862.318 55.1185 860.574 52.536 867.097 53.4546Z" fill="#26ECE2"/>
<path fill-rule="evenodd" clip-rule="evenodd" d="M880.861 99.7129C882.402 99.5 883.966 99.5 885.507 99.7129C885.959 100.671 887.37 102.508 886.958 103.613C886.159 105.783 883.191 104.053 882.099 103.147L880.861 99.7129Z" fill="#26ECE2"/>
<path fill-rule="evenodd" clip-rule="evenodd" d="M502.676 497.919C501.451 495.443 496.859 490.078 500.533 487.695C501.012 487.326 501.569 487.071 502.162 486.949C502.755 486.826 503.367 486.84 503.954 486.99C508.56 487.629 512.327 494.977 513.645 498.97C514.417 501.34 516.427 507.184 513.312 508.927C511.93 509.251 510.488 509.2 509.132 508.781C505.791 507.57 503.807 503.044 502.41 500.088L502.676 497.919Z" fill="#26ECE2"/>
<path fill-rule="evenodd" clip-rule="evenodd" d="M429.634 334.89C427.478 328.62 425.321 325.319 430.965 320.899C434.959 317.718 440.044 319.754 442.347 324.254C443.12 325.899 443.521 327.694 443.521 329.512C443.521 331.329 443.12 333.125 442.347 334.77C441.812 335.831 441.046 336.759 440.107 337.487C439.167 338.215 438.077 338.724 436.916 338.976C435.585 339.229 431.591 339.323 431.591 337.326L429.634 334.89Z" fill="#26ECE2"/>
<path fill-rule="evenodd" clip-rule="evenodd" d="M668.5 576.165C667.891 573.057 667.447 569.92 667.169 566.767C667.743 566.089 668.251 565.358 668.686 564.583C670.563 561.362 671.136 557.928 674.41 555.745C681.066 551.272 688.081 552.124 692.607 559.152C696.135 564.623 693.286 573.289 689.586 578.121C687.51 580.795 684.552 582.644 681.239 583.34C676.833 584.511 674.037 582.461 670.15 580.757L668.5 576.165Z" fill="#26ECE2"/>
<path fill-rule="evenodd" clip-rule="evenodd" d="M716.901 595.173C715.57 591.259 712.908 586.906 717.008 584.097C719.524 582.394 723.144 583.805 724.529 586.241C725.145 587.517 725.433 588.926 725.368 590.341C725.303 591.757 724.886 593.133 724.156 594.347C722.692 596.238 716.741 598.7 715.81 595.04L716.901 595.173Z" fill="#586BDE"/>
<path style="mix-blend-mode:multiply" fill-rule="evenodd" clip-rule="evenodd" d="M1032.48 347.416C1033.37 339.988 1033.98 332.591 1034.3 325.226V325.092C1042.09 163.835 923.818 21.7322 761.069 2.24387C694.369 -5.83345 626.853 8.02591 568.728 41.7264C543.878 56.1672 521.132 73.9587 501.132 94.6004C466.545 130.198 441.059 173.616 426.839 221.168C424.683 228.33 422.845 235.651 421.128 243.039C420.529 245.888 419.917 248.777 419.358 251.678C417.965 258.92 416.824 266.241 415.937 273.643C415.671 275.879 415.444 278.115 415.231 280.299C414.472 287.713 414.033 295.075 413.9 302.383C412.951 335.65 417.406 368.85 427.092 400.69C436.674 432.398 451.3 462.355 470.408 489.412C495.435 525.013 527.686 554.938 565.057 577.234C602.428 599.531 644.08 613.7 687.296 618.815C717.167 622.417 747.404 621.655 777.056 616.552C792.926 613.834 808.554 609.859 823.794 604.665C838.262 599.738 852.356 593.772 865.965 586.814C871.024 584.151 875.976 581.489 880.901 578.574C895.257 570.174 908.914 560.635 921.741 550.047C972.579 508.246 1008.74 451.308 1024.97 387.524C1028.36 374.335 1030.86 360.936 1032.48 347.416Z" fill="url(#paint1_radial_249_225)"/>
</g>
<g style="mix-blend-mode:screen" filter="url(#filter0_f_249_225)">
<path d="M1074.45 802.23C868.661 802.23 701.836 635.404 701.836 429.615C701.836 223.825 868.661 57 1074.45 57C1280.24 57 1447.07 223.825 1447.07 429.615C1447.07 635.404 1280.24 802.23 1074.45 802.23Z" fill="url(#paint2_radial_249_225)" style="mix-blend-mode:screen"/>
</g>
<rect width="1441" height="802" transform="matrix(-1 0 0 1 1441 0)" fill="#0A1D2B" style="mix-blend-mode:hue"/>
</g>
</g>
<defs>
<filter id="filter0_f_249_225" x="301.836" y="-343" width="1545.23" height="1545.23" filterUnits="userSpaceOnUse" color-interpolation-filters="sRGB">
<feFlood flood-opacity="0" result="BackgroundImageFix"/>
<feBlend mode="normal" in="SourceGraphic" in2="BackgroundImageFix" result="shape"/>
<feGaussianBlur stdDeviation="200" result="effect1_foregroundBlur_249_225"/>
</filter>
<radialGradient id="paint0_radial_249_225" cx="0" cy="0" r="1" gradientUnits="userSpaceOnUse" gradientTransform="translate(499.373 181.23) rotate(6.82) scale(561.248 561.248)">
<stop offset="0.62" stop-color="#4A72FF"/>
<stop offset="0.64" stop-color="#4977FF"/>
<stop offset="0.72" stop-color="#438CFF"/>
<stop offset="0.81" stop-color="#4098FF"/>
<stop offset="0.89" stop-color="#3F9CFF"/>
<stop offset="0.99" stop-color="#86FFFF"/>
</radialGradient>
<radialGradient id="paint1_radial_249_225" cx="0" cy="0" r="1" gradientUnits="userSpaceOnUse" gradientTransform="translate(993.132 470.669) rotate(180) scale(617.21 617.21)">
<stop offset="0.01" stop-color="#86FFFF"/>
<stop offset="0.05" stop-color="#81F6F6"/>
<stop offset="0.12" stop-color="#74DDDD"/>
<stop offset="0.2" stop-color="#5FB5B5"/>
<stop offset="0.3" stop-color="#427E7E"/>
<stop offset="0.41" stop-color="#1D3838"/>
<stop offset="0.49"/>
<stop offset="0.62" stop-color="#030505"/>
<stop offset="0.78" stop-color="#0A1313"/>
<stop offset="0.94" stop-color="#162929"/>
<stop offset="1" stop-color="#1C3434"/>
</radialGradient>
<radialGradient id="paint2_radial_249_225" cx="0" cy="0" r="1" gradientUnits="userSpaceOnUse" gradientTransform="translate(1074.45 429.615) rotate(180) scale(372.615 372.615)">
<stop offset="0.01" stop-color="#263DCA"/>
<stop offset="0.115" stop-color="#263DCA"/>
<stop offset="0.23" stop-color="#263DCA"/>
<stop offset="0.43" stop-color="#182888"/>
<stop offset="0.62" stop-color="#00123F"/>
<stop offset="0.78" stop-color="#00111C"/>
<stop offset="0.91" stop-color="#000408"/>
<stop offset="1"/>
</radialGradient>
<clipPath id="clip0_249_225">
<rect width="1447" height="802" fill="white"/>
</clipPath>
</defs>
</svg>
