<svg width="141" height="26" viewBox="0 0 141 26" fill="none" xmlns="http://www.w3.org/2000/svg">
<path fill-rule="evenodd" clip-rule="evenodd" d="M7.58447 26H2.3359V2.63118L0 1.37406V0.175412H2.3359H4.9698H7.58447V2.03673V3.43028V11.548V13.0877V15.2804V16.0795V24.1192H12.7657C13.1022 24.1192 13.3617 24.0705 13.5444 23.9828C13.7174 23.8951 13.8135 23.5832 13.8135 23.057V20.5427V19.8898V15.2219C13.8135 14.6957 13.7078 14.4033 13.5444 14.2961L11.4392 12.9805L9.35322 14.2279V12.0255L12.4581 10.1544C12.6216 10.057 12.7273 9.75487 12.7273 9.22864V6.26612V4.4925V3.08921C12.7273 2.56297 12.6408 2.25112 12.4581 2.16342C12.2851 2.07571 12.0256 2.02699 11.6795 2.02699H9.35322V0.175412H14.3134C15.5054 0.175412 16.409 0.487256 17.0146 1.1012C17.6202 1.71514 17.9278 2.72864 17.9278 4.13193V4.50225V6.26612V6.62669C17.9278 7.97151 17.649 8.99475 17.005 9.66717C16.9377 9.73538 16.8704 9.79385 16.7935 9.83283C16.7743 9.84258 16.7454 9.86207 16.7262 9.87181C15.8418 10.3786 14.9286 10.9145 13.9962 11.47C15.4381 12.3276 15.342 12.2886 17.8125 13.7114C17.8317 13.7211 17.8509 13.7309 17.8701 13.7406C17.947 13.7894 18.0239 13.8478 18.0912 13.916C18.7353 14.5885 19.014 15.6117 19.014 16.9565V19.8801V20.533V22.0142C19.014 23.4175 18.7064 24.431 18.1008 25.045C17.4952 25.6589 16.5916 25.9708 15.3996 25.9708H7.58447V26ZM21.7152 0C22.715 0 23.5224 0.818591 23.5224 1.83208V1.88081C23.4936 3.40105 22.8976 4.88231 21.7152 6.31484C20.5329 4.87256 19.9273 3.40105 19.908 1.88081V1.83208C19.908 0.818591 20.7155 0 21.7152 0ZM28.1462 7.67916H24.7913C23.5993 7.67916 22.6957 7.991 22.0901 8.60495C21.4845 9.21889 21.1769 10.2324 21.1769 11.6357V11.8111H26.3774V10.593C26.3774 10.0667 26.4639 9.75487 26.6466 9.66717C26.8196 9.57946 27.0792 9.53073 27.4252 9.53073H28.1462H28.6653H29.3862C29.7227 9.53073 29.9822 9.57946 30.1648 9.66717C30.3379 9.75487 30.434 10.0667 30.434 10.593V25.9903H35.6345V11.6357C35.6345 10.2324 35.3269 9.21889 34.7213 8.60495C34.1157 7.991 33.2121 7.67916 32.0201 7.67916H28.6653H28.1462ZM28.6653 14.5202H24.7913C23.5993 14.5202 22.6957 14.8321 22.0901 15.446C21.4845 16.06 21.1769 17.0735 21.1769 18.4768V20.0555V20.455V22.0337C21.1769 23.437 21.4845 24.4505 22.0901 25.0645C22.6957 25.6784 23.5993 25.9903 24.7913 25.9903H28.6653V24.1289H27.4252C27.0888 24.1289 26.8292 24.0802 26.6466 23.9925C26.4735 23.9048 26.3774 23.593 26.3774 23.0667V20.4453V20.0457V17.4243C26.3774 16.8981 26.4639 16.5862 26.6466 16.4985C26.8196 16.4108 27.0792 16.3621 27.4252 16.3621H28.6653V14.5202ZM57.5708 25.9805H51.6686C50.4766 25.9805 49.573 25.6687 48.9674 25.0547C48.3618 24.4408 48.0542 23.4273 48.0542 22.024V20.6012V20.0457V11.8988H45.8913V10.0375H48.0542V5.96402H52.0627L53.2547 8.25412V10.0472H57.5612V11.9085H53.2547V20.0555V20.6109V23.0765C53.2547 23.6027 53.3412 23.9145 53.5239 24.0022C53.6969 24.09 53.9564 24.1387 54.3025 24.1387H57.5805V25.9805H57.5708ZM44.0937 0.175412H50.8804H54.4563H57.5901V5.21364H53.5142L51.8609 2.03673H44.1034V26H38.8356V2.03673H31.6837L30.0303 5.21364H25.9545V0.175412H29.0882H32.6642H38.8452H40.4024H43.1421H44.0937Z" fill="white"/>
<path d="M104.952 1.14993C104.337 1.76387 104.039 2.77736 104.039 4.18066V17.8141C104.039 19.2271 104.346 20.2309 104.952 20.8448C105.558 21.4588 106.384 21.7609 107.423 21.7609H111.508V19.8996L110.287 19.9093C109.941 19.9093 109.682 19.8508 109.508 19.7631C109.345 19.6754 109.259 19.3928 109.259 18.9055V18.8471L109.249 3.14768V3.05023V0.224141H107.423C106.384 0.224141 105.558 0.535985 104.952 1.14993Z" fill="#fff"/>
<path d="M114.853 0.224141H110.998V2.08546H112.219C112.565 2.08546 112.825 2.13419 112.998 2.22189C113.181 2.3096 113.267 2.62144 113.267 3.14768V17.8336V18.8471V18.8666V21.7511H114.824C116.036 21.7511 116.949 21.449 117.554 20.8351C118.16 20.2211 118.468 19.2076 118.468 17.7946V4.18066C118.468 2.77736 118.16 1.76387 117.554 1.14993C116.949 0.535985 116.045 0.224141 114.853 0.224141Z" fill="#fff"/>
<path d="M92.3112 25.922H90.331L86.4282 9.92054V26H81.1797V0.175415H86.4282L91.3211 20.2406L96.214 0.175415H101.463V25.9903H96.214V9.9108L92.3112 25.922Z" fill="#fff"/>
<path d="M77.248 10.2616H73.8643V16.6252H78.2958V18.4865H73.8643H68.6158V16.6252V2.03673V0.175415H73.8643H78.2958V2.03673H73.8643V8.4003H77.248V10.2616Z" fill="#fff"/>
<path d="M133.31 25.9318L126.148 7.36732H126.139V26H122.207H120.89H104.029V24.1387H120.89V0.175415H126.139L133.3 18.7399V0.175415H136.03H138.558H141V1.38381L138.558 2.68966V26H133.31V25.9318Z" fill="#fff"/>
<path d="M71.5957 26H65.4147H63.8671H60.1758V0.175415H65.4243V24.1387H72.5762L74.2296 20.9618H78.3055V26H75.1717H71.5957Z" fill="#fff"/>
<path d="M93.3108 1.83208C93.3108 0.818591 92.5033 0 91.5036 0C90.5039 0 89.6868 0.818591 89.6964 1.83208V1.88081C89.7156 3.40105 90.3212 4.87256 91.5036 6.31484C92.6859 4.88231 93.2819 3.40105 93.3108 1.88081V1.83208Z" fill="white"/>
</svg>
