<svg width="54" height="53" viewBox="0 0 54 53" fill="none" xmlns="http://www.w3.org/2000/svg">
<rect x="0.681641" width="53" height="53" fill="#FCE418"/>
<path fill-rule="evenodd" clip-rule="evenodd" d="M13.5697 19.9836H17.6533V33.0164H12.2085C10.7644 33.0164 9.37952 32.4672 8.35842 31.4895C7.33732 30.5119 6.76367 29.1859 6.76367 27.8033C6.76367 26.4207 7.33732 25.0947 8.35842 24.1171C9.37952 23.1394 10.7644 22.5902 12.2085 22.5902H13.5697V19.9836ZM12.5488 29.5139C13 29.5139 13.4328 29.3422 13.7519 29.0367C14.071 28.7312 14.2503 28.3168 14.2503 27.8848C14.2503 27.4527 14.071 27.0383 13.7519 26.7328C13.4328 26.4273 13 26.2557 12.5488 26.2557C12.0975 26.2557 11.6647 26.4273 11.3456 26.7328C11.0265 27.0383 10.8473 27.4527 10.8473 27.8848C10.8473 28.3168 11.0265 28.7312 11.3456 29.0367C11.6647 29.3422 12.0975 29.5139 12.5488 29.5139ZM18.5245 28.4199C18.4022 27.09 18.8367 25.7681 19.7324 24.745C20.6281 23.7218 21.9116 23.0812 23.3006 22.9641L27.7619 22.5902L28.2639 28.0851L23.036 28.5234C22.8122 28.5422 22.6053 28.6453 22.4609 28.8102C22.3165 28.975 22.2464 29.188 22.2661 29.4023C22.2857 29.6166 22.3934 29.8146 22.5656 29.9529C22.7377 30.0911 22.9602 30.1582 23.184 30.1394L28.411 29.7012L28.7131 33.014L23.7617 33.0164C22.4463 33.0167 21.1787 32.5447 20.2091 31.6937C19.2395 30.8427 18.6384 29.6746 18.5245 28.4199ZM23.7787 27.1517C24.0946 27.1517 24.3975 27.0315 24.6209 26.8177C24.8443 26.6038 24.9698 26.3138 24.9698 26.0113C24.9698 25.7089 24.8443 25.4188 24.6209 25.2049C24.3975 24.9911 24.0946 24.8709 23.7787 24.8709C23.4628 24.8709 23.1599 24.9911 22.9365 25.2049C22.7131 25.4188 22.5876 25.7089 22.5876 26.0113C22.5876 26.3138 22.7131 26.6038 22.9365 26.8177C23.1599 27.0315 23.4628 27.1517 23.7787 27.1517ZM46.646 33.0164H39.6027L38.968 26.3355C38.9547 26.203 38.8904 26.08 38.7875 25.9905C38.6846 25.901 38.5506 25.8514 38.4116 25.8514C38.2726 25.8514 38.1386 25.901 38.0357 25.9905C37.9329 26.08 37.8685 26.203 37.8552 26.3355L37.2206 33.0164H30.1593L29.2235 22.5902H47.5997L46.646 33.0164ZM35.3489 22.5902H32.9668L33.6015 29.2719C33.6147 29.4044 33.6791 29.5274 33.782 29.6169C33.8848 29.7064 34.0189 29.756 34.1579 29.756C34.2969 29.756 34.4309 29.7064 34.5338 29.6169C34.6366 29.5274 34.701 29.4044 34.7143 29.2719L35.3489 22.5902ZM43.8564 22.5902H41.4743L42.109 29.2719C42.1223 29.4044 42.1866 29.5274 42.2895 29.6169C42.3924 29.7064 42.5264 29.756 42.6654 29.756C42.8044 29.756 42.9384 29.7064 43.0413 29.6169C43.1442 29.5274 43.2085 29.4044 43.2218 29.2719L43.8564 22.5902Z" fill="#131118"/>
</svg>
