<svg width="54" height="53" viewBox="0 0 54 53" fill="none" xmlns="http://www.w3.org/2000/svg">
<rect x="0.681641" width="53" height="53" fill="#FCE418"/>
<g clip-path="url(#clip0_206_1614)">
<path fill-rule="evenodd" clip-rule="evenodd" d="M36.4743 23.7411C36.4743 25.564 35.4093 26.4707 34.2124 26.7856C35.6449 27.2151 36.6816 28.389 36.6816 30.25V33.6667H31.2153V30.4218C31.2153 29.4292 30.631 29.0284 29.632 29.0284H23.1479V33.6667H17.6816V20H30.6687C33.9296 20 36.4743 20.7062 36.4743 23.7411ZM23.1504 23.8183H30.5401C30.5511 23.8179 30.5622 23.8183 30.5733 23.8183C31.0814 23.8183 31.4934 24.2354 31.4934 24.75C31.4934 25.2646 31.0814 25.6817 30.5733 25.6817C30.5622 25.6817 30.5511 25.6815 30.5401 25.6811L23.1504 25.6817V23.8183Z" fill="black"/>
</g>
<defs>
<clipPath id="clip0_206_1614">
<rect width="19" height="14" fill="white" transform="translate(17.6816 20)"/>
</clipPath>
</defs>
</svg>
