<svg width="34" height="37" viewBox="0 0 34 37" fill="none" xmlns="http://www.w3.org/2000/svg">
<path d="M33.7184 26.5813V10.4198C33.7181 9.82346 33.5564 9.23835 33.2504 8.72651C32.9445 8.21467 32.5057 7.79518 31.9807 7.51253L18.7666 0.396414C18.2854 0.136238 17.747 0 17.2 0C16.653 0 16.1146 0.136238 15.6334 0.396414L2.41871 7.51187C1.89368 7.79466 1.45497 8.21429 1.14915 8.72626C0.843317 9.23822 0.68177 9.82341 0.681641 10.4198V26.5813C0.681954 27.1777 0.843657 27.7628 1.1496 28.2746C1.45554 28.7864 1.89431 29.2059 2.41937 29.4886L15.6341 36.604C16.1153 36.8639 16.6537 37 17.2007 37C17.7476 37 18.286 36.8639 18.7673 36.604L31.982 29.4886C32.5068 29.2058 32.9453 28.7862 33.251 28.2744C33.5567 27.7625 33.7182 27.1775 33.7184 26.5813ZM31.3536 28.3257L18.1389 35.4431C17.8494 35.5947 17.5268 35.6723 17.2 35.6691C16.8732 35.6714 16.5509 35.5936 16.2611 35.4425L3.04641 28.3257C2.73105 28.1561 2.46753 27.9042 2.28383 27.5968C2.10013 27.2895 2.00312 26.9381 2.00311 26.58V10.4138C2.003 10.0556 2.09996 9.70411 2.28366 9.39662C2.46736 9.08913 2.73095 8.83716 3.04641 8.6675L16.2611 1.55072C16.5522 1.4009 16.8749 1.32273 17.2023 1.32273C17.5297 1.32273 17.8524 1.4009 18.1435 1.55072L31.3582 8.66684C31.6729 8.83716 31.9357 9.0895 32.1185 9.39707C32.3014 9.70465 32.3976 10.056 32.3969 10.4138V26.58C32.3969 26.9381 32.2999 27.2895 32.1162 27.5968C31.9325 27.9042 31.669 28.1561 31.3536 28.3257Z" fill="#FCE418"/>
<path d="M30.728 9.8312L17.5133 2.71442C17.4163 2.66554 17.3088 2.64104 17.2001 2.64306C17.0919 2.64111 16.9847 2.66512 16.8876 2.7131L3.67291 9.83186C3.56768 9.88835 3.47973 9.97232 3.41841 10.0748C3.3571 10.1773 3.32471 10.2945 3.32471 10.414V26.5802C3.32465 26.6995 3.35693 26.8167 3.41813 26.9192C3.47932 27.0217 3.56714 27.1057 3.67225 27.1623L16.887 34.2791C16.986 34.3217 17.0927 34.3437 17.2005 34.3437C17.3083 34.3437 17.415 34.3217 17.514 34.2791L30.7287 27.1603C30.8338 27.1039 30.9217 27.02 30.983 26.9176C31.0443 26.8152 31.0768 26.6982 31.0769 26.5788V10.414C31.077 10.2943 31.0445 10.177 30.9831 10.0743C30.9216 9.97169 30.8335 9.88766 30.728 9.8312ZM20.5038 26.4295C20.5038 26.9552 20.295 27.4594 19.9232 27.8312C19.5515 28.2029 19.0473 28.4117 18.5216 28.4117H15.8787C15.353 28.4117 14.8488 28.2029 14.477 27.8312C14.1053 27.4594 13.8965 26.9552 13.8965 26.4295V10.5719C13.8965 10.0462 14.1053 9.54198 14.477 9.17025C14.8488 8.79851 15.353 8.58967 15.8787 8.58967H18.5216C19.0473 8.58967 19.5515 8.79851 19.9232 9.17025C20.295 9.54198 20.5038 10.0462 20.5038 10.5719V26.4295Z" fill="#FCE418"/>
<path d="M18.5214 9.91101H15.8785C15.5136 9.91101 15.2178 10.2068 15.2178 10.5717V26.4294C15.2178 26.7943 15.5136 27.0901 15.8785 27.0901H18.5214C18.8864 27.0901 19.1822 26.7943 19.1822 26.4294V10.5717C19.1822 10.2068 18.8864 9.91101 18.5214 9.91101Z" fill="#FCE418"/>
</svg>
