<svg width="34" height="44" viewBox="0 0 34 44" fill="none" xmlns="http://www.w3.org/2000/svg">
<path d="M11.024 36.957C11.2351 37.1045 11.4773 37.2016 11.7318 37.2411L19.7456 38.4741C19.9538 38.5061 20.1541 38.5772 20.3359 38.6836L27.6211 42.9326C27.853 43.068 28.1094 43.1561 28.3755 43.1918C28.6416 43.2275 28.9122 43.2102 29.1716 43.1407C29.431 43.0713 29.674 42.9512 29.8867 42.7873C30.0994 42.6234 30.2775 42.419 30.4108 42.1858L33.414 36.9295C33.5765 36.645 33.6678 36.3256 33.6802 35.9982C33.6926 35.6709 33.6257 35.3454 33.4853 35.0495C33.3448 34.7536 33.1349 34.496 32.8734 34.2986C32.612 34.1013 32.3067 33.9701 31.9836 33.9162L23.7804 32.5488C23.3542 32.4788 22.9717 32.2463 22.7133 31.9001L21.6535 30.4898C21.2611 29.966 20.7749 29.5195 20.2197 29.1729L15.7397 26.3731L11.9554 23.2187C11.9223 23.191 11.8817 23.1735 11.8388 23.1685C11.7958 23.1635 11.7523 23.1711 11.7137 23.1905C11.4918 23.3015 11.2994 23.4636 11.1524 23.6634C11.0054 23.8633 10.908 24.0952 10.8682 24.3401C10.8284 24.5849 10.8473 24.8358 10.9234 25.0719C10.9995 25.308 11.1307 25.5227 11.306 25.6982L13.9251 28.3173C14.054 28.4462 14.1454 28.6077 14.1897 28.7844C14.234 28.9612 14.2295 29.1467 14.1767 29.3212C14.124 29.4956 14.0248 29.6524 13.8899 29.775C13.755 29.8975 13.5894 29.9812 13.4107 30.017L11.5525 30.3898V31.9612L14.0151 33.808H14.5745C14.6636 33.808 14.749 33.8434 14.812 33.9064C14.8749 33.9694 14.9103 34.0548 14.9103 34.1438C14.9103 34.2329 14.8749 34.3183 14.812 34.3813C14.749 34.4442 14.6636 34.4796 14.5745 34.4796H13.903C13.8303 34.4796 13.7596 34.456 13.7015 34.4124L11.0152 32.3977C10.9735 32.3665 10.9397 32.3259 10.9164 32.2793C10.8931 32.2327 10.8809 32.1812 10.8809 32.1291V30.1144C10.8809 29.6691 10.704 29.2421 10.3892 28.9272C10.0743 28.6124 9.64727 28.4355 9.20199 28.4355C9.11294 28.4355 9.02753 28.4709 8.96456 28.5338C8.90159 28.5968 8.86621 28.6822 8.86621 28.7713V32.0747L10.3316 36.4721L11.024 36.957ZM21.0525 37.2639L21.7274 36.5924C21.9088 36.412 22.0526 36.1975 22.1505 35.9612C22.2484 35.7248 22.2984 35.4714 22.2976 35.2156V34.1438C22.2976 34.0548 22.3329 33.9694 22.3959 33.9064C22.4589 33.8434 22.5443 33.808 22.6334 33.808C22.7224 33.808 22.8078 33.8434 22.8708 33.9064C22.9338 33.9694 22.9691 34.0548 22.9691 34.1438V35.213C22.9702 35.557 22.9029 35.8978 22.7713 36.2156C22.6396 36.5334 22.4462 36.8219 22.2022 37.0645L21.5306 37.7394C21.4994 37.7706 21.4624 37.7954 21.4216 37.8123C21.3808 37.8292 21.3371 37.8379 21.2929 37.8379C21.2488 37.8379 21.205 37.8292 21.1642 37.8123C21.1234 37.7954 21.0864 37.7706 21.0552 37.7394C21.0239 37.7082 20.9992 37.6711 20.9823 37.6303C20.9654 37.5895 20.9567 37.5458 20.9567 37.5017C20.9567 37.4575 20.9654 37.4138 20.9823 37.373C20.9992 37.3322 21.0239 37.2951 21.0552 37.2639H21.0525ZM16.5892 33.808H17.2608C17.3499 33.808 17.4353 33.8434 17.4982 33.9064C17.5612 33.9694 17.5966 34.0548 17.5966 34.1438C17.5966 34.2329 17.5612 34.3183 17.4982 34.3813C17.4353 34.4442 17.3499 34.4796 17.2608 34.4796H16.5892C16.5002 34.4796 16.4148 34.4442 16.3518 34.3813C16.2888 34.3183 16.2535 34.2329 16.2535 34.1438C16.2535 34.0548 16.2888 33.9694 16.3518 33.9064C16.4148 33.8434 16.5002 33.808 16.5892 33.808Z" fill="#FCE418"/>
<path d="M6.5025 31.3098V29.2951C6.5025 28.8499 6.32561 28.4228 6.01075 28.108C5.69589 27.7931 5.26885 27.6162 4.82358 27.6162C4.73452 27.6162 4.64911 27.6516 4.58614 27.7146C4.52317 27.7775 4.48779 27.8629 4.48779 27.952V31.2561L4.97938 32.7248L9.41173 35.8268L8.44669 32.9323L6.63681 31.5785C6.59511 31.5472 6.56126 31.5066 6.53795 31.46C6.51463 31.4134 6.5025 31.362 6.5025 31.3098Z" fill="#FCE418"/>
<path d="M5.25065 26.9903L5.08881 25.8487C5.03016 25.4491 4.8302 25.0839 4.52523 24.8192C4.22025 24.5545 3.83048 24.408 3.42668 24.4061H3.15805C3.06899 24.4061 2.98359 24.4415 2.92061 24.5045C2.85764 24.5674 2.82227 24.6529 2.82227 24.7419V28.6921L3.81619 30.6799V27.952C3.81619 27.6848 3.92232 27.4286 4.11123 27.2397C4.30015 27.0508 4.55637 26.9447 4.82354 26.9447C4.96701 26.9468 5.10997 26.9621 5.25065 26.9903Z" fill="#FCE418"/>
<path d="M0.72428 25.7211C0.675878 25.8416 0.66846 25.9747 0.70317 26.0998C0.73788 26.2249 0.81279 26.3352 0.916348 26.4135L2.15069 27.4007V25.4646C1.89132 25.3851 1.62357 25.3362 1.35287 25.3188C1.21862 25.3085 1.08466 25.3422 0.971251 25.4148C0.857842 25.4874 0.771148 25.5949 0.72428 25.7211Z" fill="#FCE418"/>
<path d="M11.3602 19.8287H19.3371L18.4141 18.0686C17.8306 16.9557 17.8292 15.6028 18.4101 14.4887L18.594 14.136C15.9426 10.8829 11.6053 9.24065 7.26851 10.1739C7.26008 8.49818 7.34474 6.82591 7.52266 4.97712C7.7085 3.04616 9.37874 1.5863 11.3669 1.5863H19.8341C21.831 1.5863 23.5061 3.05895 23.6838 5.00072C23.7524 5.74905 23.8062 6.46895 23.8454 7.17244C24.0043 7.14971 24.1658 7.13817 24.3289 7.13833C24.7134 7.13869 25.0886 7.20388 25.4423 7.32746C25.4012 6.52769 25.3417 5.70935 25.2635 4.85609C25.0067 2.05136 22.6037 0 19.8341 0H11.3669C8.61023 0 6.21237 2.03315 5.94366 4.82515C5.59527 8.4452 5.59443 11.4272 5.94037 15.0112C6.20964 17.8009 8.6073 19.8287 11.3602 19.8287Z" fill="#FCE418"/>
<path d="M17.5786 5.15544C17.5786 3.84132 18.6439 2.776 19.9581 2.776C21.2722 2.776 22.3375 3.84132 22.3375 5.15544C22.3375 6.46957 21.2722 7.53489 19.9581 7.53489C18.6439 7.53489 17.5786 6.46957 17.5786 5.15544Z" fill="#FCE418"/>
<path d="M26.3799 9.94372C25.4647 8.31995 23.1918 8.31769 22.2738 9.94027L19.3918 15.0343C19.2942 15.2068 19.2187 15.3886 19.165 15.5754L23.8764 16.8964C24.1667 16.9778 24.4743 16.9778 24.7646 16.8964L29.476 15.5754C29.4227 15.3898 29.3477 15.2092 29.2511 15.0378L26.3799 9.94372Z" fill="#FCE418"/>
<path d="M19.395 17.5184C19.3459 17.432 19.3022 17.3433 19.2642 17.2528L23.4325 18.4215C24.0131 18.5843 24.6284 18.5843 25.2089 18.4215L29.3773 17.2528C29.3397 17.3421 29.2967 17.4297 29.2484 17.515L26.3771 22.5804C25.4607 24.1972 23.1962 24.1995 22.277 22.5838L19.395 17.5184Z" fill="#FCE418"/>
</svg>
