<svg width="51" height="27" viewBox="0 0 51 27" fill="none" xmlns="http://www.w3.org/2000/svg">
<path d="M49.994 6.79275C50.032 6.61537 49.9953 6.39651 49.7019 6.22115C49.5722 6.1436 49.4474 6.07841 49.3306 6.02279C49.3826 6.04414 49.4343 6.06642 49.4851 6.0906C49.5944 6.14129 49.7002 6.20138 49.7943 6.2767C49.8876 6.35119 49.9723 6.44607 50.0029 6.56488C49.9729 6.446 49.8883 6.3505 49.7953 6.27549C49.7014 6.19963 49.5957 6.13888 49.4865 6.0877C49.4173 6.05451 49.3466 6.02496 49.2753 5.99665C48.8831 5.81654 48.6004 5.75551 48.6004 5.75551C48.6004 5.75551 48.6111 5.76147 48.6296 5.77197C48.5749 5.75369 48.5204 5.73492 48.4664 5.71481C48.3535 5.67265 48.2433 5.62286 48.1325 5.57513C47.9112 5.4787 47.6902 5.38124 47.4713 5.2793C47.2522 5.17785 47.0345 5.07357 46.8182 4.96647C46.6014 4.86012 46.3885 4.7473 46.1736 4.63627C45.745 4.4138 45.3049 4.21048 44.8586 4.02441C44.6351 3.93188 44.41 3.84337 44.1827 3.7602C43.9555 3.67696 43.727 3.59703 43.4963 3.52371C43.0355 3.37491 42.5684 3.24483 42.0948 3.13887C41.858 3.08525 41.6178 3.04427 41.3822 2.99895C41.1462 2.95328 40.91 2.90379 40.6746 2.85245C40.2123 2.75092 39.7506 2.64299 39.2912 2.52986C39.0222 2.2557 38.7495 1.98812 38.4581 1.73338C38.3823 1.66908 38.307 1.60482 38.2243 1.54438C38.2038 1.52919 38.1838 1.51377 38.161 1.49944C38.1367 1.48425 38.1218 1.47154 38.0897 1.45446C38.0668 1.44296 38.0495 1.43167 38.0222 1.41999C37.9941 1.409 37.9647 1.39544 37.9369 1.388C37.8819 1.37198 37.8251 1.36041 37.7679 1.35779C37.7106 1.35287 37.6538 1.35831 37.5978 1.36575C37.5423 1.37546 37.4878 1.38889 37.4354 1.40811C37.3817 1.42863 37.3355 1.44826 37.2793 1.48394L37.2545 1.49968L37.2405 1.52895C37.1765 1.66295 37.1225 1.79333 37.0697 1.92751C37.0529 1.97021 37.037 2.01326 37.0208 2.05624C36.886 2.15425 36.6796 2.29679 36.4165 2.45465C36.1727 2.59977 35.8815 2.75815 35.5573 2.89914C35.2334 3.03962 34.8771 3.16563 34.5108 3.24043C34.4 3.26336 34.2888 3.28013 34.1777 3.29367C33.9276 2.7014 33.49 1.34622 34.1639 0.289558C34.1639 0.289558 34.2639 0.161655 34.2053 0.0824473C34.1466 0.00316991 34.0667 -0.0275834 33.9894 0.0289298C33.9894 0.0289298 32.6491 1.21119 32.9545 3.25148C32.9445 3.24986 32.9338 3.24903 32.9239 3.24735C32.8447 3.2364 32.7688 3.22162 32.6961 3.20516C32.6226 3.19139 32.5535 3.17258 32.4875 3.15405C32.355 3.11848 32.2396 3.07316 32.1409 3.02946C32.0449 2.98207 31.9648 2.93606 31.9095 2.89074C31.854 2.84625 31.8169 2.80737 31.8002 2.78185C31.7821 2.75519 31.7818 2.74979 31.7847 2.7576L31.7766 2.7607L31.709 2.64768C31.5455 2.24551 31.4301 2.14853 31.2513 2.14013C30.9733 2.12704 30.6859 2.5029 30.6859 2.5029L30.0365 3.19586L29.8457 3.80803L25.8344 8.06166L25.8132 8.22046L25.9142 8.31509L25.3478 8.92348L24.7815 8.31509L24.8824 8.22046L24.8612 8.06166L20.8499 3.80803L20.6591 3.19586L20.0098 2.5029C20.0098 2.5029 19.7223 2.12704 19.4443 2.14013C19.2655 2.14853 19.1502 2.24551 18.9867 2.64768L18.9191 2.7607L18.9109 2.7576C18.9138 2.74979 18.9135 2.75519 18.8954 2.78185C18.8787 2.80737 18.8416 2.84625 18.7862 2.89074C18.7307 2.93606 18.6507 2.98207 18.5547 3.02946C18.4561 3.07316 18.3406 3.11848 18.2081 3.15405C18.1421 3.17258 18.073 3.19139 17.9995 3.20516C17.9268 3.22162 17.8509 3.2364 17.7717 3.24735C17.7618 3.24903 17.7512 3.24986 17.7412 3.25148C18.0466 1.21119 16.7062 0.0289298 16.7062 0.0289298C16.629 -0.0275834 16.549 0.00316991 16.4904 0.0824473C16.4318 0.161655 16.5317 0.289558 16.5317 0.289558C17.2055 1.34622 16.768 2.7014 16.518 3.29367C16.4069 3.28013 16.2956 3.26336 16.1848 3.24043C15.8186 3.16563 15.4622 3.03962 15.1383 2.89914C14.8141 2.75815 14.523 2.59977 14.2791 2.45465C14.016 2.29679 13.8096 2.15425 13.6748 2.05624C13.6587 2.01326 13.6427 1.97021 13.6259 1.92751C13.5731 1.79333 13.5191 1.66295 13.4551 1.52895L13.4411 1.49968L13.4163 1.48394C13.3601 1.44826 13.314 1.42863 13.2602 1.40811C13.2078 1.38889 13.1533 1.37546 13.0978 1.36575C13.0419 1.35831 12.985 1.35287 12.9277 1.35779C12.8705 1.36041 12.8137 1.37198 12.7587 1.388C12.7309 1.39544 12.7015 1.409 12.6734 1.41999C12.6461 1.43167 12.6288 1.44296 12.6059 1.45446C12.5738 1.47154 12.5589 1.48425 12.5346 1.49944C12.5118 1.51377 12.4918 1.52919 12.4713 1.54438C12.3886 1.60482 12.3134 1.66908 12.2375 1.73338C11.9461 1.98812 11.6735 2.2557 11.4044 2.52986C10.945 2.64299 10.4834 2.75092 10.021 2.85245C9.78564 2.90379 9.5494 2.95328 9.31346 2.99895C9.07787 3.04427 8.83759 3.08525 8.60076 3.13887C8.12724 3.24483 7.66012 3.37491 7.19937 3.52371C6.96864 3.59703 6.74014 3.67696 6.51292 3.7602C6.28566 3.84337 6.06047 3.93188 5.83696 4.02441C5.39075 4.21048 4.95066 4.4138 4.52201 4.63627C4.30715 4.7473 4.09425 4.86012 3.87743 4.96647C3.66109 5.07357 3.44337 5.17785 3.22428 5.2793C3.00539 5.38124 2.78447 5.4787 2.56313 5.57513C2.45224 5.62286 2.34211 5.67265 2.22922 5.71481C2.17522 5.73492 2.12074 5.75369 2.06602 5.77197C2.08458 5.76147 2.09526 5.75551 2.09526 5.75551C2.09526 5.75551 1.81252 5.81654 1.42034 5.99665C1.34905 6.02496 1.27832 6.05451 1.20916 6.0877C1.09989 6.13888 0.99427 6.19963 0.900254 6.27549C0.807306 6.3505 0.722725 6.446 0.692661 6.56488C0.723311 6.44607 0.808098 6.35119 0.901287 6.2767C0.995407 6.20138 1.10117 6.14129 1.21054 6.0906C1.26137 6.06642 1.313 6.04414 1.36503 6.02279C1.24822 6.07841 1.12334 6.1436 0.99365 6.22115C0.700341 6.39651 0.663664 6.61537 0.701649 6.79275C0.690732 6.75584 0.683569 6.71799 0.681641 6.67994C0.683569 6.72026 0.69087 6.76035 0.70282 6.79947C0.743457 6.97958 0.860134 7.1152 0.860134 7.1152L4.67963 11.2507C4.78619 11.3555 4.90145 11.4572 5.04358 11.5232C5.0776 11.5423 5.11783 11.5495 5.15481 11.5627C5.19335 11.5714 5.23405 11.5749 5.27369 11.5782C5.3134 11.5734 5.35504 11.5753 5.39326 11.5636C5.43056 11.5502 5.47226 11.5446 5.50587 11.5237C5.77191 11.3585 5.94923 11.131 6.1487 10.8921C6.33893 10.6643 6.52373 10.4325 6.70997 10.2029C7.08204 9.74372 7.46138 9.29069 7.89482 8.89696L8.05826 8.75322C8.11381 8.7059 8.1727 8.65982 8.22979 8.61305C8.28476 8.5689 8.3462 8.52599 8.40398 8.48246C8.46232 8.43849 8.52125 8.39551 8.58265 8.35587C8.82248 8.18919 9.0767 8.04393 9.33609 7.91038C9.59599 7.77751 9.86395 7.66011 10.1377 7.5598C10.3983 7.46547 10.6684 7.38141 10.9327 7.32296L12.2305 7.97498L12.6652 8.55478C12.6676 8.55513 12.67 8.55506 12.6725 8.55537C12.5668 8.69199 12.4346 8.87409 12.3121 9.10948C12.2403 9.24854 12.1688 9.40499 12.1249 9.58462C11.8272 10.8 13.0241 11.8398 14.0219 12.2651C14.5599 12.4944 15.2131 12.6594 15.8001 12.6072C16.0792 12.5824 16.3544 12.5114 16.6098 12.3959C16.8769 12.2751 17.0908 12.0938 17.3093 11.9015C17.3442 11.8735 17.379 11.8453 17.4144 11.8183C17.5034 11.751 17.5948 11.6847 17.6966 11.6508C17.7478 11.6336 17.7989 11.6265 17.8555 11.6243C17.9088 11.622 17.9649 11.6245 18.0197 11.63C18.1263 11.6408 18.2337 11.6614 18.3365 11.6896L19.6765 13.1248L19.6783 13.1268C19.6812 13.1299 19.6847 13.1325 19.6886 13.1345C19.7403 13.1608 19.7768 13.1628 19.8196 13.1653C19.8607 13.1663 19.9004 13.161 19.9386 13.1524C19.9769 13.1441 20.0129 13.1311 20.0483 13.1172C20.0668 13.1083 20.0804 13.1046 20.1027 13.0915C20.118 13.0822 20.1327 13.075 20.1486 13.064C20.1809 13.0415 20.2137 13.018 20.2403 12.9955L22.1177 11.6851L22.5695 12.1675C22.3473 12.4073 22.1257 12.6476 21.8992 12.8834L13.4046 21.9305C12.8505 22.2004 12.2375 22.4161 11.6855 22.6901C11.6729 22.6964 11.6612 22.7053 11.6521 22.715L11.1223 23.2777C10.7816 23.4056 10.4421 23.535 10.1032 23.6687L9.8924 23.7205L9.76205 23.7749C9.7179 23.7943 9.67661 23.8112 9.6275 23.8347C9.60291 23.8459 9.58039 23.857 9.5609 23.8678L9.54547 23.876C9.53073 23.884 9.53008 23.8859 9.52178 23.8911C9.5091 23.9004 9.49498 23.9088 9.48389 23.9192C9.43575 23.9585 9.39821 24.0042 9.36749 24.051C9.33671 24.098 9.31225 24.1464 9.29183 24.1956C9.27127 24.2461 9.25574 24.2916 9.24221 24.3507C9.23222 24.3945 9.24782 24.4384 9.27926 24.4665L9.28174 24.4687L10.0989 25.2908L10.0551 25.361C10.0226 25.4131 10.0323 25.4795 10.0749 25.5203L11.5153 26.9634C11.5679 27.0137 11.6514 27.012 11.7018 26.9594L22.058 15.9486L23.1939 15.9091C23.2014 15.9154 23.2088 15.9219 23.2161 15.9276C23.2373 15.9447 23.2584 15.9595 23.2795 15.9741C23.3218 16.0029 23.3644 16.0282 23.4074 16.0521C23.45 16.0761 23.4939 16.098 23.5382 16.1197L23.6036 16.1499C23.6278 16.1596 23.6514 16.1709 23.6761 16.179C23.7741 16.2143 23.8763 16.2358 23.9791 16.2435C24.0305 16.2474 24.082 16.2477 24.1335 16.245C24.1594 16.2436 24.1851 16.2414 24.2112 16.2381C24.2382 16.2346 24.2608 16.2312 24.2939 16.2235C24.3159 16.2186 24.335 16.2071 24.3494 16.1918L25.3415 15.141L25.3478 15.1343L25.3542 15.141L26.3462 16.1918C26.3606 16.2071 26.3797 16.2186 26.4017 16.2235C26.4348 16.2312 26.4575 16.2346 26.4845 16.2381C26.5105 16.2414 26.5363 16.2436 26.5621 16.245C26.6137 16.2477 26.6652 16.2474 26.7166 16.2435C26.8194 16.2358 26.9216 16.2143 27.0195 16.179C27.0443 16.1709 27.0678 16.1596 27.092 16.1499L27.1574 16.1197C27.2017 16.098 27.2456 16.0761 27.2882 16.0521C27.3312 16.0282 27.3738 16.0029 27.4161 15.9741C27.4373 15.9595 27.4583 15.9447 27.4795 15.9276C27.4869 15.9219 27.4943 15.9154 27.5017 15.9091L28.6376 15.9486L38.9938 26.9594C39.0442 27.012 39.1277 27.0137 39.1804 26.9634L40.6208 25.5203C40.6634 25.4795 40.673 25.4131 40.6406 25.361L40.5968 25.2908L41.4139 24.4687L41.4163 24.4665C41.4478 24.4384 41.4634 24.3945 41.4534 24.3507C41.4399 24.2916 41.4243 24.2461 41.4038 24.1956C41.3834 24.1464 41.3589 24.098 41.3281 24.051C41.2974 24.0042 41.2599 23.9585 41.2117 23.9192C41.2006 23.9088 41.1865 23.9004 41.1738 23.8911C41.1656 23.8859 41.1649 23.884 41.1501 23.876L41.1347 23.8678C41.1152 23.857 41.0927 23.8459 41.0682 23.8347C41.019 23.8112 40.9777 23.7943 40.9336 23.7749L40.8032 23.7205L40.5925 23.6687C40.2535 23.535 39.914 23.4056 39.5733 23.2777L39.0435 22.715C39.0344 22.7053 39.0228 22.6964 39.0102 22.6901C38.4581 22.4161 37.8452 22.2004 37.291 21.9305L28.7964 12.8834C28.5699 12.6476 28.3483 12.4073 28.1261 12.1675L28.578 11.6851L30.4554 12.9955C30.482 13.018 30.5147 13.0415 30.5471 13.064C30.5629 13.075 30.5776 13.0822 30.5929 13.0915C30.6152 13.1046 30.6289 13.1083 30.6473 13.1172C30.6827 13.1311 30.7187 13.1441 30.7571 13.1524C30.7953 13.161 30.8349 13.1663 30.876 13.1653C30.9189 13.1628 30.9553 13.1608 31.007 13.1345C31.011 13.1325 31.0144 13.1299 31.0173 13.1268L31.0192 13.1248L32.3591 11.6896C32.4619 11.6614 32.5693 11.6408 32.676 11.63C32.7308 11.6245 32.7868 11.622 32.8402 11.6243C32.8967 11.6265 32.9478 11.6336 32.999 11.6508C33.1009 11.6847 33.1923 11.751 33.2812 11.8183C33.3166 11.8453 33.3514 11.8735 33.3863 11.9015C33.6048 12.0938 33.8187 12.2751 34.0858 12.3959C34.3412 12.5114 34.6164 12.5824 34.8956 12.6072C35.4825 12.6594 36.1357 12.4944 36.6736 12.2651C37.6715 11.8398 38.8685 10.8 38.5708 9.58462C38.5268 9.40499 38.4553 9.24854 38.3835 9.10948C38.261 8.87409 38.1288 8.69199 38.0232 8.55537C38.0256 8.55506 38.028 8.55513 38.0304 8.55478L38.4651 7.97498L39.7629 7.32296C40.0272 7.38141 40.2974 7.46547 40.5579 7.5598C40.8317 7.66011 41.0996 7.77751 41.3595 7.91038C41.6189 8.04393 41.8731 8.18919 42.1129 8.35587C42.1744 8.39551 42.2333 8.43849 42.2916 8.48246C42.3495 8.52599 42.4109 8.5689 42.4659 8.61305C42.5229 8.65982 42.5818 8.7059 42.6374 8.75322L42.8008 8.89696C43.2342 9.29069 43.6136 9.74372 43.9857 10.2029C44.1719 10.4325 44.3567 10.6643 44.547 10.8921C44.7464 11.131 44.9237 11.3585 45.1898 11.5237C45.2233 11.5446 45.2651 11.5502 45.3023 11.5636C45.3406 11.5753 45.3822 11.5734 45.4219 11.5782C45.4616 11.5749 45.5023 11.5714 45.5408 11.5627C45.5778 11.5495 45.618 11.5423 45.652 11.5232C45.7942 11.4572 45.9095 11.3555 46.016 11.2507L49.8355 7.1152C49.8355 7.1152 49.9522 6.97958 49.9928 6.79947C50.0048 6.76035 50.012 6.72026 50.014 6.67994C50.0121 6.71799 50.0049 6.75584 49.994 6.79275ZM17.0419 10.7905C17.0392 10.828 17.0366 10.8651 17.034 10.9018C17.0303 10.9385 17.0199 10.9738 17.0138 11.0094C17.0055 11.0446 17.0024 11.0808 16.99 11.1141C16.9783 11.1475 16.9667 11.1806 16.9552 11.2131C16.9362 11.2802 16.8997 11.3377 16.8713 11.3966C16.8446 11.4566 16.8052 11.5068 16.7714 11.5573C16.7062 11.6612 16.6302 11.7434 16.5581 11.811L16.5559 11.813C16.5194 11.8387 16.4828 11.8643 16.4449 11.8878C16.1537 12.0808 15.8436 12.1463 15.4954 12.1196C15.236 12.0996 14.9495 12.0518 14.7032 11.9668C14.579 11.9237 14.4448 11.8735 14.3086 11.812C14.1693 11.7502 14.0339 11.675 13.8989 11.5816C13.7593 11.4325 13.557 11.3204 13.4058 11.178C13.2484 11.0297 13.1117 10.8842 12.9899 10.7064C12.851 10.5036 12.7677 10.2608 12.7586 10.0132C12.7572 9.97405 12.7526 9.93871 12.7541 9.89673L12.7545 9.83619C12.7549 9.82765 12.754 9.81277 12.7553 9.80957L12.7583 9.7825C12.7632 9.71073 12.7794 9.64034 12.7984 9.57281C12.8375 9.43723 12.8997 9.31421 12.9625 9.2047C13.1781 8.82822 13.4691 8.49693 13.8299 8.2529C14.1341 8.04689 14.4098 7.98883 14.7633 8.04992C14.7869 8.05364 14.8107 8.05608 14.8341 8.0608L14.904 8.0783C14.9427 8.08904 14.9822 8.0972 15.0205 8.11005L15.0036 8.37181C14.8748 8.34134 14.7992 8.33459 14.7992 8.33459L14.8018 8.3434C14.798 8.34285 14.7954 8.34251 14.7954 8.34251L14.8832 8.62614L14.9285 8.78349L14.9294 8.78641L14.9317 8.78838C14.0115 10.2494 14.7637 11.5268 14.7637 11.5268C14.8043 11.5833 14.8666 11.5802 14.9252 11.5386C14.9837 11.497 14.9435 11.3858 14.9435 11.3858C14.7222 10.5253 15.2942 9.70743 15.6081 9.33856L16.0283 9.68029C16.0789 9.6911 16.1293 9.68852 16.1771 9.67347C16.2015 9.66624 16.2251 9.65515 16.246 9.64082C16.2569 9.63432 16.2672 9.62684 16.2763 9.61796C16.2857 9.60948 16.2959 9.60184 16.3035 9.59172C16.3208 9.57319 16.3354 9.5528 16.3478 9.53103C16.3616 9.5101 16.3696 9.4862 16.3808 9.46409C16.3885 9.44053 16.3966 9.41705 16.4034 9.39335L16.4125 9.35168C16.4514 9.39645 16.4897 9.44212 16.5264 9.48978C16.6275 9.61417 16.7154 9.7512 16.797 9.89085L16.8527 9.99843L16.8806 10.0521L16.9037 10.1078L16.9497 10.2189L16.9845 10.3328L17.0017 10.3896L17.0128 10.4474C17.0199 10.4858 17.027 10.5242 17.0341 10.5623C17.0366 10.6008 17.0391 10.6391 17.0416 10.6772L17.0451 10.7342C17.0455 10.753 17.0428 10.7718 17.0419 10.7905ZM37.937 10.0132C37.9279 10.2608 37.8446 10.5036 37.7057 10.7064C37.584 10.8842 37.4472 11.0297 37.2898 11.178C37.1386 11.3204 36.9364 11.4325 36.7967 11.5816C36.6617 11.675 36.5263 11.7502 36.387 11.812C36.2508 11.8735 36.1166 11.9237 35.9924 11.9668C35.7462 12.0518 35.4596 12.0996 35.2002 12.1196C34.8521 12.1463 34.5419 12.0808 34.2507 11.8878C34.2128 11.8643 34.1763 11.8387 34.1397 11.813L34.1375 11.811C34.0655 11.7434 33.9894 11.6612 33.9242 11.5573C33.8905 11.5068 33.8511 11.4566 33.8243 11.3966C33.796 11.3377 33.7594 11.2802 33.7404 11.2131C33.729 11.1806 33.7173 11.1475 33.7056 11.1141C33.6932 11.0808 33.6901 11.0446 33.6819 11.0094C33.6758 10.9738 33.6653 10.9385 33.6617 10.9018C33.6591 10.8651 33.6564 10.828 33.6538 10.7905C33.6528 10.7718 33.6502 10.753 33.6505 10.7342L33.6541 10.6772C33.6565 10.6391 33.659 10.6008 33.6615 10.5623C33.6686 10.5242 33.6757 10.4858 33.6829 10.4474L33.6939 10.3896L33.7111 10.3328L33.7459 10.2189L33.7919 10.1078L33.815 10.0521L33.843 9.99843L33.8986 9.89085C33.9803 9.7512 34.0681 9.61417 34.1693 9.48978C34.2059 9.44212 34.2442 9.39645 34.2832 9.35168L34.2922 9.39335C34.2991 9.41705 34.3071 9.44053 34.3148 9.46409C34.326 9.4862 34.334 9.5101 34.3478 9.53103C34.3602 9.5528 34.3748 9.57319 34.3921 9.59172C34.3997 9.60184 34.4099 9.60948 34.4193 9.61796C34.4284 9.62684 34.4387 9.63432 34.4497 9.64082C34.4706 9.65515 34.4941 9.66624 34.5185 9.67347C34.5663 9.68852 34.6168 9.6911 34.6673 9.68029L35.0875 9.33856C35.4014 9.70743 35.9734 10.5253 35.7521 11.3858C35.7521 11.3858 35.7119 11.497 35.7705 11.5386C35.8289 11.5802 35.8913 11.5833 35.932 11.5268C35.932 11.5268 36.684 10.2494 35.7639 8.78838L35.7663 8.78641L35.7672 8.78349L35.8124 8.62614L35.9002 8.34251C35.9002 8.34251 35.8976 8.34285 35.8939 8.3434L35.8964 8.33459C35.8964 8.33459 35.8208 8.34134 35.6921 8.37181L35.6751 8.11005C35.7134 8.0972 35.753 8.08904 35.7917 8.0783L35.8615 8.0608C35.885 8.05608 35.9088 8.05364 35.9323 8.04992C36.2858 7.98883 36.5615 8.04689 36.8658 8.2529C37.2265 8.49693 37.5174 8.82822 37.7332 9.2047C37.7959 9.31421 37.8581 9.43723 37.8972 9.57281C37.9163 9.64034 37.9324 9.71073 37.9373 9.7825L37.9403 9.80957C37.9417 9.81277 37.9408 9.82765 37.9411 9.83619L37.9415 9.89673C37.943 9.93871 37.9385 9.97405 37.937 10.0132Z" fill="#FCE418"/>
</svg>
