<svg width="29" height="37" viewBox="0 0 29 37" fill="none" xmlns="http://www.w3.org/2000/svg">
<path fill-rule="evenodd" clip-rule="evenodd" d="M15.014 26.0422L17.0358 29.0462C17.0497 29.0668 17.0654 29.0858 17.0829 29.1032C17.1003 29.1207 17.1193 29.1364 17.1399 29.1502L20.1439 31.1721C20.2334 31.2324 20.2871 31.3333 20.2871 31.4412C20.2871 31.5491 20.2334 31.65 20.1439 31.7103L17.1399 33.7322C17.1193 33.746 17.1003 33.7616 17.0829 33.7792C17.0654 33.7966 17.0497 33.8156 17.0358 33.8362L15.014 36.8402C14.9537 36.9297 14.8528 36.9834 14.7449 36.9834C14.637 36.9834 14.5361 36.9297 14.4758 36.8402L12.4539 33.8362C12.4401 33.8156 12.4243 33.7966 12.4069 33.7792C12.3895 33.7616 12.3705 33.746 12.3499 33.7322L9.3459 31.7103C9.2562 31.65 9.20264 31.5491 9.20264 31.4412C9.20264 31.3333 9.2562 31.2324 9.3459 31.1721L12.3499 29.1502C12.3705 29.1364 12.3895 29.1207 12.4069 29.1032C12.4243 29.0858 12.4401 29.0668 12.4539 29.0462L14.4758 26.0422C14.5361 25.9525 14.637 25.8988 14.7449 25.8988C14.8528 25.8988 14.9537 25.9525 15.014 26.0422ZM14.7449 26.8043L12.9921 29.4086C12.955 29.4637 12.9127 29.5151 12.8658 29.5621C12.8188 29.609 12.7674 29.6514 12.7123 29.6884L10.108 31.4412L12.7123 33.1938C12.7674 33.231 12.8188 33.2734 12.8658 33.3203C12.9127 33.3673 12.955 33.4187 12.9921 33.4738L14.7449 36.0781L16.4975 33.4738C16.5347 33.4187 16.5771 33.3673 16.624 33.3203C16.671 33.2734 16.7224 33.231 16.7775 33.1938L19.3818 31.4412L16.7775 29.6884C16.7224 29.6514 16.671 29.609 16.624 29.5621C16.5771 29.5151 16.5347 29.4637 16.4975 29.4086L14.7449 26.8043Z" fill="#FCE418"/>
<path fill-rule="evenodd" clip-rule="evenodd" d="M12.4034 9.85818L9.1504 8.2675C9.12829 8.25675 9.10508 8.24803 9.08126 8.24165C9.05743 8.23526 9.03299 8.23121 9.00838 8.2295L5.39583 7.98051C5.28822 7.97319 5.19121 7.91261 5.13718 7.81918C5.0833 7.72559 5.07925 7.61145 5.12674 7.51443L6.71743 4.26144C6.72833 4.23917 6.73689 4.21612 6.74327 4.19214C6.74966 4.16832 6.75371 4.14402 6.75542 4.11942L7.00442 0.506867C7.01189 0.399109 7.07231 0.302095 7.1659 0.248215C7.25933 0.19418 7.37363 0.190288 7.47049 0.237627L10.7236 1.82831C10.7458 1.83921 10.769 1.84793 10.7928 1.85431C10.8166 1.8607 10.8409 1.86475 10.8657 1.86646L14.4781 2.1153C14.5858 2.12278 14.6828 2.18335 14.7367 2.27678C14.7907 2.37037 14.7946 2.48451 14.7473 2.58153L13.1566 5.83452C13.1457 5.85664 13.137 5.87984 13.1306 5.90366C13.1242 5.92749 13.1202 5.95194 13.1185 5.97654L12.8696 9.5891C12.8621 9.69685 12.8017 9.79371 12.7081 9.84775C12.6147 9.90178 12.5004 9.90567 12.4034 9.85818ZM12.2555 9.06354L12.4713 5.93201C12.4758 5.86567 12.4867 5.79995 12.504 5.7358C12.5211 5.67164 12.5445 5.6092 12.5738 5.54956L13.9527 2.72946L10.821 2.51379C10.7546 2.50912 10.6891 2.49822 10.6248 2.48093C10.5606 2.4638 10.4983 2.44045 10.4385 2.41133L7.61858 1.03227L7.40275 4.16396C7.39823 4.23029 7.38718 4.29601 7.37005 4.36016C7.35292 4.42432 7.32956 4.48676 7.30029 4.54641L5.92138 7.36634L9.05307 7.58217C9.11925 7.58669 9.18497 7.59774 9.24912 7.61487C9.31344 7.63216 9.37572 7.65552 9.43552 7.68464L12.2555 9.06354Z" fill="#FCE418"/>
<path fill-rule="evenodd" clip-rule="evenodd" d="M23.1455 11.4231C23.4862 11.3507 23.8397 11.3125 24.2017 11.3125C25.2704 11.3125 26.2623 11.6442 27.08 12.2099C26.9757 12.6618 26.8396 13.1128 26.6714 13.5605C25.7301 16.0663 23.4566 18.5778 21.0487 20.3463C20.2919 19.7437 19.711 18.9289 19.3965 17.9924C20.7746 16.8371 21.992 15.2798 22.6004 13.7428C22.9053 12.9728 23.0914 12.19 23.1455 11.4231Z" fill="#FCE418"/>
<path fill-rule="evenodd" clip-rule="evenodd" d="M25.8195 16.4679C27.5404 18.2177 28.5203 20.4422 28.6712 22.8473C28.6714 22.849 28.6715 22.8509 28.6715 22.8526C28.8322 26.3527 27.0148 29.6079 23.9527 31.8623C21.9067 33.3687 19.2609 34.3557 16.3389 34.6641C16.2136 34.6774 16.0918 34.6168 16.0269 34.5087C15.9618 34.4008 15.9654 34.2649 16.0356 34.1604L16.4976 33.4738C16.5348 33.4187 16.5772 33.3673 16.6241 33.3203C16.6711 33.2734 16.7225 33.231 16.7776 33.1938L19.3819 31.4412L16.7776 29.6884C16.7225 29.6513 16.6711 29.609 16.6241 29.5621C16.5772 29.5151 16.5348 29.4637 16.4976 29.4086L14.745 26.8043L12.9922 29.4086C12.9551 29.4637 12.9128 29.5151 12.8659 29.5621C12.8189 29.609 12.7675 29.6513 12.7124 29.6884L10.1081 31.4412L12.7124 33.1938C12.7675 33.231 12.8189 33.2734 12.8659 33.3203C12.9128 33.3673 12.9551 33.4187 12.9922 33.4738L13.4519 34.1568C13.5224 34.2614 13.5257 34.3975 13.4604 34.5056C13.3952 34.6137 13.2733 34.6741 13.1478 34.6604C10.207 34.341 7.54945 33.3383 5.498 31.8141C2.46379 29.5598 0.653383 26.3314 0.819069 22.8521C0.819069 22.8509 0.819069 22.8496 0.819225 22.8484C0.982731 20.0937 2.25154 17.5779 4.47086 15.7385C7.00443 13.6388 11.2897 12.5299 14.7092 12.5238C16.9494 12.5198 19.5718 12.9845 21.8281 13.8956C21.3794 14.8589 20.691 15.8133 19.8912 16.6434C18.2985 15.8254 16.3709 15.3424 14.7088 15.3377C12.4861 15.3315 9.76956 16.1727 8.0272 17.5416C6.27706 18.9166 5.21552 20.801 5.339 22.8481C5.33916 22.8493 5.33916 22.8507 5.33932 22.8521C5.43073 24.772 6.738 26.3319 8.49888 27.4501C8.73994 27.603 8.99127 27.7464 9.25163 27.8796C9.64078 28.0793 10.1148 28.0049 10.4241 27.6957C11.2392 26.8842 12.6404 25.483 13.5724 24.551C13.8834 24.2401 14.3052 24.0653 14.745 24.0653C15.1847 24.0653 15.6066 24.2401 15.9176 24.551L19.0013 27.6348C19.3144 27.9481 19.795 28.0206 20.1866 27.814C20.4275 27.6841 20.6616 27.5479 20.8867 27.4035C22.6238 26.2898 23.9217 24.7519 24.0089 22.8526C24.0089 22.8507 24.0091 22.8489 24.0092 22.847C24.0849 21.6511 23.7523 20.5098 23.1124 19.494C24.1248 18.5739 25.0586 17.5446 25.8195 16.4679Z" fill="#FCE418"/>
<path fill-rule="evenodd" clip-rule="evenodd" d="M1.51761 18.2439C0.303146 15.5406 0.440958 12.3574 1.74231 9.3484C2.75683 7.00279 4.55696 4.80557 6.94399 3.0587C7.04583 2.98411 7.18162 2.97539 7.29218 3.03644C7.40274 3.09732 7.46784 3.21691 7.45927 3.34274L7.40259 4.16401C7.39807 4.23034 7.38702 4.29606 7.36989 4.36021C7.35276 4.42437 7.3294 4.48681 7.30012 4.54645L5.92122 7.36639L9.05291 7.58222C9.11909 7.58674 9.18481 7.59779 9.24896 7.61492C9.31328 7.63221 9.37556 7.65557 9.43536 7.68469L12.2553 9.06359L12.4711 5.93205C12.4756 5.86572 12.4865 5.8 12.5038 5.73585C12.521 5.67169 12.5443 5.60925 12.5736 5.5496L13.9525 2.72951L10.8208 2.51384C10.7545 2.50917 10.6889 2.49827 10.6246 2.48098C10.5604 2.46385 10.4982 2.44049 10.4384 2.41137L9.6951 2.04777C9.58174 1.99249 9.51088 1.87647 9.51322 1.7505C9.51556 1.62452 9.59061 1.51116 9.70569 1.45992C12.3906 0.266016 15.1754 -0.202079 17.7004 0.0794629C21.4795 0.500842 24.681 2.41106 26.2919 5.52251C26.2927 5.52422 26.2935 5.52578 26.2943 5.52749C27.5296 8.01466 27.6915 10.8449 26.6714 13.5605C25.5115 16.6483 22.3287 19.7446 19.3646 21.449C16.4001 23.1533 12.1345 24.3357 8.8905 23.784C7.85278 23.6074 6.87999 23.2893 5.9888 22.8445C5.98849 22.8367 5.98803 22.8291 5.98771 22.8213C5.98756 22.8171 5.98725 22.8131 5.98709 22.809C5.90067 21.3767 6.47481 20.0408 7.47531 18.9361C8.43969 19.7395 9.68685 20.2462 11.0689 20.4442C13.2622 20.7586 16.0356 20.1289 17.9573 19.0122C19.8791 17.8954 21.7858 15.8008 22.6004 13.7428C23.4122 11.692 23.3824 9.55115 22.2569 7.85863C22.256 7.85707 22.2549 7.85551 22.2539 7.85395C21.2287 6.25268 19.3357 5.56985 17.2746 5.47377C17.0074 5.46147 16.7366 5.46053 16.463 5.46847C16.0206 5.48514 15.6407 5.78848 15.526 6.21624L14.3974 10.4286C14.2836 10.8536 14.0056 11.2158 13.6247 11.4357C13.2438 11.6556 12.7913 11.7152 12.3663 11.6014C11.0933 11.2602 9.1792 10.7474 8.06767 10.4521C7.6452 10.3389 7.19735 10.5116 6.96034 10.8791C6.80135 11.1245 6.65529 11.3745 6.52324 11.6275C6.09298 12.4508 5.78528 13.3045 5.65354 14.1497C5.0727 14.4791 4.53531 14.8427 4.05709 15.239C3.00458 16.1113 2.15341 17.1268 1.51761 18.2439Z" fill="#FCE418"/>
</svg>
