<svg width="5998" height="259" viewBox="0 0 5998 259" fill="none" xmlns="http://www.w3.org/2000/svg">
<path opacity="0.05" d="M1505 252.477V253.477H1506H1572.77C1587.38 253.477 1598.79 250.104 1606.87 243.215C1614.9 236.371 1620.41 226.807 1623.43 214.599C1626.44 202.454 1627.94 188.299 1627.94 172.146C1627.94 157.104 1626.02 144.322 1622.14 133.827C1618.66 124.089 1612.05 117.546 1602.37 114.237C1609.53 111.637 1615 107.056 1618.71 100.499C1623.03 93.0521 1625.14 83.404 1625.14 71.6254V60.7545C1625.14 40.4299 1621.03 25.6213 1612.56 16.5906C1604.17 7.45611 1590.83 3 1572.77 3H1506H1505V4V252.477ZM1574.11 143.083L1574.12 143.096L1574.13 143.108C1576.17 146.953 1577.23 152.322 1577.23 159.298V190.358C1577.23 196.31 1575.68 200.594 1572.74 203.401C1569.8 206.216 1565.3 207.711 1559.05 207.711C1558.06 207.711 1556.77 207.646 1555.15 207.513V137.427H1563.25C1568.77 137.427 1572.28 139.374 1574.11 143.083ZM1635.47 252.382L1635.36 253.477H1636.46H1684.34H1685.26L1685.33 252.554L1688.34 213.382H1716.17L1719.59 252.564L1719.67 253.477H1720.59H1767.2H1768.3L1768.2 252.384L1744.82 3.90633L1744.74 3H1743.83H1660.26H1659.35L1659.26 3.90467L1635.47 252.382ZM1798.82 252.477V253.477H1799.82H1849.09H1850.09V252.477V52.719H1878.35H1879.35V51.719V4V3H1878.35H1770.56H1769.56V4V51.719V52.719H1770.56H1798.82V252.477ZM1912.2 252.477V253.477H1913.2H1962.48H1963.48V252.477V52.719H1991.73H1992.73V51.719V4V3H1991.73H1883.95H1882.95V4V51.719V52.719H1883.95H1912.2V252.477ZM2004.45 252.477V253.477H2005.45H2105.4H2106.4V252.477V210.123V209.123H2105.4H2055.72V4V3H2054.72H2005.45H2004.45V4V252.477ZM2118.39 252.477V253.477H2119.39H2221.16H2222.16V252.477V204.053V203.053H2221.16H2170.51V148.157H2215.98H2216.98V147.157V100.426V99.4262H2215.98H2170.51V53.0013H2217.94H2218.94V52.0013V4V3H2217.94H2119.39H2118.39V4V252.477ZM1564.23 96.6026H1555.15V43.4011H1564.51C1567.82 43.4011 1570.13 44.3402 1571.63 46.0596C1573.16 47.8045 1574.01 50.525 1574.01 54.4014V79.3903C1574.01 84.2959 1573.37 88.4561 1572.11 91.8946C1571.53 93.4939 1570.6 94.6435 1569.35 95.407C1568.08 96.1794 1566.39 96.6026 1564.23 96.6026ZM1712.22 171.71H1691.99L1701.22 47.3541H1701.61L1712.22 171.71Z" stroke="url(#paint0_linear_2002_294)" stroke-width="2"/>
<path opacity="0.05" d="M2275 252.759V253.759H2276H2376.12H2377.12V252.759V210.739V209.739H2376.12H2326.36V6.24107V5.24107H2325.36H2276H2275V6.24107V252.759ZM2389.15 252.759V253.759H2390.15H2492.09H2493.09V252.759V204.716V203.716H2492.09H2441.35V149.269H2486.9H2487.9V148.269V101.907V100.907H2486.9H2441.35V54.8638H2488.87H2489.87V53.8638V6.24107V5.24107H2488.87H2390.15H2389.15V6.24107V252.759ZM2507.5 252.759V253.759H2508.5H2553.09H2554.09V252.759V87.0747L2582.11 252.926L2582.26 253.759H2583.1H2627.41H2628.27L2628.4 252.916L2654.74 87.7732V252.759V253.759H2655.74H2700.89H2701.89V252.759V6.24107V5.24107H2700.89H2625.03H2624.16L2624.04 6.10519L2604.41 149.198L2584.65 6.10428L2584.53 5.24107H2583.66H2508.5H2507.5V6.24107V252.759ZM2735.61 237.867L2735.62 237.873C2746.33 249.999 2761.73 256 2781.66 256C2801.6 256 2816.96 249.999 2827.57 237.87C2838.26 225.672 2843.52 208.173 2843.52 185.527V68.4308C2843.52 47.1744 2838.3 30.8736 2827.68 19.6992C2817.15 8.51574 2801.76 3 2781.66 3C2761.57 3 2746.13 8.51703 2735.5 19.6991L2735.5 19.7024C2724.98 30.8771 2719.8 47.1766 2719.8 68.4308V185.527C2719.8 208.171 2725.02 225.669 2735.61 237.867ZM2861.44 252.759V253.759H2862.44H2910.67H2911.67V252.759V139.588L2934.37 252.955L2934.53 253.759H2935.35H2983.59H2984.59V252.759V6.24107V5.24107H2983.59H2935.92H2934.92V6.24107V113.827L2914.18 6.05214L2914.02 5.24107H2913.2H2862.44H2861.44V6.24107V252.759ZM2792.3 187.908C2792.3 195.091 2791.37 200.326 2789.61 203.732C2788.74 205.42 2787.68 206.63 2786.45 207.421C2785.23 208.209 2783.79 208.618 2782.08 208.618C2778.08 208.618 2775.36 207.129 2773.7 204.226C2771.96 201.099 2771.02 195.809 2771.02 188.188V68.0106C2771.02 61.8797 2772.05 57.4559 2773.94 54.5912C2775.79 51.7988 2778.55 50.3817 2782.37 50.3817C2785.67 50.3817 2788.08 51.7258 2789.71 54.4488C2791.4 57.2531 2792.3 61.5883 2792.3 67.5904V187.908Z" stroke="url(#paint1_linear_2002_294)" stroke-width="2"/>
<path opacity="0.05" d="M1 251.477V252.477H2H68.7707C83.378 252.477 94.7937 249.104 102.875 242.215C110.903 235.371 116.408 225.807 119.434 213.599C122.445 201.454 123.943 187.299 123.943 171.146C123.943 156.104 122.022 143.322 118.144 132.827C114.663 123.089 108.046 116.546 98.3735 113.237C105.533 110.637 110.996 106.056 114.712 99.4995C119.026 92.0521 121.144 82.404 121.144 70.6254V59.7545C121.144 39.4302 117.028 24.6217 108.559 15.591C100.173 6.45623 86.8275 2 68.7707 2H2H1V3V251.477ZM70.1145 142.083L70.1206 142.096L70.127 142.108C72.1664 145.953 73.23 151.322 73.23 158.298V189.358C73.23 195.31 71.6774 199.594 68.7442 202.401C65.8029 205.216 61.3017 206.711 55.0526 206.711C54.0632 206.711 52.7659 206.646 51.1533 206.513V136.427H59.2521C64.7726 136.427 68.2757 138.374 70.1145 142.083ZM131.466 251.382L131.362 252.477H132.462H180.335H181.261L181.332 251.554L184.341 212.382H212.174L215.594 251.564L215.674 252.477H216.59H263.204H264.302L264.199 251.384L240.823 2.90633L240.737 2H239.827H156.259H155.35L155.263 2.90467L131.466 251.382ZM294.819 251.477V252.477H295.819H345.092H346.092V251.477V51.719H374.348H375.348V50.719V3V2H374.348H266.563H265.563V3V50.719V51.719H266.563H294.819V251.477ZM408.204 251.477V252.477H409.204H458.477H459.477V251.477V51.719H487.733H488.733V50.719V3V2H487.733H379.948H378.948V3V50.719V51.719H379.948H408.204V251.477ZM500.451 251.477V252.477H501.451H601.397H602.397V251.477V209.123V208.123H601.397H551.724V3V2H550.724H501.451H500.451V3V251.477ZM614.395 251.477V252.477H615.395H717.161H718.161V251.477V203.053V202.053H717.161H666.508V147.157H711.982H712.982V146.157V99.4262V98.4262H711.982H666.508V52.0013H713.941H714.941V51.0013V3V2H713.941H615.395H614.395V3V251.477ZM60.2319 95.6026H51.1533V42.4011H60.5119C63.8199 42.4011 66.1289 43.3402 67.6332 45.0596C69.1597 46.8045 70.0104 49.525 70.0104 53.4014V78.3903C70.0104 83.2959 69.3674 87.4561 68.1114 90.8946C67.5272 92.4939 66.6016 93.6435 65.3464 94.407C64.0767 95.1794 62.3936 95.6026 60.2319 95.6026ZM208.222 170.71H187.991L197.222 46.3541H197.614L208.222 170.71Z" stroke="url(#paint2_linear_2002_294)" stroke-width="2"/>
<path opacity="0.05" d="M1229.76 235.873L1229.75 235.867C1219.16 223.669 1213.94 206.171 1213.94 183.527V66.4308C1213.94 45.1766 1219.12 28.8771 1229.64 17.7024L1229.64 17.6992C1240.26 6.51703 1255.71 1 1275.8 1C1295.89 1 1311.29 6.51668 1321.82 17.702C1321.82 17.7021 1321.82 17.7023 1321.82 17.7024L1321.09 18.3878C1331.47 29.3131 1336.66 45.3274 1336.66 66.4308V183.527C1336.66 206.031 1331.42 223.259 1320.95 235.212L1229.76 235.873ZM1229.76 235.873C1240.46 247.999 1255.86 254 1275.8 254C1295.73 254 1311.09 247.999 1321.71 235.87L1229.76 235.873ZM769.136 250.759V251.759H770.136H870.259H871.259V250.759V208.739V207.739H870.259H820.496V4.24107V3.24107H819.496H770.136H769.136V4.24107V250.759ZM883.282 250.759V251.759H884.282H986.228H987.228V250.759V202.716V201.716H986.228H935.484V147.269H981.039H982.039V146.269V99.9068V98.9068H981.039H935.484V52.8638H983.003H984.003V51.8638V4.24107V3.24107H983.003H884.282H883.282V4.24107V250.759ZM1001.63 250.759V251.759H1002.63H1047.23H1048.23V250.759V85.0747L1076.25 250.926L1076.39 251.759H1077.24H1121.55H1122.4L1122.54 250.916L1148.87 85.7732V250.759V251.759H1149.87H1195.03H1196.03V250.759V4.24107V3.24107H1195.03H1119.16H1118.29L1118.17 4.10519L1098.55 147.198L1078.79 4.10428L1078.67 3.24107H1077.8H1002.63H1001.63V4.24107V250.759ZM1355.57 250.759V251.759H1356.57H1404.81H1405.81V250.759V137.588L1428.51 250.955L1428.67 251.759H1429.49H1477.73H1478.73V250.759V4.24107V3.24107H1477.73H1430.05H1429.05V4.24107V111.827L1408.32 4.05214L1408.16 3.24107H1407.33H1356.57H1355.57V4.24107V250.759ZM1286.44 185.908C1286.44 193.091 1285.51 198.326 1283.75 201.732C1282.87 203.42 1281.81 204.63 1280.59 205.421C1279.36 206.209 1277.92 206.618 1276.22 206.618C1272.22 206.618 1269.5 205.129 1267.84 202.226C1266.1 199.099 1265.16 193.809 1265.16 186.188V66.0106C1265.16 59.8797 1266.18 55.4559 1268.08 52.5912C1269.93 49.7988 1272.68 48.3817 1276.5 48.3817C1279.81 48.3817 1282.21 49.7258 1283.85 52.4488C1285.53 55.2531 1286.44 59.5883 1286.44 65.5904V185.908Z" stroke="url(#paint3_linear_2002_294)" stroke-width="2"/>
<path opacity="0.05" d="M4519 255.477V256.477H4520H4586.77C4601.38 256.477 4612.79 253.104 4620.87 246.215C4628.9 239.371 4634.41 229.807 4637.43 217.599C4640.44 205.454 4641.94 191.299 4641.94 175.146C4641.94 160.104 4640.02 147.322 4636.14 136.827C4632.66 127.089 4626.05 120.546 4616.37 117.237C4623.53 114.637 4629 110.056 4632.71 103.499C4637.03 96.0521 4639.14 86.404 4639.14 74.6254V63.7545C4639.14 43.4302 4635.03 28.6217 4626.56 19.591C4618.17 10.4562 4604.83 6 4586.77 6H4520H4519V7V255.477ZM4588.11 146.083L4588.12 146.096L4588.13 146.108C4590.17 149.953 4591.23 155.322 4591.23 162.298V193.358C4591.23 199.31 4589.68 203.594 4586.74 206.401C4583.8 209.216 4579.3 210.711 4573.05 210.711C4572.06 210.711 4570.77 210.646 4569.15 210.513V140.427H4577.25C4582.77 140.427 4586.28 142.374 4588.11 146.083ZM4649.47 255.382L4649.36 256.477H4650.46H4698.34H4699.26L4699.33 255.554L4702.34 216.382H4730.17L4733.59 255.564L4733.67 256.477H4734.59H4781.2H4782.3L4782.2 255.384L4758.82 6.90633L4758.74 6H4757.83H4674.26H4673.35L4673.26 6.90467L4649.47 255.382ZM4812.82 255.477V256.477H4813.82H4863.09H4864.09V255.477V55.719H4892.35H4893.35V54.719V7V6H4892.35H4784.56H4783.56V7V54.719V55.719H4784.56H4812.82V255.477ZM4926.2 255.477V256.477H4927.2H4976.48H4977.48V255.477V55.719H5005.73H5006.73V54.719V7V6H5005.73H4897.95H4896.95V7V54.719V55.719H4897.95H4926.2V255.477ZM5018.45 255.477V256.477H5019.45H5119.4H5120.4V255.477V213.123V212.123H5119.4H5069.72V7V6H5068.72H5019.45H5018.45V7V255.477ZM5132.39 255.477V256.477H5133.39H5235.16H5236.16V255.477V207.053V206.053H5235.16H5184.51V151.157H5229.98H5230.98V150.157V103.426V102.426H5229.98H5184.51V56.0013H5231.94H5232.94V55.0013V7V6H5231.94H5133.39H5132.39V7V255.477ZM4578.23 99.6026H4569.15V46.4011H4578.51C4581.82 46.4011 4584.13 47.3402 4585.63 49.0596C4587.16 50.8045 4588.01 53.525 4588.01 57.4014V82.3903C4588.01 87.2959 4587.37 91.4561 4586.11 94.8946C4585.53 96.4939 4584.6 97.6435 4583.35 98.407C4582.08 99.1794 4580.39 99.6026 4578.23 99.6026ZM4726.22 174.71H4705.99L4715.22 50.3541H4715.61L4726.22 174.71Z" stroke="url(#paint4_linear_2002_294)" stroke-width="2"/>
<path opacity="0.05" d="M5747.76 239.873L5747.75 239.867C5737.16 227.669 5731.94 210.171 5731.94 187.527V70.4308C5731.94 49.1766 5737.12 32.8771 5747.64 21.7024L5747.64 21.6992C5758.26 10.517 5773.71 5 5793.8 5C5813.89 5 5829.29 10.5167 5839.82 21.702C5839.82 21.7021 5839.82 21.7023 5839.82 21.7024L5839.09 22.3878C5849.47 33.3131 5854.66 49.3274 5854.66 70.4308V187.527C5854.66 210.031 5849.42 227.259 5838.95 239.212L5747.76 239.873ZM5747.76 239.873C5758.46 251.999 5773.86 258 5793.8 258C5813.73 258 5829.09 251.999 5839.71 239.87L5747.76 239.873ZM5287.14 254.759V255.759H5288.14H5388.26H5389.26V254.759V212.739V211.739H5388.26H5338.5V8.24107V7.24107H5337.5H5288.14H5287.14V8.24107V254.759ZM5401.28 254.759V255.759H5402.28H5504.23H5505.23V254.759V206.716V205.716H5504.23H5453.48V151.269H5499.04H5500.04V150.269V103.907V102.907H5499.04H5453.48V56.8638H5501H5502V55.8638V8.24107V7.24107H5501H5402.28H5401.28V8.24107V254.759ZM5519.63 254.759V255.759H5520.63H5565.23H5566.23V254.759V89.0747L5594.25 254.926L5594.39 255.759H5595.24H5639.55H5640.4L5640.54 254.916L5666.87 89.7732V254.759V255.759H5667.87H5713.03H5714.03V254.759V8.24107V7.24107H5713.03H5637.16H5636.29L5636.17 8.10519L5616.55 151.198L5596.79 8.10428L5596.67 7.24107H5595.8H5520.63H5519.63V8.24107V254.759ZM5873.57 254.759V255.759H5874.57H5922.81H5923.81V254.759V141.588L5946.51 254.955L5946.67 255.759H5947.49H5995.73H5996.73V254.759V8.24107V7.24107H5995.73H5948.05H5947.05V8.24107V115.827L5926.32 8.05214L5926.16 7.24107H5925.33H5874.57H5873.57V8.24107V254.759ZM5804.44 189.908C5804.44 197.091 5803.51 202.326 5801.75 205.732C5800.87 207.42 5799.81 208.63 5798.59 209.421C5797.36 210.209 5795.92 210.618 5794.22 210.618C5790.22 210.618 5787.5 209.129 5785.84 206.226C5784.1 203.099 5783.16 197.809 5783.16 190.188V70.0106C5783.16 63.8797 5784.18 59.4559 5786.08 56.5912C5787.93 53.7988 5790.68 52.3817 5794.5 52.3817C5797.81 52.3817 5800.21 53.7258 5801.85 56.4488C5803.53 59.2531 5804.44 63.5883 5804.44 69.5904V189.908Z" stroke="url(#paint5_linear_2002_294)" stroke-width="2"/>
<path opacity="0.05" d="M3015 254.477V255.477H3016H3082.77C3097.38 255.477 3108.79 252.104 3116.87 245.215C3124.9 238.371 3130.41 228.807 3133.43 216.599C3136.44 204.454 3137.94 190.299 3137.94 174.146C3137.94 159.104 3136.02 146.322 3132.14 135.827C3128.66 126.089 3122.05 119.546 3112.37 116.237C3119.53 113.637 3125 109.056 3128.71 102.499C3133.03 95.0521 3135.14 85.404 3135.14 73.6254V62.7545C3135.14 42.4302 3131.03 27.6217 3122.56 18.591C3114.17 9.45623 3100.83 5 3082.77 5H3016H3015V6V254.477ZM3084.11 145.083L3084.12 145.096L3084.13 145.108C3086.17 148.953 3087.23 154.322 3087.23 161.298V192.358C3087.23 198.31 3085.68 202.594 3082.74 205.401C3079.8 208.216 3075.3 209.711 3069.05 209.711C3068.06 209.711 3066.77 209.646 3065.15 209.513V139.427H3073.25C3078.77 139.427 3082.28 141.374 3084.11 145.083ZM3145.47 254.382L3145.36 255.477H3146.46H3194.34H3195.26L3195.33 254.554L3198.34 215.382H3226.17L3229.59 254.564L3229.67 255.477H3230.59H3277.2H3278.3L3278.2 254.384L3254.82 5.90633L3254.74 5H3253.83H3170.26H3169.35L3169.26 5.90467L3145.47 254.382ZM3308.82 254.477V255.477H3309.82H3359.09H3360.09V254.477V54.719H3388.35H3389.35V53.719V6V5H3388.35H3280.56H3279.56V6V53.719V54.719H3280.56H3308.82V254.477ZM3422.2 254.477V255.477H3423.2H3472.48H3473.48V254.477V54.719H3501.73H3502.73V53.719V6V5H3501.73H3393.95H3392.95V6V53.719V54.719H3393.95H3422.2V254.477ZM3514.45 254.477V255.477H3515.45H3615.4H3616.4V254.477V212.123V211.123H3615.4H3565.72V6V5H3564.72H3515.45H3514.45V6V254.477ZM3628.39 254.477V255.477H3629.39H3731.16H3732.16V254.477V206.053V205.053H3731.16H3680.51V150.157H3725.98H3726.98V149.157V102.426V101.426H3725.98H3680.51V55.0013H3727.94H3728.94V54.0013V6V5H3727.94H3629.39H3628.39V6V254.477ZM3074.23 98.6026H3065.15V45.4011H3074.51C3077.82 45.4011 3080.13 46.3402 3081.63 48.0596C3083.16 49.8045 3084.01 52.525 3084.01 56.4014V81.3903C3084.01 86.2959 3083.37 90.4561 3082.11 93.8946C3081.53 95.4939 3080.6 96.6435 3079.35 97.407C3078.08 98.1794 3076.39 98.6026 3074.23 98.6026ZM3222.22 173.71H3201.99L3211.22 49.3541H3211.61L3222.22 173.71Z" stroke="url(#paint6_linear_2002_294)" stroke-width="2"/>
<path opacity="0.05" d="M4243.76 238.873L4243.75 238.867C4233.16 226.669 4227.94 209.171 4227.94 186.527V69.4308C4227.94 48.1766 4233.12 31.8771 4243.64 20.7024L4243.64 20.6992C4254.26 9.51703 4269.71 4 4289.8 4C4309.89 4 4325.29 9.51668 4335.82 20.702C4335.82 20.7021 4335.82 20.7023 4335.82 20.7024L4335.09 21.3878C4345.47 32.3131 4350.66 48.3274 4350.66 69.4308V186.527C4350.66 209.031 4345.42 226.259 4334.95 238.212L4243.76 238.873ZM4243.76 238.873C4254.46 250.999 4269.86 257 4289.8 257C4309.73 257 4325.09 250.999 4335.71 238.87L4243.76 238.873ZM3783.14 253.759V254.759H3784.14H3884.26H3885.26V253.759V211.739V210.739H3884.26H3834.5V7.24107V6.24107H3833.5H3784.14H3783.14V7.24107V253.759ZM3897.28 253.759V254.759H3898.28H4000.23H4001.23V253.759V205.716V204.716H4000.23H3949.48V150.269H3995.04H3996.04V149.269V102.907V101.907H3995.04H3949.48V55.8638H3997H3998V54.8638V7.24107V6.24107H3997H3898.28H3897.28V7.24107V253.759ZM4015.63 253.759V254.759H4016.63H4061.23H4062.23V253.759V88.0747L4090.25 253.926L4090.39 254.759H4091.24H4135.55H4136.4L4136.54 253.916L4162.87 88.7732V253.759V254.759H4163.87H4209.03H4210.03V253.759V7.24107V6.24107H4209.03H4133.16H4132.29L4132.17 7.10519L4112.55 150.198L4092.79 7.10428L4092.67 6.24107H4091.8H4016.63H4015.63V7.24107V253.759ZM4369.57 253.759V254.759H4370.57H4418.81H4419.81V253.759V140.588L4442.51 253.955L4442.67 254.759H4443.49H4491.73H4492.73V253.759V7.24107V6.24107H4491.73H4444.05H4443.05V7.24107V114.827L4422.32 7.05214L4422.16 6.24107H4421.33H4370.57H4369.57V7.24107V253.759ZM4300.44 188.908C4300.44 196.091 4299.51 201.326 4297.75 204.732C4296.87 206.42 4295.81 207.63 4294.59 208.421C4293.36 209.209 4291.92 209.618 4290.22 209.618C4286.22 209.618 4283.5 208.129 4281.84 205.226C4280.1 202.099 4279.16 196.809 4279.16 189.188V69.0106C4279.16 62.8797 4280.18 58.4559 4282.08 55.5912C4283.93 52.7988 4286.68 51.3817 4290.5 51.3817C4293.81 51.3817 4296.21 52.7258 4297.85 55.4488C4299.53 58.2531 4300.44 62.5883 4300.44 68.5904V188.908Z" stroke="url(#paint7_linear_2002_294)" stroke-width="2"/>
<defs>
<linearGradient id="paint0_linear_2002_294" x1="2221.18" y1="-13.2612" x2="1490.68" y2="252.739" gradientUnits="userSpaceOnUse">
<stop stop-color="#5CFFF4"/>
<stop offset="1" stop-color="#FCE418"/>
</linearGradient>
<linearGradient id="paint1_linear_2002_294" x1="3007.05" y1="4.00005" x2="2251.55" y2="255" gradientUnits="userSpaceOnUse">
<stop stop-color="#5CFFF4"/>
<stop offset="1" stop-color="#FCE418"/>
</linearGradient>
<linearGradient id="paint2_linear_2002_294" x1="717.183" y1="-14.2612" x2="-13.3174" y2="251.739" gradientUnits="userSpaceOnUse">
<stop stop-color="#5CFFF4"/>
<stop offset="1" stop-color="#FCE418"/>
</linearGradient>
<linearGradient id="paint3_linear_2002_294" x1="1501.18" y1="2.00005" x2="745.683" y2="253" gradientUnits="userSpaceOnUse">
<stop stop-color="#5CFFF4"/>
<stop offset="1" stop-color="#FCE418"/>
</linearGradient>
<linearGradient id="paint4_linear_2002_294" x1="5235.18" y1="-10.2612" x2="4504.68" y2="255.739" gradientUnits="userSpaceOnUse">
<stop stop-color="#5CFFF4"/>
<stop offset="1" stop-color="#FCE418"/>
</linearGradient>
<linearGradient id="paint5_linear_2002_294" x1="6019.18" y1="6.00005" x2="5263.68" y2="257" gradientUnits="userSpaceOnUse">
<stop stop-color="#5CFFF4"/>
<stop offset="1" stop-color="#FCE418"/>
</linearGradient>
<linearGradient id="paint6_linear_2002_294" x1="3731.18" y1="-11.2612" x2="3000.68" y2="254.739" gradientUnits="userSpaceOnUse">
<stop stop-color="#5CFFF4"/>
<stop offset="1" stop-color="#FCE418"/>
</linearGradient>
<linearGradient id="paint7_linear_2002_294" x1="4515.18" y1="5.00005" x2="3759.68" y2="256" gradientUnits="userSpaceOnUse">
<stop stop-color="#5CFFF4"/>
<stop offset="1" stop-color="#FCE418"/>
</linearGradient>
</defs>
</svg>
