<svg width="82" height="21" viewBox="0 0 82 21" fill="none" xmlns="http://www.w3.org/2000/svg">
<g opacity="0.6">
<path d="M26.8655 17.6425V7.15659H28.4022L28.5485 8.00295H28.6218C29.0608 7.42324 29.8069 7.008 30.8458 7.008C32.7471 7.008 34.2694 8.5827 34.2694 10.9137C34.2694 13.2446 32.7484 14.8193 30.8458 14.8193C29.8213 14.8193 29.1052 14.3882 28.725 13.8986H28.6517V17.6411H26.8668L26.8655 17.6425ZM32.4831 10.915C32.4831 9.54855 31.6194 8.68755 30.5661 8.68755C29.5129 8.68755 28.6492 9.54855 28.6492 10.915C28.6492 12.2815 29.5129 13.1425 30.5661 13.1425C31.6194 13.1425 32.4831 12.2815 32.4831 10.915Z" fill="white"/>
<path d="M35.1755 10.9151C35.1755 8.64255 36.7841 7.00946 38.9351 7.00946C41.0859 7.00946 42.6945 8.64255 42.6945 10.9151C42.6945 13.1877 41.0859 14.8208 38.9351 14.8208C36.7841 14.8208 35.1755 13.1718 35.1755 10.9151ZM40.8951 10.9151C40.8951 9.57787 40.017 8.6877 38.9351 8.6877C37.853 8.6877 36.9606 9.57922 36.9606 10.9151C36.9606 12.2511 37.853 13.128 38.9351 13.128C40.017 13.128 40.8951 12.2524 40.8951 10.9151Z" fill="white"/>
<path d="M43.9871 14.6721V4.27643H45.772V14.6734H43.9871V14.6721Z" fill="white"/>
<path d="M52.399 7.15649H54.3003L51.0817 16.2905C50.7603 17.1966 50.3212 17.6423 49.1648 17.6423H47.4386V15.9641H48.9022C49.1661 15.9641 49.3111 15.8302 49.4 15.6073L49.5751 15.1178L46.5618 7.15649H48.4631L50.3801 12.3703H50.6728L52.399 7.15649Z" fill="white"/>
<path d="M54.6417 15.0435H56.4554C56.5286 15.5331 57.0108 16.2017 58.1529 16.2017C59.2204 16.2017 59.9235 15.5185 59.9235 14.4784V13.4237H59.8503C59.4557 13.8548 58.7239 14.2409 57.787 14.2409C55.8857 14.2409 54.4221 12.755 54.4221 10.6165C54.4221 8.47793 55.8857 7.008 57.787 7.008C58.767 7.008 59.4845 7.40865 59.9378 7.97378H60.011L60.1574 7.15659H61.7085V14.4784C61.7085 16.4684 60.3913 17.7911 58.1529 17.7911C55.6518 17.7911 54.6861 16.1274 54.6417 15.0435ZM59.9235 10.6178C59.9235 9.44505 59.1042 8.62785 58.0654 8.62785C57.0265 8.62785 56.2215 9.44505 56.2215 10.6178C56.2215 11.7906 57.0409 12.6224 58.0654 12.6224C59.0898 12.6224 59.9235 11.8052 59.9235 10.6178Z" fill="white"/>
<path d="M62.949 10.9151C62.949 8.64255 64.5576 7.00946 66.7085 7.00946C68.8593 7.00946 70.4679 8.64255 70.4679 10.9151C70.4679 13.1877 68.8593 14.8208 66.7085 14.8208C64.5576 14.8208 62.949 13.1718 62.949 10.9151ZM68.6686 10.9151C68.6686 9.57787 67.7904 8.6877 66.7085 8.6877C65.6265 8.6877 64.734 9.57922 64.734 10.9151C64.734 12.2511 65.6265 13.128 66.7085 13.128C67.7904 13.128 68.6686 12.2524 68.6686 10.9151Z" fill="white"/>
<path d="M71.7106 14.6721V7.15659H73.246L73.3923 7.869H73.4655C73.7582 7.52805 74.49 7.008 75.601 7.008C77.2979 7.008 78.5265 8.25503 78.5265 10.1561V14.6708H76.7417V10.3937C76.7417 9.4278 76.0687 8.73 75.1475 8.73C74.2263 8.73 73.4942 9.45833 73.4942 10.3937V14.6708H71.7092L71.7106 14.6721Z" fill="white"/>
<path d="M16.4758 13.7952L20.8638 11.2228C21.0964 11.0862 21.2402 10.8328 21.2402 10.5608V5.41608C21.2402 5.14411 21.0964 4.89073 20.8638 4.75408L16.4758 2.1817C16.2432 2.04505 15.9544 2.04638 15.7231 2.1817L11.3351 4.75408C11.1025 4.89073 10.9588 5.14411 10.9588 5.41608V14.6098L7.88141 16.4127L4.80406 14.6098V11.0026L7.88141 9.19972L9.9108 10.3897V7.96987L8.25773 7.0001C8.14403 6.93377 8.01343 6.89795 7.88141 6.89795C7.7494 6.89795 7.61879 6.93377 7.5051 7.0001L3.11707 9.57247C2.88447 9.70912 2.74072 9.96255 2.74072 10.2345V15.3793C2.74072 15.6512 2.88447 15.9046 3.11707 16.0412L7.5051 18.6136C7.73766 18.7489 8.02517 18.7489 8.25773 18.6136L12.6458 16.0412C12.8784 15.9046 13.0221 15.6512 13.0221 15.3793V6.18421L13.077 6.15237L16.0982 4.38129L19.1755 6.18421V9.7914L16.0982 11.5943L14.0714 10.4069V12.8268L15.7218 13.7939C15.9544 13.9292 16.2432 13.9292 16.4745 13.7939L16.4758 13.7952Z" fill="white"/>
</g>
</svg>
