<svg width="69" height="25" viewBox="0 0 69 25" fill="none" xmlns="http://www.w3.org/2000/svg">
<g opacity="0.6" clip-path="url(#clip0_258_1350)">
<mask id="mask0_258_1350" style="mask-type:luminance" maskUnits="userSpaceOnUse" x="0" y="3" width="70" height="19">
<path d="M69.2197 3.46802H0.219727V21.7831H69.2197V3.46802Z" fill="white"/>
</mask>
<g mask="url(#mask0_258_1350)">
<path d="M0.219727 3.46802V21.7831H16.5999V19.7302H2.18137V5.52089H16.5999V3.46802H0.219727Z" fill="white"/>
<path d="M28.406 11.6416L31.1631 7.16693H33.4412L30.1688 12.4836V12.7674L33.6219 18.0746H31.2535L28.406 13.6093V11.6416Z" fill="white"/>
<path d="M40.1578 13.6093H42.7793L41.6041 8.19812H41.3329L40.1578 13.6093ZM43.2223 15.6622H39.7148L39.1905 18.0746H37.1384L39.6244 7.16693H43.3126L45.7987 18.0746H43.7466L43.2223 15.6622Z" fill="white"/>
<path d="M51.0056 7.16693H52.9674V16.1163H57.704V18.0746H51.0056V7.16693Z" fill="white"/>
<path d="M18.2272 10.5064C18.2272 10.0712 18.0645 9.69283 17.739 9.37124C17.4136 9.04954 16.9616 8.88869 16.374 8.88869C15.8768 8.88869 15.4881 8.99277 15.1988 9.21039C14.9095 9.42795 14.7649 9.71178 14.7649 10.0712C14.7649 10.2604 14.8011 10.4307 14.8733 10.5821C14.9457 10.7335 15.0632 10.8659 15.2349 10.9889C15.4067 11.1119 15.6327 11.216 15.922 11.3105C16.2022 11.4051 16.5638 11.4903 16.9977 11.5754C18.0915 11.7836 18.9232 12.1336 19.5018 12.616C20.0803 13.108 20.3696 13.827 20.3696 14.7824V14.9717C20.3696 15.4825 20.2792 15.9366 20.1074 16.3529C19.9357 16.7596 19.6826 17.1097 19.3571 17.4029C19.0317 17.6962 18.6339 17.9138 18.1639 18.0746C17.6938 18.226 17.1695 18.3111 16.5819 18.3111C15.8948 18.3111 15.2982 18.2071 14.7739 18.0084C14.2496 17.8097 13.8157 17.5259 13.4722 17.1664C13.1287 16.8069 12.8575 16.3907 12.6857 15.9082C12.5049 15.4257 12.4146 14.896 12.4146 14.3284V14.2337H14.3762C14.3762 14.8865 14.557 15.4068 14.9186 15.8042C15.2802 16.192 15.8406 16.3907 16.609 16.3907C17.2056 16.3907 17.6486 16.2582 17.9379 15.9839C18.2272 15.7095 18.3718 15.3879 18.3718 15.019C18.3718 14.8392 18.3447 14.6784 18.2814 14.5081C18.2181 14.3473 18.1187 14.2054 17.965 14.073C17.8204 13.9405 17.6124 13.827 17.3503 13.7229C17.0881 13.6188 16.7627 13.5337 16.365 13.458C15.8406 13.3634 15.3615 13.2405 14.9186 13.0891C14.4847 12.9377 14.105 12.739 13.7796 12.493C13.4541 12.2471 13.21 11.9349 13.0293 11.5565C12.8484 11.1781 12.758 10.724 12.758 10.1848V10.0902C12.758 9.64551 12.8484 9.22929 13.0202 8.85088C13.192 8.47245 13.4361 8.14136 13.7524 7.85755C14.0688 7.57375 14.4395 7.35616 14.8824 7.2048C15.3254 7.05343 15.8135 6.96829 16.365 6.96829C16.9797 6.96829 17.5221 7.06289 18.0012 7.24264C18.4803 7.42238 18.878 7.66835 19.2034 7.98054C19.5289 8.29273 19.7458 8.66169 19.9357 9.05899C20.1707 9.54148 20.1797 10.5253 20.1797 10.5253L18.2272 10.5064Z" fill="white"/>
<path d="M62.2783 7.16693V18.0746H69.0403V16.1163H64.2487V9.13464H69.0403V7.16693H62.2783Z" fill="white"/>
<path d="M27.0049 7.16693H25.0432V18.0746H27.0049V7.16693Z" fill="white"/>
<path d="M67.5395 11.6417H65.6594V13.6094H67.5395V11.6417Z" fill="white"/>
</g>
</g>
<defs>
<clipPath id="clip0_258_1350">
<rect width="69" height="25" fill="white"/>
</clipPath>
</defs>
</svg>
