<svg width="63" height="19" viewBox="0 0 63 19" fill="none" xmlns="http://www.w3.org/2000/svg">
<g opacity="0.6" clip-path="url(#clip0_271_301)">
<mask id="mask0_271_301" style="mask-type:luminance" maskUnits="userSpaceOnUse" x="2" y="0" width="59" height="19">
<path d="M2.4231 0H60.523V19H2.4231V0Z" fill="white"/>
</mask>
<g mask="url(#mask0_271_301)">
<path d="M20.1749 15.7013V6.72156H23.9953C24.6812 6.72156 25.2562 6.81656 25.7198 7.00656C26.142 7.16457 26.5065 7.44242 26.7666 7.80456C27.0037 8.15662 27.1262 8.57094 27.1178 8.9927C27.1237 9.31057 27.0484 9.62484 26.8988 9.90691C26.7544 10.1725 26.5472 10.4003 26.2946 10.5713C26.0264 10.7518 25.7234 10.8769 25.4045 10.9396V11.0273C25.766 11.0425 26.1183 11.1433 26.4313 11.3211C26.746 11.4996 27.0075 11.7558 27.1895 12.0644C27.387 12.407 27.486 12.7957 27.4758 13.1892C27.4831 13.6464 27.3524 14.0956 27.1 14.4802C26.8318 14.8736 26.4547 15.184 26.0129 15.3748C25.5386 15.5927 24.9629 15.7016 24.286 15.7016L20.1749 15.7013ZM22.3892 10.4136H23.615C23.8357 10.4175 24.0549 10.3772 24.2592 10.2951C24.4363 10.2246 24.5892 10.106 24.6999 9.95315C24.8089 9.79389 24.8645 9.60525 24.8588 9.41355C24.8649 9.27836 24.8385 9.14366 24.7818 9.02029C24.7251 8.89693 24.6396 8.78834 24.5322 8.70326C24.3145 8.531 24.0208 8.44486 23.6509 8.44455H22.3892V10.4136ZM22.3892 13.952H23.7581C24.2382 13.952 24.5926 13.8627 24.8207 13.6844C24.9338 13.5955 25.0238 13.4816 25.0834 13.3521C25.1429 13.2225 25.1702 13.0809 25.1632 12.939C25.1687 12.7279 25.1111 12.5199 24.9974 12.3405C24.8826 12.1687 24.7194 12.0332 24.5277 11.9504C24.2978 11.8529 24.0489 11.8056 23.7985 11.812H22.3892V13.952ZM28.4146 15.7013V6.72156H30.6287V13.9387H34.4403V15.7013H28.4146ZM37.5577 15.7013H35.1779L38.2691 6.72156H41.2172L44.3084 15.7013H41.9283L39.7766 8.98415H39.7049L37.5577 15.7013ZM37.2401 12.1673H42.2145V13.8158H37.2401V12.1673ZM49.8362 9.41355C49.8287 9.26784 49.7895 9.12539 49.7213 8.99574C49.653 8.86609 49.5573 8.75222 49.4405 8.66178C49.2062 8.48191 48.8732 8.39198 48.4406 8.39198C48.1972 8.38514 47.9546 8.42228 47.7249 8.50155C47.5555 8.55931 47.4065 8.6635 47.2956 8.80175C47.2003 8.92841 47.1486 9.08105 47.1479 9.23811C47.1392 9.36193 47.168 9.48543 47.2306 9.59341C47.2978 9.70203 47.3896 9.79418 47.4991 9.8629C47.6322 9.94808 47.7757 10.0165 47.9262 10.0668C48.1104 10.1302 48.2987 10.1815 48.49 10.2204L49.2773 10.3958C49.6912 10.4794 50.0941 10.609 50.4785 10.7815C50.8003 10.9255 51.0963 11.1195 51.355 11.356C51.5877 11.5718 51.7714 11.8333 51.8942 12.1233C52.0205 12.4328 52.0843 12.7634 52.082 13.0967C52.0936 13.6162 51.9404 14.1264 51.6435 14.5568C51.3308 14.9813 50.8975 15.3061 50.3978 15.491C49.8566 15.7073 49.2043 15.8153 48.4406 15.8153C47.7566 15.8296 47.0763 15.715 46.4365 15.4777C45.8973 15.2764 45.4338 14.9184 45.108 14.4517C44.7917 13.9925 44.6292 13.4124 44.6202 12.711H46.7408C46.7483 12.9694 46.8303 13.2202 46.978 13.4343C47.1241 13.6319 47.3252 13.7842 47.5573 13.8728C47.8299 13.9773 48.121 14.028 48.4137 14.022C48.6732 14.0282 48.9317 13.9881 49.1765 13.9036C49.3657 13.8391 49.5336 13.7255 49.6621 13.5749C49.7739 13.4377 49.8356 13.2677 49.8362 13.0923C49.8371 12.9328 49.78 12.7783 49.6754 12.6562C49.5424 12.5157 49.3778 12.4076 49.1946 12.3405C48.9269 12.2357 48.6508 12.1529 48.3692 12.0929L47.4119 11.8734C46.6184 11.6951 45.9936 11.4066 45.5374 11.0076C45.0812 10.6086 44.8544 10.0684 44.8573 9.38726C44.844 8.86496 45.0041 8.35254 45.3135 7.92711C45.6403 7.49395 46.0811 7.15595 46.5887 6.94925C47.1758 6.70686 47.8081 6.58746 48.4451 6.5987C49.0806 6.58413 49.7115 6.70446 50.295 6.95146C50.7881 7.16221 51.2106 7.50498 51.514 7.94041C51.8073 8.37741 51.9614 8.89041 51.9569 9.41355H49.8362ZM52.7792 8.48413V6.72156H60.523V8.48413H57.7448V15.7013H55.5618V8.48413H52.7792ZM17.9014 11.6131C17.8371 13.506 17.0578 15.3081 15.7147 16.6698C14.3716 18.0315 12.5605 18.8557 10.6325 18.9827C8.70451 19.1097 6.79714 18.5303 5.28028 17.357C3.76343 16.1836 2.74521 14.4999 2.4231 12.6325H4.46688C4.63433 12.6318 4.79804 12.6809 4.93646 12.7733C5.07487 12.8657 5.18149 12.997 5.24226 13.1499C5.54705 13.9481 6.05129 14.6585 6.70879 15.2162C7.36629 15.7739 8.15603 16.161 9.0057 16.342C9.85536 16.523 10.7378 16.4922 11.5721 16.2523C12.4065 16.0125 13.1661 15.5713 13.7815 14.9691C14.3968 14.367 14.8481 13.6231 15.0942 12.8057C15.3402 11.9883 15.3731 11.1234 15.1897 10.2903C15.0064 9.45723 14.6127 8.68254 14.0448 8.03719C13.4769 7.39185 12.7529 6.89649 11.939 6.59648C11.7812 6.53669 11.6456 6.43124 11.5504 6.29412C11.4552 6.15701 11.4048 5.99474 11.4059 5.82888V3.82121C13.2674 4.1294 14.9516 5.08892 16.1461 6.52175C17.3407 7.95457 17.9644 9.76345 17.9017 11.6128" fill="white"/>
<path d="M10.1123 14.3858C10.9334 14.3858 11.7209 14.0661 12.3016 13.497C12.8822 12.9279 13.2084 12.1561 13.2084 11.3512C13.2084 10.5464 12.8822 9.77454 12.3016 9.20543C11.7209 8.63633 10.9334 8.31662 10.1123 8.31662C9.2912 8.31662 8.50371 8.63633 7.92309 9.20543C7.34247 9.77454 7.01628 10.5464 7.01628 11.3512C7.01628 12.1561 7.34247 12.9279 7.92309 13.497C8.50371 14.0661 9.2912 14.3858 10.1123 14.3858ZM2.4231 9.96423V1.71507C2.42344 1.26025 2.60794 0.824164 2.93609 0.50259C3.26423 0.181016 3.70918 0.000251619 4.1732 0C4.39309 0.000500684 4.60384 0.0862741 4.75941 0.238584C4.91499 0.390893 5.00274 0.59736 5.00351 0.812883V5.58283C6.08292 4.66314 7.40052 4.05352 8.81097 3.82122V5.82603C8.80967 5.99389 8.75632 6.15739 8.65799 6.29483C8.55966 6.43227 8.42101 6.53714 8.26045 6.59553C7.59278 6.84535 6.98476 7.22727 6.47428 7.71749C5.9638 8.20771 5.56179 8.79573 5.29331 9.4449C5.23386 9.59057 5.13306 9.71723 5.00254 9.80843C4.86233 9.90977 4.69239 9.96487 4.51793 9.96518L2.4231 9.96423Z" fill="white"/>
</g>
</g>
<defs>
<clipPath id="clip0_271_301">
<rect width="63" height="19" fill="white"/>
</clipPath>
</defs>
</svg>
