<svg width="90" height="39" viewBox="0 0 90 39" fill="none" xmlns="http://www.w3.org/2000/svg">
<g opacity="0.6" clip-path="url(#clip0_258_1342)">
<path d="M23.9624 31.9036H20.2202V13.8667H23.9624V31.9036Z" fill="white"/>
<path d="M37.4844 13.5126C39.5503 13.5126 41.2378 14.23 42.5455 15.6649C43.8512 17.0998 44.5059 18.9243 44.5059 21.1362V31.9017H40.7638V21.7008C40.7638 20.3125 40.3122 19.1646 39.4091 18.2589C38.506 17.3533 37.3903 16.9005 36.0602 16.9005C34.5626 16.9005 33.3396 17.3533 32.3895 18.2589C31.4394 19.1646 30.9634 20.3125 30.9634 21.7008V31.9017H27.2212V13.8666H30.9634V18.5254C31.4619 16.9731 32.2879 15.7488 33.4412 14.8543C34.5927 13.9598 35.9417 13.5126 37.4863 13.5126H37.4844Z" fill="white"/>
<path d="M56.1726 13.5126C59.0945 13.5126 61.4707 14.5487 63.2995 16.619C65.1282 18.6913 65.877 21.1958 65.5441 24.1383H50.4699C50.7315 25.5975 51.4088 26.7808 52.5019 27.6864C53.595 28.5921 54.912 29.045 56.4567 29.045C57.6438 29.045 58.7069 28.7562 59.6457 28.1803C60.5846 27.6044 61.3146 26.8218 61.8376 25.8323L64.974 27.2094C64.1668 28.7394 63.0135 29.9618 61.5177 30.8805C60.022 31.7993 58.2986 32.2576 56.3494 32.2576C53.6176 32.2576 51.3242 31.3632 49.4709 29.576C47.6178 27.789 46.6902 25.564 46.6902 22.9047C46.6902 20.2454 47.5989 18.0167 49.4163 16.2147C51.2338 14.4145 53.484 13.5144 56.1707 13.5144L56.1726 13.5126ZM56.1726 16.7253C54.7935 16.7253 53.6007 17.1427 52.5903 17.9794C51.58 18.8142 50.9083 19.9026 50.5772 21.2443H61.768C61.4594 19.9026 60.7991 18.8142 59.7906 17.9794C58.7802 17.1446 57.5743 16.7253 56.1726 16.7253Z" fill="white"/>
<path d="M75.8902 13.5126C78.0764 13.5126 79.8581 14.0772 81.2352 15.2065C82.6126 16.3358 83.3032 17.9608 83.3032 20.0778V31.9036H79.5608V27.1032C78.4432 30.5395 76.1987 32.2576 72.8253 32.2576C71.2562 32.2576 69.9504 31.7936 68.9044 30.8637C67.8583 29.9338 67.3372 28.717 67.3372 27.2113C67.3372 25.4465 67.9655 24.1216 69.2261 23.2401C70.4847 22.3586 72.0896 21.8108 74.0369 21.5984L77.5646 21.2443C78.8948 21.1269 79.5608 20.538 79.5608 19.4795C79.5608 18.6093 79.2222 17.9142 78.5449 17.398C77.8675 16.8799 76.9832 16.6209 75.8902 16.6209C74.797 16.6209 73.8281 16.9042 73.0567 17.4688C72.2853 18.0334 71.7924 18.8572 71.5779 19.9398L67.8715 19.0565C68.2045 17.3626 69.0944 16.0153 70.545 15.0145C71.9937 14.0157 73.7754 13.5144 75.8902 13.5144V13.5126ZM74.0369 29.2555C75.5816 29.2555 76.8873 28.743 77.9559 27.72C79.0246 26.6969 79.5589 25.5024 79.5589 24.1365V23.1488C79.2749 23.6203 78.5843 23.9129 77.4913 24.0302L74.035 24.4533C73.132 24.5725 72.4132 24.8353 71.8789 25.2471C71.3446 25.659 71.0774 26.218 71.0774 26.9243C71.0774 27.6306 71.3446 28.1952 71.8789 28.6182C72.4132 29.0413 73.132 29.2537 74.035 29.2537L74.0369 29.2555Z" fill="white"/>
<path d="M17.6429 31.9036H0.358154V13.8667H4.31292V28.4095H17.6429V31.9036Z" fill="white"/>
<path d="M86.8311 13.5126C88.7789 13.5126 90.3582 11.9482 90.3582 10.0185C90.3582 8.08876 88.7789 6.5244 86.8311 6.5244C84.8826 6.5244 83.3032 8.08876 83.3032 10.0185C83.3032 11.9482 84.8826 13.5126 86.8311 13.5126Z" fill="white"/>
</g>
<defs>
<clipPath id="clip0_258_1342">
<rect width="90" height="39" fill="white"/>
</clipPath>
</defs>
</svg>
