{
    "asset" : {
        "generator" : "Khronos glTF Blender I/O v3.3.27",
        "version" : "2.0"
    },
    "extensionsUsed" : [
        "KHR_materials_specular",
        "KHR_materials_ior",
        "KHR_texture_transform"
    ],
    "extensionsRequired" : [
        "KHR_texture_transform"
    ],
    "scene" : 0,
    "scenes" : [
        {
            "name" : "Scene",
            "nodes" : [
                0
            ]
        }
    ],
    "nodes" : [
        {
            "mesh" : 0,
            "name" : "Belt_Bandolier"
        }
    ],
    "materials" : [
        {
            "doubleSided" : true,
            "extensions" : {
                "KHR_materials_specular" : {
                    "specularColorFactor" : [
                        2.371357614441398,
                        2.371357614441398,
                        2.371357614441398
                    ]
                },
                "KHR_materials_ior" : {
                    "ior" : 1.4500000476837158
                }
            },
            "name" : "MAT_Outfit_Plastic",
            "normalTexture" : {
                "index" : 0,
                "texCoord" : 1
            },
            "pbrMetallicRoughness" : {
                "baseColorTexture" : {
                    "index" : 1
                },
                "metallicFactor" : 0,
                "metallicRoughnessTexture" : {
                    "extensions" : {
                        "KHR_texture_transform" : {
                            "offset" : [
                                0,
                                -2
                            ],
                            "scale" : [
                                3,
                                3
                            ]
                        }
                    },
                    "index" : 2,
                    "texCoord" : 1
                },
                "roughnessFactor" : 0.5
            }
        },
        {
            "doubleSided" : true,
            "extensions" : {
                "KHR_materials_specular" : {
                    "specularColorFactor" : [
                        1.3595783411134539,
                        1.3595783411134539,
                        1.3595783411134539
                    ]
                },
                "KHR_materials_ior" : {
                    "ior" : 1.4500000476837158
                }
            },
            "name" : "MAT_Outfit_Metal_A",
            "normalTexture" : {
                "index" : 3,
                "texCoord" : 1
            },
            "pbrMetallicRoughness" : {
                "baseColorTexture" : {
                    "index" : 4
                },
                "metallicRoughnessTexture" : {
                    "extensions" : {
                        "KHR_texture_transform" : {
                            "offset" : [
                                0,
                                -2
                            ],
                            "scale" : [
                                3,
                                3
                            ]
                        }
                    },
                    "index" : 5,
                    "texCoord" : 1
                },
                "roughnessFactor" : 0.5
            }
        }
    ],
    "meshes" : [
        {
            "name" : "Cylinder.023",
            "primitives" : [
                {
                    "attributes" : {
                        "POSITION" : 0,
                        "NORMAL" : 1,
                        "TEXCOORD_0" : 2,
                        "TEXCOORD_1" : 3,
                        "COLOR_0" : 4
                    },
                    "indices" : 5,
                    "material" : 0
                },
                {
                    "attributes" : {
                        "POSITION" : 6,
                        "NORMAL" : 7,
                        "TEXCOORD_0" : 8,
                        "TEXCOORD_1" : 9,
                        "COLOR_0" : 10
                    },
                    "indices" : 11,
                    "material" : 1
                }
            ]
        }
    ],
    "textures" : [
        {
            "sampler" : 0,
            "source" : 0
        },
        {
            "sampler" : 0,
            "source" : 1
        },
        {
            "sampler" : 0,
            "source" : 2
        },
        {
            "sampler" : 0,
            "source" : 0
        },
        {
            "sampler" : 0,
            "source" : 1
        },
        {
            "sampler" : 0,
            "source" : 2
        }
    ],
    "images" : [
        {
            "mimeType" : "image/jpeg",
            "name" : "TEX_Trim_A_N",
            "uri" : "TEX_Trim_A_N.jpg"
        },
        {
            "mimeType" : "image/jpeg",
            "name" : "TEX_Outfit_AA",
            "uri" : "TEX_Outfit_AA.jpg"
        },
        {
            "mimeType" : "image/jpeg",
            "name" : "TEX_MP_Roughness_A",
            "uri" : "TEX_MP_Roughness_A.jpg"
        }
    ],
    "accessors" : [
        {
            "bufferView" : 0,
            "componentType" : 5126,
            "count" : 1079,
            "max" : [
                0.47021517157554626,
                0.14111463725566864,
                0.38784244656562805
            ],
            "min" : [
                -0.39389437437057495,
                -0.16311727464199066,
                -0.4746735394001007
            ],
            "type" : "VEC3"
        },
        {
            "bufferView" : 1,
            "componentType" : 5126,
            "count" : 1079,
            "type" : "VEC3"
        },
        {
            "bufferView" : 2,
            "componentType" : 5126,
            "count" : 1079,
            "type" : "VEC2"
        },
        {
            "bufferView" : 3,
            "componentType" : 5126,
            "count" : 1079,
            "type" : "VEC2"
        },
        {
            "bufferView" : 4,
            "componentType" : 5123,
            "count" : 1079,
            "normalized" : true,
            "type" : "VEC4"
        },
        {
            "bufferView" : 5,
            "componentType" : 5123,
            "count" : 2169,
            "type" : "SCALAR"
        },
        {
            "bufferView" : 6,
            "componentType" : 5126,
            "count" : 926,
            "max" : [
                0.4713086485862732,
                0.1288982629776001,
                0.3652894198894501
            ],
            "min" : [
                0.0018995781429111958,
                -0.16708967089653015,
                -0.19119234383106232
            ],
            "type" : "VEC3"
        },
        {
            "bufferView" : 7,
            "componentType" : 5126,
            "count" : 926,
            "type" : "VEC3"
        },
        {
            "bufferView" : 8,
            "componentType" : 5126,
            "count" : 926,
            "type" : "VEC2"
        },
        {
            "bufferView" : 9,
            "componentType" : 5126,
            "count" : 926,
            "type" : "VEC2"
        },
        {
            "bufferView" : 10,
            "componentType" : 5123,
            "count" : 926,
            "normalized" : true,
            "type" : "VEC4"
        },
        {
            "bufferView" : 11,
            "componentType" : 5123,
            "count" : 1812,
            "type" : "SCALAR"
        }
    ],
    "bufferViews" : [
        {
            "buffer" : 0,
            "byteLength" : 12948,
            "byteOffset" : 0,
            "target" : 34962
        },
        {
            "buffer" : 0,
            "byteLength" : 12948,
            "byteOffset" : 12948,
            "target" : 34962
        },
        {
            "buffer" : 0,
            "byteLength" : 8632,
            "byteOffset" : 25896,
            "target" : 34962
        },
        {
            "buffer" : 0,
            "byteLength" : 8632,
            "byteOffset" : 34528,
            "target" : 34962
        },
        {
            "buffer" : 0,
            "byteLength" : 8632,
            "byteOffset" : 43160,
            "target" : 34962
        },
        {
            "buffer" : 0,
            "byteLength" : 4338,
            "byteOffset" : 51792,
            "target" : 34963
        },
        {
            "buffer" : 0,
            "byteLength" : 11112,
            "byteOffset" : 56132,
            "target" : 34962
        },
        {
            "buffer" : 0,
            "byteLength" : 11112,
            "byteOffset" : 67244,
            "target" : 34962
        },
        {
            "buffer" : 0,
            "byteLength" : 7408,
            "byteOffset" : 78356,
            "target" : 34962
        },
        {
            "buffer" : 0,
            "byteLength" : 7408,
            "byteOffset" : 85764,
            "target" : 34962
        },
        {
            "buffer" : 0,
            "byteLength" : 7408,
            "byteOffset" : 93172,
            "target" : 34962
        },
        {
            "buffer" : 0,
            "byteLength" : 3624,
            "byteOffset" : 100580,
            "target" : 34963
        }
    ],
    "samplers" : [
        {
            "magFilter" : 9729,
            "minFilter" : 9987
        }
    ],
    "buffers" : [
        {
            "byteLength" : 104204,
            "uri" : "Belt_Bandolier.bin"
        }
    ]
}
