{
    "asset" : {
        "generator" : "Khronos glTF Blender I/O v3.3.27",
        "version" : "2.0"
    },
    "extensionsUsed" : [
        "KHR_materials_specular",
        "KHR_materials_ior"
    ],
    "scene" : 0,
    "scenes" : [
        {
            "name" : "Scene",
            "nodes" : [
                0
            ]
        }
    ],
    "nodes" : [
        {
            "mesh" : 0,
            "name" : "ColdArms_Candy_01"
        }
    ],
    "materials" : [
        {
            "doubleSided" : true,
            "extensions" : {
                "KHR_materials_specular" : {
                    "specularColorFactor" : [
                        2.371357614441398,
                        2.371357614441398,
                        2.371357614441398
                    ]
                },
                "KHR_materials_ior" : {
                    "ior" : 1.4500000476837158
                }
            },
            "name" : "MAT_Outfit_Plastic_Glossy_B",
            "normalTexture" : {
                "index" : 0,
                "texCoord" : 1
            },
            "pbrMetallicRoughness" : {
                "baseColorTexture" : {
                    "index" : 1
                },
                "metallicFactor" : 0,
                "roughnessFactor" : 0.10000000149011612
            }
        }
    ],
    "meshes" : [
        {
            "name" : "Cylinder",
            "primitives" : [
                {
                    "attributes" : {
                        "POSITION" : 0,
                        "NORMAL" : 1,
                        "TANGENT" : 2,
                        "TEXCOORD_0" : 3,
                        "TEXCOORD_1" : 4,
                        "COLOR_0" : 5
                    },
                    "indices" : 6,
                    "material" : 0
                }
            ]
        }
    ],
    "textures" : [
        {
            "sampler" : 0,
            "source" : 0
        },
        {
            "sampler" : 0,
            "source" : 1
        }
    ],
    "images" : [
        {
            "mimeType" : "image/jpeg",
            "name" : "TEX_Trim_A_N",
            "uri" : "TEX_Trim_A_N.jpg"
        },
        {
            "mimeType" : "image/jpeg",
            "name" : "BTLN_TrimColor_B",
            "uri" : "BTLN_TrimColor_B.jpg"
        }
    ],
    "accessors" : [
        {
            "bufferView" : 0,
            "componentType" : 5126,
            "count" : 848,
            "max" : [
                0.05324988812208176,
                0.5123921632766724,
                0.3883906900882721
            ],
            "min" : [
                -0.15264536440372467,
                -0.3948122262954712,
                -0.021648772060871124
            ],
            "type" : "VEC3"
        },
        {
            "bufferView" : 1,
            "componentType" : 5126,
            "count" : 848,
            "type" : "VEC3"
        },
        {
            "bufferView" : 2,
            "componentType" : 5126,
            "count" : 848,
            "type" : "VEC4"
        },
        {
            "bufferView" : 3,
            "componentType" : 5126,
            "count" : 848,
            "type" : "VEC2"
        },
        {
            "bufferView" : 4,
            "componentType" : 5126,
            "count" : 848,
            "type" : "VEC2"
        },
        {
            "bufferView" : 5,
            "componentType" : 5123,
            "count" : 848,
            "normalized" : true,
            "type" : "VEC4"
        },
        {
            "bufferView" : 6,
            "componentType" : 5123,
            "count" : 2664,
            "type" : "SCALAR"
        }
    ],
    "bufferViews" : [
        {
            "buffer" : 0,
            "byteLength" : 10176,
            "byteOffset" : 0,
            "target" : 34962
        },
        {
            "buffer" : 0,
            "byteLength" : 10176,
            "byteOffset" : 10176,
            "target" : 34962
        },
        {
            "buffer" : 0,
            "byteLength" : 13568,
            "byteOffset" : 20352,
            "target" : 34962
        },
        {
            "buffer" : 0,
            "byteLength" : 6784,
            "byteOffset" : 33920,
            "target" : 34962
        },
        {
            "buffer" : 0,
            "byteLength" : 6784,
            "byteOffset" : 40704,
            "target" : 34962
        },
        {
            "buffer" : 0,
            "byteLength" : 6784,
            "byteOffset" : 47488,
            "target" : 34962
        },
        {
            "buffer" : 0,
            "byteLength" : 5328,
            "byteOffset" : 54272,
            "target" : 34963
        }
    ],
    "samplers" : [
        {
            "magFilter" : 9729,
            "minFilter" : 9987
        }
    ],
    "buffers" : [
        {
            "byteLength" : 59600,
            "uri" : "ColdArms_Candy_01.bin"
        }
    ]
}
