{
    "asset" : {
        "generator" : "Khronos glTF Blender I/O v3.3.27",
        "version" : "2.0"
    },
    "extensionsUsed" : [
        "KHR_materials_specular",
        "KHR_materials_ior",
        "KHR_texture_transform"
    ],
    "extensionsRequired" : [
        "KHR_texture_transform"
    ],
    "scene" : 0,
    "scenes" : [
        {
            "name" : "Scene",
            "nodes" : [
                0
            ]
        }
    ],
    "nodes" : [
        {
            "mesh" : 0,
            "name" : "ColdArms_Chopper_Knife"
        }
    ],
    "materials" : [
        {
            "extensions" : {
                "KHR_materials_specular" : {
                    "specularColorFactor" : [
                        2.371357614441398,
                        2.371357614441398,
                        2.371357614441398
                    ]
                },
                "KHR_materials_ior" : {
                    "ior" : 1.4500000476837158
                }
            },
            "name" : "MAT_Outfit_Plastic_B",
            "normalTexture" : {
                "index" : 0,
                "texCoord" : 1
            },
            "pbrMetallicRoughness" : {
                "baseColorTexture" : {
                    "index" : 1
                },
                "metallicFactor" : 0,
                "metallicRoughnessTexture" : {
                    "extensions" : {
                        "KHR_texture_transform" : {
                            "offset" : [
                                0,
                                -2
                            ],
                            "scale" : [
                                3,
                                3
                            ]
                        }
                    },
                    "index" : 2,
                    "texCoord" : 1
                },
                "roughnessFactor" : 0.5
            }
        },
        {
            "extensions" : {
                "KHR_materials_specular" : {
                    "specularColorFactor" : [
                        1.3595783411134539,
                        1.3595783411134539,
                        1.3595783411134539
                    ]
                },
                "KHR_materials_ior" : {
                    "ior" : 1.4500000476837158
                }
            },
            "name" : "MAT_Outfit_M_B",
            "normalTexture" : {
                "index" : 3,
                "texCoord" : 1
            },
            "pbrMetallicRoughness" : {
                "baseColorTexture" : {
                    "index" : 4
                },
                "metallicRoughnessTexture" : {
                    "extensions" : {
                        "KHR_texture_transform" : {
                            "offset" : [
                                0,
                                -2
                            ],
                            "scale" : [
                                3,
                                3
                            ]
                        }
                    },
                    "index" : 5,
                    "texCoord" : 1
                },
                "roughnessFactor" : 0.5
            }
        }
    ],
    "meshes" : [
        {
            "name" : "Cube.014",
            "primitives" : [
                {
                    "attributes" : {
                        "POSITION" : 0,
                        "NORMAL" : 1,
                        "TANGENT" : 2,
                        "TEXCOORD_0" : 3,
                        "TEXCOORD_1" : 4,
                        "COLOR_0" : 5
                    },
                    "indices" : 6,
                    "material" : 0
                },
                {
                    "attributes" : {
                        "POSITION" : 7,
                        "NORMAL" : 8,
                        "TANGENT" : 9,
                        "TEXCOORD_0" : 10,
                        "TEXCOORD_1" : 11,
                        "COLOR_0" : 12
                    },
                    "indices" : 13,
                    "material" : 1
                }
            ]
        }
    ],
    "textures" : [
        {
            "sampler" : 0,
            "source" : 0
        },
        {
            "sampler" : 0,
            "source" : 1
        },
        {
            "sampler" : 0,
            "source" : 2
        },
        {
            "sampler" : 0,
            "source" : 0
        },
        {
            "sampler" : 0,
            "source" : 1
        },
        {
            "sampler" : 0,
            "source" : 2
        }
    ],
    "images" : [
        {
            "mimeType" : "image/jpeg",
            "name" : "TEX_Trim_A_N",
            "uri" : "TEX_Trim_A_N.jpg"
        },
        {
            "mimeType" : "image/jpeg",
            "name" : "BTLN_TrimColor_B",
            "uri" : "BTLN_TrimColor_B.jpg"
        },
        {
            "mimeType" : "image/jpeg",
            "name" : "TEX_MP_Roughness_A",
            "uri" : "TEX_MP_Roughness_A.jpg"
        }
    ],
    "accessors" : [
        {
            "bufferView" : 0,
            "componentType" : 5126,
            "count" : 515,
            "max" : [
                0.04122655466198921,
                0.09553685039281845,
                0.08977165818214417
            ],
            "min" : [
                -0.04122654348611832,
                -0.22443890571594238,
                -0.06356047093868256
            ],
            "type" : "VEC3"
        },
        {
            "bufferView" : 1,
            "componentType" : 5126,
            "count" : 515,
            "type" : "VEC3"
        },
        {
            "bufferView" : 2,
            "componentType" : 5126,
            "count" : 515,
            "type" : "VEC4"
        },
        {
            "bufferView" : 3,
            "componentType" : 5126,
            "count" : 515,
            "type" : "VEC2"
        },
        {
            "bufferView" : 4,
            "componentType" : 5126,
            "count" : 515,
            "type" : "VEC2"
        },
        {
            "bufferView" : 5,
            "componentType" : 5123,
            "count" : 515,
            "normalized" : true,
            "type" : "VEC4"
        },
        {
            "bufferView" : 6,
            "componentType" : 5123,
            "count" : 804,
            "type" : "SCALAR"
        },
        {
            "bufferView" : 7,
            "componentType" : 5126,
            "count" : 242,
            "max" : [
                0.026726583018898964,
                0.6872884035110474,
                0.21495506167411804
            ],
            "min" : [
                -0.0258471816778183,
                0.08333658427000046,
                -0.11894823610782623
            ],
            "type" : "VEC3"
        },
        {
            "bufferView" : 8,
            "componentType" : 5126,
            "count" : 242,
            "type" : "VEC3"
        },
        {
            "bufferView" : 9,
            "componentType" : 5126,
            "count" : 242,
            "type" : "VEC4"
        },
        {
            "bufferView" : 10,
            "componentType" : 5126,
            "count" : 242,
            "type" : "VEC2"
        },
        {
            "bufferView" : 11,
            "componentType" : 5126,
            "count" : 242,
            "type" : "VEC2"
        },
        {
            "bufferView" : 12,
            "componentType" : 5123,
            "count" : 242,
            "normalized" : true,
            "type" : "VEC4"
        },
        {
            "bufferView" : 13,
            "componentType" : 5123,
            "count" : 534,
            "type" : "SCALAR"
        }
    ],
    "bufferViews" : [
        {
            "buffer" : 0,
            "byteLength" : 6180,
            "byteOffset" : 0,
            "target" : 34962
        },
        {
            "buffer" : 0,
            "byteLength" : 6180,
            "byteOffset" : 6180,
            "target" : 34962
        },
        {
            "buffer" : 0,
            "byteLength" : 8240,
            "byteOffset" : 12360,
            "target" : 34962
        },
        {
            "buffer" : 0,
            "byteLength" : 4120,
            "byteOffset" : 20600,
            "target" : 34962
        },
        {
            "buffer" : 0,
            "byteLength" : 4120,
            "byteOffset" : 24720,
            "target" : 34962
        },
        {
            "buffer" : 0,
            "byteLength" : 4120,
            "byteOffset" : 28840,
            "target" : 34962
        },
        {
            "buffer" : 0,
            "byteLength" : 1608,
            "byteOffset" : 32960,
            "target" : 34963
        },
        {
            "buffer" : 0,
            "byteLength" : 2904,
            "byteOffset" : 34568,
            "target" : 34962
        },
        {
            "buffer" : 0,
            "byteLength" : 2904,
            "byteOffset" : 37472,
            "target" : 34962
        },
        {
            "buffer" : 0,
            "byteLength" : 3872,
            "byteOffset" : 40376,
            "target" : 34962
        },
        {
            "buffer" : 0,
            "byteLength" : 1936,
            "byteOffset" : 44248,
            "target" : 34962
        },
        {
            "buffer" : 0,
            "byteLength" : 1936,
            "byteOffset" : 46184,
            "target" : 34962
        },
        {
            "buffer" : 0,
            "byteLength" : 1936,
            "byteOffset" : 48120,
            "target" : 34962
        },
        {
            "buffer" : 0,
            "byteLength" : 1068,
            "byteOffset" : 50056,
            "target" : 34963
        }
    ],
    "samplers" : [
        {
            "magFilter" : 9729,
            "minFilter" : 9987
        }
    ],
    "buffers" : [
        {
            "byteLength" : 51124,
            "uri" : "ColdArms_Chopper_Knife.bin"
        }
    ]
}
