{
    "asset" : {
        "generator" : "Khronos glTF Blender I/O v3.3.27",
        "version" : "2.0"
    },
    "extensionsUsed" : [
        "KHR_materials_specular",
        "KHR_materials_ior",
        "KHR_texture_transform"
    ],
    "extensionsRequired" : [
        "KHR_texture_transform"
    ],
    "scene" : 0,
    "scenes" : [
        {
            "name" : "Scene",
            "nodes" : [
                0
            ]
        }
    ],
    "nodes" : [
        {
            "mesh" : 0,
            "name" : "FireArms_Grenade_Launcher"
        }
    ],
    "materials" : [
        {
            "doubleSided" : true,
            "extensions" : {
                "KHR_materials_specular" : {
                    "specularColorFactor" : [
                        2.371357614441398,
                        2.371357614441398,
                        2.371357614441398
                    ]
                },
                "KHR_materials_ior" : {
                    "ior" : 1.4500000476837158
                }
            },
            "name" : "MAT_Outfit_Plastic",
            "normalTexture" : {
                "index" : 0,
                "texCoord" : 1
            },
            "pbrMetallicRoughness" : {
                "baseColorTexture" : {
                    "index" : 1
                },
                "metallicFactor" : 0,
                "metallicRoughnessTexture" : {
                    "extensions" : {
                        "KHR_texture_transform" : {
                            "offset" : [
                                0,
                                -2
                            ],
                            "scale" : [
                                3,
                                3
                            ]
                        }
                    },
                    "index" : 2,
                    "texCoord" : 1
                },
                "roughnessFactor" : 0.5
            }
        },
        {
            "doubleSided" : true,
            "extensions" : {
                "KHR_materials_specular" : {
                    "specularColorFactor" : [
                        1.3595783411134539,
                        1.3595783411134539,
                        1.3595783411134539
                    ]
                },
                "KHR_materials_ior" : {
                    "ior" : 1.4500000476837158
                }
            },
            "name" : "MAT_Outfit_Metal_A",
            "normalTexture" : {
                "index" : 3,
                "texCoord" : 1
            },
            "pbrMetallicRoughness" : {
                "baseColorTexture" : {
                    "index" : 4
                },
                "metallicRoughnessTexture" : {
                    "extensions" : {
                        "KHR_texture_transform" : {
                            "offset" : [
                                0,
                                -2
                            ],
                            "scale" : [
                                3,
                                3
                            ]
                        }
                    },
                    "index" : 5,
                    "texCoord" : 1
                },
                "roughnessFactor" : 0.5
            }
        }
    ],
    "meshes" : [
        {
            "name" : "Cylinder.014",
            "primitives" : [
                {
                    "attributes" : {
                        "POSITION" : 0,
                        "NORMAL" : 1,
                        "TEXCOORD_0" : 2,
                        "TEXCOORD_1" : 3,
                        "COLOR_0" : 4
                    },
                    "indices" : 5,
                    "material" : 0
                },
                {
                    "attributes" : {
                        "POSITION" : 6,
                        "NORMAL" : 7,
                        "TEXCOORD_0" : 8,
                        "TEXCOORD_1" : 9,
                        "COLOR_0" : 10
                    },
                    "indices" : 11,
                    "material" : 1
                }
            ]
        }
    ],
    "textures" : [
        {
            "sampler" : 0,
            "source" : 0
        },
        {
            "sampler" : 0,
            "source" : 1
        },
        {
            "sampler" : 0,
            "source" : 2
        },
        {
            "sampler" : 0,
            "source" : 0
        },
        {
            "sampler" : 0,
            "source" : 1
        },
        {
            "sampler" : 0,
            "source" : 2
        }
    ],
    "images" : [
        {
            "mimeType" : "image/jpeg",
            "name" : "TEX_Trim_A_N",
            "uri" : "TEX_Trim_A_N.jpg"
        },
        {
            "mimeType" : "image/jpeg",
            "name" : "TEX_Outfit_AA",
            "uri" : "TEX_Outfit_AA.jpg"
        },
        {
            "mimeType" : "image/jpeg",
            "name" : "TEX_MP_Roughness_A",
            "uri" : "TEX_MP_Roughness_A.jpg"
        }
    ],
    "accessors" : [
        {
            "bufferView" : 0,
            "componentType" : 5126,
            "count" : 1105,
            "max" : [
                0.18497996032238007,
                0.3184974491596222,
                0.718693733215332
            ],
            "min" : [
                -0.1836274117231369,
                -0.18198567628860474,
                -0.11707061529159546
            ],
            "type" : "VEC3"
        },
        {
            "bufferView" : 1,
            "componentType" : 5126,
            "count" : 1105,
            "type" : "VEC3"
        },
        {
            "bufferView" : 2,
            "componentType" : 5126,
            "count" : 1105,
            "type" : "VEC2"
        },
        {
            "bufferView" : 3,
            "componentType" : 5126,
            "count" : 1105,
            "type" : "VEC2"
        },
        {
            "bufferView" : 4,
            "componentType" : 5123,
            "count" : 1105,
            "normalized" : true,
            "type" : "VEC4"
        },
        {
            "bufferView" : 5,
            "componentType" : 5123,
            "count" : 2154,
            "type" : "SCALAR"
        },
        {
            "bufferView" : 6,
            "componentType" : 5126,
            "count" : 2535,
            "max" : [
                0.21597756445407867,
                0.39248332381248474,
                0.7791158556938171
            ],
            "min" : [
                -0.1883978396654129,
                -0.14082923531532288,
                -0.04305341839790344
            ],
            "type" : "VEC3"
        },
        {
            "bufferView" : 7,
            "componentType" : 5126,
            "count" : 2535,
            "type" : "VEC3"
        },
        {
            "bufferView" : 8,
            "componentType" : 5126,
            "count" : 2535,
            "type" : "VEC2"
        },
        {
            "bufferView" : 9,
            "componentType" : 5126,
            "count" : 2535,
            "type" : "VEC2"
        },
        {
            "bufferView" : 10,
            "componentType" : 5123,
            "count" : 2535,
            "normalized" : true,
            "type" : "VEC4"
        },
        {
            "bufferView" : 11,
            "componentType" : 5123,
            "count" : 4845,
            "type" : "SCALAR"
        }
    ],
    "bufferViews" : [
        {
            "buffer" : 0,
            "byteLength" : 13260,
            "byteOffset" : 0,
            "target" : 34962
        },
        {
            "buffer" : 0,
            "byteLength" : 13260,
            "byteOffset" : 13260,
            "target" : 34962
        },
        {
            "buffer" : 0,
            "byteLength" : 8840,
            "byteOffset" : 26520,
            "target" : 34962
        },
        {
            "buffer" : 0,
            "byteLength" : 8840,
            "byteOffset" : 35360,
            "target" : 34962
        },
        {
            "buffer" : 0,
            "byteLength" : 8840,
            "byteOffset" : 44200,
            "target" : 34962
        },
        {
            "buffer" : 0,
            "byteLength" : 4308,
            "byteOffset" : 53040,
            "target" : 34963
        },
        {
            "buffer" : 0,
            "byteLength" : 30420,
            "byteOffset" : 57348,
            "target" : 34962
        },
        {
            "buffer" : 0,
            "byteLength" : 30420,
            "byteOffset" : 87768,
            "target" : 34962
        },
        {
            "buffer" : 0,
            "byteLength" : 20280,
            "byteOffset" : 118188,
            "target" : 34962
        },
        {
            "buffer" : 0,
            "byteLength" : 20280,
            "byteOffset" : 138468,
            "target" : 34962
        },
        {
            "buffer" : 0,
            "byteLength" : 20280,
            "byteOffset" : 158748,
            "target" : 34962
        },
        {
            "buffer" : 0,
            "byteLength" : 9690,
            "byteOffset" : 179028,
            "target" : 34963
        }
    ],
    "samplers" : [
        {
            "magFilter" : 9729,
            "minFilter" : 9987
        }
    ],
    "buffers" : [
        {
            "byteLength" : 188720,
            "uri" : "FireArms_Grenade_Launcher.bin"
        }
    ]
}
