{
    "asset" : {
        "generator" : "Khronos glTF Blender I/O v3.3.27",
        "version" : "2.0"
    },
    "extensionsUsed" : [
        "KHR_materials_specular",
        "KHR_materials_ior",
        "KHR_texture_transform"
    ],
    "extensionsRequired" : [
        "KHR_texture_transform"
    ],
    "scene" : 0,
    "scenes" : [
        {
            "name" : "Scene",
            "nodes" : [
                0
            ]
        }
    ],
    "nodes" : [
        {
            "mesh" : 0,
            "name" : "Glasses_Deep_Blue"
        }
    ],
    "materials" : [
        {
            "doubleSided" : true,
            "extensions" : {
                "KHR_materials_specular" : {
                    "specularColorFactor" : [
                        2.371357614441398,
                        2.371357614441398,
                        2.371357614441398
                    ]
                },
                "KHR_materials_ior" : {
                    "ior" : 1.4500000476837158
                }
            },
            "name" : "MAT_Outfit_Plastic_B",
            "normalTexture" : {
                "index" : 0,
                "texCoord" : 1
            },
            "pbrMetallicRoughness" : {
                "baseColorTexture" : {
                    "index" : 1
                },
                "metallicFactor" : 0,
                "metallicRoughnessTexture" : {
                    "extensions" : {
                        "KHR_texture_transform" : {
                            "offset" : [
                                0,
                                -2
                            ],
                            "scale" : [
                                3,
                                3
                            ]
                        }
                    },
                    "index" : 2,
                    "texCoord" : 1
                },
                "roughnessFactor" : 0.5
            }
        },
        {
            "alphaMode" : "BLEND",
            "doubleSided" : true,
            "extensions" : {
                "KHR_materials_specular" : {
                    "specularColorFactor" : [
                        2.371357614441398,
                        2.371357614441398,
                        2.371357614441398
                    ]
                },
                "KHR_materials_ior" : {
                    "ior" : 1.4500000476837158
                }
            },
            "name" : "MAT_Outfit_Glass_B",
            "normalTexture" : {
                "index" : 3,
                "texCoord" : 1
            },
            "pbrMetallicRoughness" : {
                "baseColorFactor" : [
                    1,
                    1,
                    1,
                    0.6000000238418579
                ],
                "baseColorTexture" : {
                    "index" : 4
                },
                "metallicFactor" : 0,
                "metallicRoughnessTexture" : {
                    "extensions" : {
                        "KHR_texture_transform" : {
                            "offset" : [
                                0,
                                -2
                            ],
                            "scale" : [
                                3,
                                3
                            ]
                        }
                    },
                    "index" : 5,
                    "texCoord" : 1
                },
                "roughnessFactor" : 0.30000001192092896
            }
        }
    ],
    "meshes" : [
        {
            "name" : "Cube.037",
            "primitives" : [
                {
                    "attributes" : {
                        "POSITION" : 0,
                        "NORMAL" : 1,
                        "TEXCOORD_0" : 2,
                        "TEXCOORD_1" : 3,
                        "COLOR_0" : 4
                    },
                    "indices" : 5,
                    "material" : 0
                },
                {
                    "attributes" : {
                        "POSITION" : 6,
                        "NORMAL" : 7,
                        "TEXCOORD_0" : 8,
                        "TEXCOORD_1" : 9,
                        "COLOR_0" : 10
                    },
                    "indices" : 11,
                    "material" : 1
                }
            ]
        }
    ],
    "textures" : [
        {
            "sampler" : 0,
            "source" : 0
        },
        {
            "sampler" : 0,
            "source" : 1
        },
        {
            "sampler" : 0,
            "source" : 2
        },
        {
            "sampler" : 0,
            "source" : 0
        },
        {
            "sampler" : 0,
            "source" : 1
        },
        {
            "sampler" : 0,
            "source" : 2
        }
    ],
    "images" : [
        {
            "mimeType" : "image/png",
            "name" : "TEX_Trim_A_N",
            "uri" : "TEX_Trim_A_N.png"
        },
        {
            "mimeType" : "image/png",
            "name" : "BTLN_TrimColor_B",
            "uri" : "BTLN_TrimColor_B.png"
        },
        {
            "mimeType" : "image/png",
            "name" : "TEX_MP_Roughness_A",
            "uri" : "TEX_MP_Roughness_A.png"
        }
    ],
    "accessors" : [
        {
            "bufferView" : 0,
            "componentType" : 5126,
            "count" : 454,
            "max" : [
                0.5045008063316345,
                0.1984965205192566,
                0.5477768182754517
            ],
            "min" : [
                -0.49313268065452576,
                -0.08457070589065552,
                0.06326960027217865
            ],
            "type" : "VEC3"
        },
        {
            "bufferView" : 1,
            "componentType" : 5126,
            "count" : 454,
            "type" : "VEC3"
        },
        {
            "bufferView" : 2,
            "componentType" : 5126,
            "count" : 454,
            "type" : "VEC2"
        },
        {
            "bufferView" : 3,
            "componentType" : 5126,
            "count" : 454,
            "type" : "VEC2"
        },
        {
            "bufferView" : 4,
            "componentType" : 5123,
            "count" : 454,
            "normalized" : true,
            "type" : "VEC4"
        },
        {
            "bufferView" : 5,
            "componentType" : 5123,
            "count" : 1212,
            "type" : "SCALAR"
        },
        {
            "bufferView" : 6,
            "componentType" : 5126,
            "count" : 328,
            "max" : [
                0.31941166520118713,
                0.1708086133003235,
                0.5370129346847534
            ],
            "min" : [
                -0.30804356932640076,
                -0.056882791221141815,
                0.5370128750801086
            ],
            "type" : "VEC3"
        },
        {
            "bufferView" : 7,
            "componentType" : 5126,
            "count" : 328,
            "type" : "VEC3"
        },
        {
            "bufferView" : 8,
            "componentType" : 5126,
            "count" : 328,
            "type" : "VEC2"
        },
        {
            "bufferView" : 9,
            "componentType" : 5126,
            "count" : 328,
            "type" : "VEC2"
        },
        {
            "bufferView" : 10,
            "componentType" : 5123,
            "count" : 328,
            "normalized" : true,
            "type" : "VEC4"
        },
        {
            "bufferView" : 11,
            "componentType" : 5123,
            "count" : 588,
            "type" : "SCALAR"
        }
    ],
    "bufferViews" : [
        {
            "buffer" : 0,
            "byteLength" : 5448,
            "byteOffset" : 0,
            "target" : 34962
        },
        {
            "buffer" : 0,
            "byteLength" : 5448,
            "byteOffset" : 5448,
            "target" : 34962
        },
        {
            "buffer" : 0,
            "byteLength" : 3632,
            "byteOffset" : 10896,
            "target" : 34962
        },
        {
            "buffer" : 0,
            "byteLength" : 3632,
            "byteOffset" : 14528,
            "target" : 34962
        },
        {
            "buffer" : 0,
            "byteLength" : 3632,
            "byteOffset" : 18160,
            "target" : 34962
        },
        {
            "buffer" : 0,
            "byteLength" : 2424,
            "byteOffset" : 21792,
            "target" : 34963
        },
        {
            "buffer" : 0,
            "byteLength" : 3936,
            "byteOffset" : 24216,
            "target" : 34962
        },
        {
            "buffer" : 0,
            "byteLength" : 3936,
            "byteOffset" : 28152,
            "target" : 34962
        },
        {
            "buffer" : 0,
            "byteLength" : 2624,
            "byteOffset" : 32088,
            "target" : 34962
        },
        {
            "buffer" : 0,
            "byteLength" : 2624,
            "byteOffset" : 34712,
            "target" : 34962
        },
        {
            "buffer" : 0,
            "byteLength" : 2624,
            "byteOffset" : 37336,
            "target" : 34962
        },
        {
            "buffer" : 0,
            "byteLength" : 1176,
            "byteOffset" : 39960,
            "target" : 34963
        }
    ],
    "samplers" : [
        {
            "magFilter" : 9729,
            "minFilter" : 9987
        }
    ],
    "buffers" : [
        {
            "byteLength" : 41136,
            "uri" : "Glasses_Deep_Blue.bin"
        }
    ]
}
