{
    "asset" : {
        "generator" : "Khronos glTF Blender I/O v3.3.27",
        "version" : "2.0"
    },
    "extensionsUsed" : [
        "KHR_materials_specular",
        "KHR_materials_ior",
        "KHR_texture_transform"
    ],
    "extensionsRequired" : [
        "KHR_texture_transform"
    ],
    "scene" : 0,
    "scenes" : [
        {
            "name" : "Scene",
            "nodes" : [
                0
            ]
        }
    ],
    "nodes" : [
        {
            "mesh" : 0,
            "name" : "Pod_Round_A"
        }
    ],
    "materials" : [
        {
            "extensions" : {
                "KHR_materials_specular" : {
                    "specularColorFactor" : [
                        1.3595783411134539,
                        1.3595783411134539,
                        1.3595783411134539
                    ]
                },
                "KHR_materials_ior" : {
                    "ior" : 1.4500000476837158
                }
            },
            "name" : "MAT_Outfit_M_B",
            "normalTexture" : {
                "index" : 0,
                "texCoord" : 1
            },
            "pbrMetallicRoughness" : {
                "baseColorTexture" : {
                    "index" : 1
                },
                "metallicRoughnessTexture" : {
                    "extensions" : {
                        "KHR_texture_transform" : {
                            "offset" : [
                                0,
                                -2
                            ],
                            "scale" : [
                                3,
                                3
                            ]
                        }
                    },
                    "index" : 2,
                    "texCoord" : 1
                },
                "roughnessFactor" : 0.5
            }
        },
        {
            "doubleSided" : true,
            "emissiveTexture" : {
                "index" : 3
            },
            "extensions" : {
                "KHR_materials_specular" : {
                    "specularColorFactor" : [
                        2.371357614441398,
                        2.371357614441398,
                        2.371357614441398
                    ]
                },
                "KHR_materials_ior" : {
                    "ior" : 1.4500000476837158
                }
            },
            "name" : "MAT_Platform_Emissive_Round",
            "pbrMetallicRoughness" : {
                "baseColorTexture" : {
                    "index" : 4
                },
                "metallicFactor" : 0,
                "roughnessFactor" : 0.11769036203622818
            }
        }
    ],
    "meshes" : [
        {
            "name" : "Cylinder.025",
            "primitives" : [
                {
                    "attributes" : {
                        "POSITION" : 0,
                        "NORMAL" : 1,
                        "TEXCOORD_0" : 2,
                        "TEXCOORD_1" : 3,
                        "COLOR_0" : 4
                    },
                    "indices" : 5,
                    "material" : 0
                },
                {
                    "attributes" : {
                        "POSITION" : 6,
                        "NORMAL" : 7,
                        "TEXCOORD_0" : 8,
                        "TEXCOORD_1" : 9,
                        "COLOR_0" : 10
                    },
                    "indices" : 11,
                    "material" : 1
                }
            ]
        }
    ],
    "textures" : [
        {
            "sampler" : 0,
            "source" : 0
        },
        {
            "sampler" : 0,
            "source" : 1
        },
        {
            "sampler" : 0,
            "source" : 2
        },
        {
            "sampler" : 0,
            "source" : 1
        },
        {
            "sampler" : 0,
            "source" : 1
        }
    ],
    "images" : [
        {
            "mimeType" : "image/jpeg",
            "name" : "TEX_Trim_A_N",
            "uri" : "TEX_Trim_A_N.jpg"
        },
        {
            "mimeType" : "image/jpeg",
            "name" : "BTLN_TrimColor_B",
            "uri" : "BTLN_TrimColor_B.jpg"
        },
        {
            "mimeType" : "image/jpeg",
            "name" : "TEX_MP_Roughness_A",
            "uri" : "TEX_MP_Roughness_A.jpg"
        }
    ],
    "accessors" : [
        {
            "bufferView" : 0,
            "componentType" : 5126,
            "count" : 840,
            "max" : [
                0.8751899003982544,
                -0.013439690694212914,
                0.8753425478935242
            ],
            "min" : [
                -0.8754950761795044,
                -0.13110685348510742,
                -0.8753424882888794
            ],
            "type" : "VEC3"
        },
        {
            "bufferView" : 1,
            "componentType" : 5126,
            "count" : 840,
            "type" : "VEC3"
        },
        {
            "bufferView" : 2,
            "componentType" : 5126,
            "count" : 840,
            "type" : "VEC2"
        },
        {
            "bufferView" : 3,
            "componentType" : 5126,
            "count" : 840,
            "type" : "VEC2"
        },
        {
            "bufferView" : 4,
            "componentType" : 5123,
            "count" : 840,
            "normalized" : true,
            "type" : "VEC4"
        },
        {
            "bufferView" : 5,
            "componentType" : 5123,
            "count" : 2874,
            "type" : "SCALAR"
        },
        {
            "bufferView" : 6,
            "componentType" : 5126,
            "count" : 772,
            "max" : [
                0.8130791783332825,
                -0.00022986344993114471,
                0.8132317662239075
            ],
            "min" : [
                -0.8133843541145325,
                -0.030481331050395966,
                -0.8132317662239075
            ],
            "type" : "VEC3"
        },
        {
            "bufferView" : 7,
            "componentType" : 5126,
            "count" : 772,
            "type" : "VEC3"
        },
        {
            "bufferView" : 8,
            "componentType" : 5126,
            "count" : 772,
            "type" : "VEC2"
        },
        {
            "bufferView" : 9,
            "componentType" : 5126,
            "count" : 772,
            "type" : "VEC2"
        },
        {
            "bufferView" : 10,
            "componentType" : 5123,
            "count" : 772,
            "normalized" : true,
            "type" : "VEC4"
        },
        {
            "bufferView" : 11,
            "componentType" : 5123,
            "count" : 1350,
            "type" : "SCALAR"
        }
    ],
    "bufferViews" : [
        {
            "buffer" : 0,
            "byteLength" : 10080,
            "byteOffset" : 0,
            "target" : 34962
        },
        {
            "buffer" : 0,
            "byteLength" : 10080,
            "byteOffset" : 10080,
            "target" : 34962
        },
        {
            "buffer" : 0,
            "byteLength" : 6720,
            "byteOffset" : 20160,
            "target" : 34962
        },
        {
            "buffer" : 0,
            "byteLength" : 6720,
            "byteOffset" : 26880,
            "target" : 34962
        },
        {
            "buffer" : 0,
            "byteLength" : 6720,
            "byteOffset" : 33600,
            "target" : 34962
        },
        {
            "buffer" : 0,
            "byteLength" : 5748,
            "byteOffset" : 40320,
            "target" : 34963
        },
        {
            "buffer" : 0,
            "byteLength" : 9264,
            "byteOffset" : 46068,
            "target" : 34962
        },
        {
            "buffer" : 0,
            "byteLength" : 9264,
            "byteOffset" : 55332,
            "target" : 34962
        },
        {
            "buffer" : 0,
            "byteLength" : 6176,
            "byteOffset" : 64596,
            "target" : 34962
        },
        {
            "buffer" : 0,
            "byteLength" : 6176,
            "byteOffset" : 70772,
            "target" : 34962
        },
        {
            "buffer" : 0,
            "byteLength" : 6176,
            "byteOffset" : 76948,
            "target" : 34962
        },
        {
            "buffer" : 0,
            "byteLength" : 2700,
            "byteOffset" : 83124,
            "target" : 34963
        }
    ],
    "samplers" : [
        {
            "magFilter" : 9729,
            "minFilter" : 9987
        }
    ],
    "buffers" : [
        {
            "byteLength" : 85824,
            "uri" : "Pod_Round_A.bin"
        }
    ]
}
