{
    "asset" : {
        "generator" : "Khronos glTF Blender I/O v3.3.27",
        "version" : "2.0"
    },
    "extensionsUsed" : [
        "KHR_materials_specular",
        "KHR_materials_ior",
        "KHR_texture_transform"
    ],
    "extensionsRequired" : [
        "KHR_texture_transform"
    ],
    "scene" : 0,
    "scenes" : [
        {
            "name" : "Scene",
            "nodes" : [
                0
            ]
        }
    ],
    "nodes" : [
        {
            "mesh" : 0,
            "name" : "Shoes_NY_02_L"
        }
    ],
    "materials" : [
        {
            "doubleSided" : true,
            "extensions" : {
                "KHR_materials_specular" : {
                    "specularColorFactor" : [
                        2.371357614441398,
                        2.371357614441398,
                        2.371357614441398
                    ]
                },
                "KHR_materials_ior" : {
                    "ior" : 1.4500000476837158
                }
            },
            "name" : "MAT_Outfit_Plastic_B_mat_2",
            "normalTexture" : {
                "index" : 0,
                "texCoord" : 1
            },
            "pbrMetallicRoughness" : {
                "baseColorTexture" : {
                    "index" : 1
                },
                "metallicFactor" : 0
            }
        },
        {
            "doubleSided" : true,
            "extensions" : {
                "KHR_materials_specular" : {
                    "specularColorFactor" : [
                        1.3595783411134539,
                        1.3595783411134539,
                        1.3595783411134539
                    ]
                },
                "KHR_materials_ior" : {
                    "ior" : 1.4500000476837158
                }
            },
            "name" : "MAT_Outfit_M_B.001",
            "normalTexture" : {
                "index" : 2,
                "texCoord" : 1
            },
            "pbrMetallicRoughness" : {
                "baseColorTexture" : {
                    "index" : 3
                },
                "metallicRoughnessTexture" : {
                    "extensions" : {
                        "KHR_texture_transform" : {
                            "offset" : [
                                0,
                                -2
                            ],
                            "scale" : [
                                3,
                                3
                            ]
                        }
                    },
                    "index" : 4,
                    "texCoord" : 1
                },
                "roughnessFactor" : 0.5
            }
        }
    ],
    "meshes" : [
        {
            "name" : "Cube.052",
            "primitives" : [
                {
                    "attributes" : {
                        "POSITION" : 0,
                        "NORMAL" : 1,
                        "TEXCOORD_0" : 2,
                        "TEXCOORD_1" : 3,
                        "COLOR_0" : 4
                    },
                    "indices" : 5,
                    "material" : 0
                },
                {
                    "attributes" : {
                        "POSITION" : 6,
                        "NORMAL" : 7,
                        "TEXCOORD_0" : 8,
                        "TEXCOORD_1" : 9,
                        "COLOR_0" : 10
                    },
                    "indices" : 11,
                    "material" : 1
                }
            ]
        }
    ],
    "textures" : [
        {
            "sampler" : 0,
            "source" : 0
        },
        {
            "sampler" : 0,
            "source" : 1
        },
        {
            "sampler" : 0,
            "source" : 0
        },
        {
            "sampler" : 0,
            "source" : 1
        },
        {
            "sampler" : 0,
            "source" : 2
        }
    ],
    "images" : [
        {
            "mimeType" : "image/jpeg",
            "name" : "TEX_Trim_A_N",
            "uri" : "TEX_Trim_A_N.jpg"
        },
        {
            "mimeType" : "image/jpeg",
            "name" : "BTLN_TrimColor_B",
            "uri" : "BTLN_TrimColor_B.jpg"
        },
        {
            "mimeType" : "image/jpeg",
            "name" : "TEX_MP_Roughness_A",
            "uri" : "TEX_MP_Roughness_A.jpg"
        }
    ],
    "accessors" : [
        {
            "bufferView" : 0,
            "componentType" : 5126,
            "count" : 688,
            "max" : [
                0.16168572008609772,
                0.20508724451065063,
                0.30744820833206177
            ],
            "min" : [
                -0.16451531648635864,
                -0.07542318105697632,
                -0.2574480175971985
            ],
            "type" : "VEC3"
        },
        {
            "bufferView" : 1,
            "componentType" : 5126,
            "count" : 688,
            "type" : "VEC3"
        },
        {
            "bufferView" : 2,
            "componentType" : 5126,
            "count" : 688,
            "type" : "VEC2"
        },
        {
            "bufferView" : 3,
            "componentType" : 5126,
            "count" : 688,
            "type" : "VEC2"
        },
        {
            "bufferView" : 4,
            "componentType" : 5123,
            "count" : 688,
            "normalized" : true,
            "type" : "VEC4"
        },
        {
            "bufferView" : 5,
            "componentType" : 5123,
            "count" : 1986,
            "type" : "SCALAR"
        },
        {
            "bufferView" : 6,
            "componentType" : 5126,
            "count" : 32,
            "max" : [
                0.12582948803901672,
                0.15467438101768494,
                0.12740477919578552
            ],
            "min" : [
                -0.11888136714696884,
                0.04137152433395386,
                0.02343856170773506
            ],
            "type" : "VEC3"
        },
        {
            "bufferView" : 7,
            "componentType" : 5126,
            "count" : 32,
            "type" : "VEC3"
        },
        {
            "bufferView" : 8,
            "componentType" : 5126,
            "count" : 32,
            "type" : "VEC2"
        },
        {
            "bufferView" : 9,
            "componentType" : 5126,
            "count" : 32,
            "type" : "VEC2"
        },
        {
            "bufferView" : 10,
            "componentType" : 5123,
            "count" : 32,
            "normalized" : true,
            "type" : "VEC4"
        },
        {
            "bufferView" : 11,
            "componentType" : 5123,
            "count" : 84,
            "type" : "SCALAR"
        }
    ],
    "bufferViews" : [
        {
            "buffer" : 0,
            "byteLength" : 8256,
            "byteOffset" : 0,
            "target" : 34962
        },
        {
            "buffer" : 0,
            "byteLength" : 8256,
            "byteOffset" : 8256,
            "target" : 34962
        },
        {
            "buffer" : 0,
            "byteLength" : 5504,
            "byteOffset" : 16512,
            "target" : 34962
        },
        {
            "buffer" : 0,
            "byteLength" : 5504,
            "byteOffset" : 22016,
            "target" : 34962
        },
        {
            "buffer" : 0,
            "byteLength" : 5504,
            "byteOffset" : 27520,
            "target" : 34962
        },
        {
            "buffer" : 0,
            "byteLength" : 3972,
            "byteOffset" : 33024,
            "target" : 34963
        },
        {
            "buffer" : 0,
            "byteLength" : 384,
            "byteOffset" : 36996,
            "target" : 34962
        },
        {
            "buffer" : 0,
            "byteLength" : 384,
            "byteOffset" : 37380,
            "target" : 34962
        },
        {
            "buffer" : 0,
            "byteLength" : 256,
            "byteOffset" : 37764,
            "target" : 34962
        },
        {
            "buffer" : 0,
            "byteLength" : 256,
            "byteOffset" : 38020,
            "target" : 34962
        },
        {
            "buffer" : 0,
            "byteLength" : 256,
            "byteOffset" : 38276,
            "target" : 34962
        },
        {
            "buffer" : 0,
            "byteLength" : 168,
            "byteOffset" : 38532,
            "target" : 34963
        }
    ],
    "samplers" : [
        {
            "magFilter" : 9729,
            "minFilter" : 9987
        }
    ],
    "buffers" : [
        {
            "byteLength" : 38700,
            "uri" : "Shoes_NY_02_L.bin"
        }
    ]
}
